<ttFont>
    <TTGlyph name=".notdef" xMin="228" yMin="0" xMax="1644" yMax="1416">
      <contour>
        <pt x="228" y="1416" on="1"/>
        <pt x="1644" y="1416" on="1"/>
        <pt x="1644" y="0" on="1"/>
        <pt x="228" y="0" on="1"/>
      </contour>
      <contour>
        <pt x="586" y="219" on="1"/>
        <pt x="933" y="587" on="1"/>
        <pt x="1295" y="219" on="1"/>
        <pt x="1417" y="341" on="1"/>
        <pt x="1054" y="709" on="1"/>
        <pt x="1417" y="1067" on="1"/>
        <pt x="1289" y="1191" on="1"/>
        <pt x="937" y="825" on="1"/>
        <pt x="580" y="1193" on="1"/>
        <pt x="457" y="1068" on="1"/>
        <pt x="816" y="705" on="1"/>
        <pt x="458" y="363" on="1"/>
      </contour>
    </TTGlyph>
    <TTGlyph name="A" xMin="33" yMin="0" xMax="1361" yMax="1538">
      <contour>
        <pt x="621" y="1538" on="1"/>
        <pt x="787" y="1538" on="1"/>
        <pt x="1361" y="0" on="1"/>
        <pt x="1178" y="0" on="1"/>
        <pt x="1031" y="418" on="1"/>
        <pt x="366" y="418" on="1"/>
        <pt x="213" y="0" on="1"/>
        <pt x="33" y="0" on="1"/>
      </contour>
      <contour>
        <pt x="987" y="545" on="1"/>
        <pt x="743" y="1240" on="1"/>
        <pt x="705" y="1360" on="1"/>
        <pt x="667" y="1239" on="1"/>
        <pt x="412" y="545" on="1"/>
      </contour>
    </TTGlyph>
    <TTGlyph name="AE" xMin="-55" yMin="0" xMax="1784" yMax="1522">
      <contour>
        <pt x="676" y="1522" on="1"/>
        <pt x="1710" y="1522" on="1"/>
        <pt x="1710" y="1391" on="1"/>
        <pt x="1008" y="1391" on="1"/>
        <pt x="1008" y="850" on="1"/>
        <pt x="1534" y="850" on="1"/>
        <pt x="1534" y="719" on="1"/>
        <pt x="1008" y="719" on="1"/>
        <pt x="1008" y="133" on="1"/>
        <pt x="1784" y="133" on="1"/>
        <pt x="1784" y="0" on="1"/>
        <pt x="839" y="0" on="1"/>
        <pt x="839" y="417" on="1"/>
        <pt x="333" y="417" on="1"/>
        <pt x="134" y="0" on="1"/>
        <pt x="-55" y="0" on="1"/>
      </contour>
      <contour>
        <pt x="839" y="544" on="1"/>
        <pt x="839" y="1410" on="1"/>
        <pt x="807" y="1410" on="1"/>
        <pt x="393" y="544" on="1"/>
      </contour>
    </TTGlyph>
    <TTGlyph name="AEacute" xMin="-55" yMin="0" xMax="1784" yMax="1975">
      <component glyphName="acute.cap" x="843" y="0" flags="0x1004"/>
      <component glyphName="AE" x="0" y="0" flags="0x1004"/>
    </TTGlyph>
    <TTGlyph name="Aacute" xMin="33" yMin="0" xMax="1361" yMax="1975">
      <component glyphName="A" x="0" y="0" flags="0x1204"/>
      <component glyphName="acute.cap" x="523" y="0" flags="0x1004"/>
    </TTGlyph>
    <TTGlyph name="Abreve" xMin="33" yMin="0" xMax="1361" yMax="1967">
      <component glyphName="A" x="0" y="0" flags="0x1204"/>
      <component glyphName="breve.cap" x="312" y="0" flags="0x1004"/>
    </TTGlyph>
    <TTGlyph name="Acircumflex" xMin="33" yMin="0" xMax="1361" yMax="1982">
      <component glyphName="A" x="0" y="0" flags="0x1204"/>
      <component glyphName="circumflex.cap" x="297" y="0" flags="0x1004"/>
    </TTGlyph>
    <TTGlyph name="Adieresis" xMin="33" yMin="0" xMax="1361" yMax="1922">
      <component glyphName="A" x="0" y="0" flags="0x1204"/>
      <component glyphName="dieresis.cap" x="296" y="0" flags="0x1004"/>
    </TTGlyph>
    <TTGlyph name="Agrave" xMin="33" yMin="0" xMax="1361" yMax="1975">
      <component glyphName="A" x="0" y="0" flags="0x1204"/>
      <component glyphName="grave.cap" x="310" y="0" flags="0x1004"/>
    </TTGlyph>
    <TTGlyph name="Amacron" xMin="33" yMin="0" xMax="1361" yMax="1867">
      <component glyphName="A" x="0" y="0" flags="0x1204"/>
      <component glyphName="macron.cap" x="379" y="0" flags="0x1004"/>
    </TTGlyph>
    <TTGlyph name="Aogonek" xMin="33" yMin="-512" xMax="1377" yMax="1538">
      <contour>
        <pt x="1377" y="-450" on="1"/>
        <pt x="1294" y="-512" on="0"/>
        <pt x="977" y="-512" on="0"/>
        <pt x="921" y="-400" on="1"/>
        <pt x="902" y="-363" on="0"/>
        <pt x="902" y="-311" on="1"/>
        <pt x="902" y="-216" on="0"/>
        <pt x="1078" y="-55" on="0"/>
        <pt x="1190" y="0" on="1"/>
        <pt x="1178" y="0" on="1"/>
        <pt x="1031" y="418" on="1"/>
        <pt x="366" y="418" on="1"/>
        <pt x="213" y="0" on="1"/>
        <pt x="33" y="0" on="1"/>
        <pt x="621" y="1538" on="1"/>
        <pt x="787" y="1538" on="1"/>
        <pt x="1361" y="0" on="1"/>
        <pt x="1324" y="0" on="1"/>
        <pt x="1066" y="-143" on="0"/>
        <pt x="1066" y="-280" on="1"/>
        <pt x="1069" y="-399" on="0"/>
        <pt x="1216" y="-399" on="1"/>
        <pt x="1299" y="-397" on="0"/>
        <pt x="1377" y="-358" on="1"/>
      </contour>
      <contour>
        <pt x="987" y="545" on="1"/>
        <pt x="743" y="1240" on="1"/>
        <pt x="705" y="1360" on="1"/>
        <pt x="667" y="1239" on="1"/>
        <pt x="412" y="545" on="1"/>
      </contour>
    </TTGlyph>
    <TTGlyph name="Aring" xMin="33" yMin="0" xMax="1361" yMax="1972">
      <contour>
        <pt x="594" y="1469" on="1"/>
        <pt x="495" y="1492" on="0"/>
        <pt x="388" y="1619" on="0"/>
        <pt x="388" y="1714" on="1"/>
        <pt x="388" y="1848" on="0"/>
        <pt x="572" y="1972" on="0"/>
        <pt x="699" y="1972" on="1"/>
        <pt x="920" y="1972" on="0"/>
        <pt x="986" y="1828" on="1"/>
        <pt x="1007" y="1781" on="0"/>
        <pt x="1006" y="1724" on="1"/>
        <pt x="1006" y="1621" on="0"/>
        <pt x="899" y="1496" on="0"/>
        <pt x="811" y="1473" on="1"/>
        <pt x="1361" y="0" on="1"/>
        <pt x="1178" y="0" on="1"/>
        <pt x="1031" y="418" on="1"/>
        <pt x="366" y="418" on="1"/>
        <pt x="213" y="0" on="1"/>
        <pt x="33" y="0" on="1"/>
      </contour>
      <contour>
        <pt x="695" y="1556" on="1"/>
        <pt x="832" y="1556" on="0"/>
        <pt x="874" y="1643" on="1"/>
        <pt x="889" y="1674" on="0"/>
        <pt x="889" y="1716" on="1"/>
        <pt x="889" y="1796" on="0"/>
        <pt x="783" y="1877" on="0"/>
        <pt x="698" y="1877" on="1"/>
        <pt x="570" y="1877" on="0"/>
        <pt x="524" y="1796" on="1"/>
        <pt x="507" y="1766" on="0"/>
        <pt x="507" y="1644" on="0"/>
        <pt x="605" y="1558" on="0"/>
      </contour>
      <contour>
        <pt x="987" y="545" on="1"/>
        <pt x="743" y="1240" on="1"/>
        <pt x="705" y="1360" on="1"/>
        <pt x="667" y="1239" on="1"/>
        <pt x="412" y="545" on="1"/>
      </contour>
    </TTGlyph>
    <TTGlyph name="Atilde" xMin="33" yMin="0" xMax="1361" yMax="1944">
      <component glyphName="A" x="0" y="0" flags="0x1204"/>
      <component glyphName="tilde.cap" x="240" y="0" flags="0x1004"/>
    </TTGlyph>
    <TTGlyph name="B" xMin="206" yMin="-14" xMax="1241" yMax="1535">
      <contour>
        <pt x="1038" y="51" on="0"/>
        <pt x="808" y="-14" on="0"/>
        <pt x="554" y="-14" on="0"/>
        <pt x="295" y="0" on="1"/>
        <pt x="206" y="0" on="1"/>
        <pt x="206" y="1523" on="1"/>
        <pt x="298" y="1522" on="1"/>
        <pt x="638" y="1535" on="1"/>
        <pt x="888" y="1535" on="0"/>
        <pt x="1136" y="1347" on="0"/>
        <pt x="1136" y="978" on="0"/>
        <pt x="1006" y="869" on="1"/>
        <pt x="959" y="830" on="0"/>
        <pt x="892" y="814" on="1"/>
        <pt x="1033" y="808" on="0"/>
        <pt x="1241" y="600" on="0"/>
        <pt x="1241" y="453" on="1"/>
        <pt x="1241" y="225" on="0"/>
        <pt x="1108" y="112" on="1"/>
      </contour>
      <contour>
        <pt x="606" y="1415" on="1"/>
        <pt x="458" y="1415" on="0"/>
        <pt x="374" y="1403" on="1"/>
        <pt x="374" y="848" on="1"/>
        <pt x="414" y="843" on="0"/>
        <pt x="544" y="843" on="1"/>
        <pt x="721" y="844" on="1"/>
        <pt x="838" y="852" on="0"/>
        <pt x="972" y="1017" on="0"/>
        <pt x="972" y="1155" on="1"/>
        <pt x="972" y="1415" on="0"/>
      </contour>
      <contour>
        <pt x="703" y="723" on="1"/>
        <pt x="506" y="723" on="1"/>
        <pt x="412" y="723" on="0"/>
        <pt x="374" y="719" on="1"/>
        <pt x="374" y="130" on="1"/>
        <pt x="479" y="110" on="0"/>
        <pt x="758" y="110" on="0"/>
        <pt x="834" y="126" on="1"/>
        <pt x="1069" y="178" on="0"/>
        <pt x="1069" y="433" on="1"/>
        <pt x="1069" y="714" on="0"/>
      </contour>
    </TTGlyph>
    <TTGlyph name="C" xMin="107" yMin="-16" xMax="1200" yMax="1538">
      <contour>
        <pt x="204" y="297" on="0"/>
        <pt x="107" y="581" on="0"/>
        <pt x="107" y="943" on="0"/>
        <pt x="217" y="1235" on="0"/>
        <pt x="312" y="1335" on="1"/>
        <pt x="505" y="1538" on="0"/>
        <pt x="803" y="1538" on="1"/>
        <pt x="1005" y="1538" on="0"/>
        <pt x="1144" y="1495" on="1"/>
        <pt x="1177" y="1485" on="0"/>
        <pt x="1200" y="1480" on="1"/>
        <pt x="1176" y="1330" on="1"/>
        <pt x="1159" y="1336" on="0"/>
        <pt x="1105" y="1359" on="0"/>
        <pt x="953" y="1400" on="0"/>
        <pt x="823" y="1400" on="1"/>
        <pt x="570" y="1400" on="0"/>
        <pt x="275" y="1064" on="0"/>
        <pt x="275" y="482" on="0"/>
        <pt x="557" y="118" on="0"/>
        <pt x="802" y="118" on="1"/>
        <pt x="997" y="118" on="0"/>
        <pt x="1140" y="179" on="1"/>
        <pt x="1177" y="195" on="0"/>
        <pt x="1197" y="208" on="1"/>
        <pt x="1199" y="64" on="1"/>
        <pt x="1164" y="53" on="0"/>
        <pt x="1090" y="25" on="0"/>
        <pt x="931" y="-16" on="0"/>
        <pt x="638" y="-16" on="0"/>
        <pt x="384" y="95" on="0"/>
      </contour>
    </TTGlyph>
    <TTGlyph name="Cacute" xMin="107" yMin="-16" xMax="1200" yMax="1975">
      <component glyphName="C" x="0" y="0" flags="0x1204"/>
      <component glyphName="acute.cap" x="627" y="0" flags="0x1004"/>
    </TTGlyph>
    <TTGlyph name="Ccaron" xMin="107" yMin="-16" xMax="1200" yMax="1982">
      <component glyphName="C" x="0" y="0" flags="0x1204"/>
      <component glyphName="caron.cap" x="412" y="0" flags="0x1004"/>
    </TTGlyph>
    <TTGlyph name="Ccedilla" xMin="107" yMin="-464" xMax="1200" yMax="1538">
      <contour>
        <pt x="522" y="-327" on="1"/>
        <pt x="551" y="-345" on="0"/>
        <pt x="672" y="-345" on="0"/>
        <pt x="711" y="-307" on="1"/>
        <pt x="758" y="-261" on="0"/>
        <pt x="758" y="-124" on="1"/>
        <pt x="758" y="-62" on="0"/>
        <pt x="743" y="-14" on="1"/>
        <pt x="452" y="4" on="0"/>
        <pt x="107" y="424" on="0"/>
        <pt x="107" y="1119" on="0"/>
        <pt x="505" y="1538" on="0"/>
        <pt x="803" y="1538" on="1"/>
        <pt x="1005" y="1538" on="0"/>
        <pt x="1144" y="1495" on="1"/>
        <pt x="1177" y="1485" on="0"/>
        <pt x="1200" y="1480" on="1"/>
        <pt x="1176" y="1330" on="1"/>
        <pt x="1159" y="1336" on="0"/>
        <pt x="1105" y="1359" on="0"/>
        <pt x="953" y="1400" on="0"/>
        <pt x="823" y="1400" on="1"/>
        <pt x="570" y="1400" on="0"/>
        <pt x="275" y="1064" on="0"/>
        <pt x="275" y="482" on="0"/>
        <pt x="557" y="118" on="0"/>
        <pt x="802" y="118" on="1"/>
        <pt x="997" y="118" on="0"/>
        <pt x="1140" y="179" on="1"/>
        <pt x="1177" y="195" on="0"/>
        <pt x="1197" y="208" on="1"/>
        <pt x="1199" y="64" on="1"/>
        <pt x="1167" y="53" on="0"/>
        <pt x="1134" y="40" on="1"/>
        <pt x="1009" y="-7" on="0"/>
        <pt x="849" y="-14" on="1"/>
        <pt x="880" y="-84" on="0"/>
        <pt x="880" y="-188" on="1"/>
        <pt x="880" y="-405" on="0"/>
        <pt x="733" y="-452" on="1"/>
        <pt x="693" y="-464" on="0"/>
        <pt x="662" y="-464" on="1"/>
        <pt x="552" y="-464" on="0"/>
        <pt x="510" y="-436" on="1"/>
      </contour>
    </TTGlyph>
    <TTGlyph name="Ccircumflex" xMin="107" yMin="-16" xMax="1200" yMax="1982">
      <component glyphName="C" x="0" y="0" flags="0x1204"/>
      <component glyphName="circumflex.cap" x="401" y="0" flags="0x1004"/>
    </TTGlyph>
    <TTGlyph name="Cdotaccent" xMin="107" yMin="-16" xMax="1200" yMax="1926">
      <component glyphName="dotaccent.cap" x="638" y="0" flags="0x1004"/>
      <component glyphName="C" x="0" y="0" flags="0x1004"/>
    </TTGlyph>
    <TTGlyph name="D" xMin="206" yMin="-16" xMax="1384" yMax="1536">
      <contour>
        <pt x="317" y="-2" on="1"/>
        <pt x="224" y="0" on="1"/>
        <pt x="206" y="0" on="1"/>
        <pt x="206" y="1522" on="1"/>
        <pt x="236" y="1522" on="0"/>
        <pt x="266" y="1522" on="1"/>
        <pt x="326" y="1523" on="1"/>
        <pt x="664" y="1536" on="1"/>
        <pt x="1022" y="1536" on="0"/>
        <pt x="1384" y="1156" on="0"/>
        <pt x="1384" y="426" on="0"/>
        <pt x="995" y="-16" on="0"/>
        <pt x="657" y="-16" on="1"/>
      </contour>
      <contour>
        <pt x="879" y="1377" on="1"/>
        <pt x="769" y="1413" on="0"/>
        <pt x="521" y="1413" on="0"/>
        <pt x="375" y="1399" on="1"/>
        <pt x="375" y="128" on="1"/>
        <pt x="712" y="81" on="0"/>
        <pt x="885" y="152" on="1"/>
        <pt x="985" y="192" on="0"/>
        <pt x="1056" y="274" on="1"/>
        <pt x="1208" y="448" on="0"/>
        <pt x="1208" y="789" on="1"/>
        <pt x="1208" y="1269" on="0"/>
      </contour>
    </TTGlyph>
    <TTGlyph name="Dcaron" xMin="206" yMin="-16" xMax="1384" yMax="1982">
      <component glyphName="caron.cap" x="324" y="0" flags="0x1004"/>
      <component glyphName="D" x="0" y="0" flags="0x1004"/>
    </TTGlyph>
    <TTGlyph name="Dcroat" xMin="62" yMin="-16" xMax="1384" yMax="1536">
      <component glyphName="Eth" x="0" y="0" flags="0x1204"/>
    </TTGlyph>
    <TTGlyph name="Delta" xMin="55" yMin="0" xMax="1521" yMax="1508">
      <contour>
        <pt x="743" y="1508" on="1"/>
        <pt x="772" y="1508" on="1"/>
        <pt x="1521" y="25" on="1"/>
        <pt x="1506" y="0" on="1"/>
        <pt x="68" y="0" on="1"/>
        <pt x="55" y="21" on="1"/>
      </contour>
      <contour>
        <pt x="1294" y="133" on="1"/>
        <pt x="764" y="1219" on="1"/>
        <pt x="271" y="133" on="1"/>
      </contour>
    </TTGlyph>
    <TTGlyph name="E" xMin="206" yMin="0" xMax="1137" yMax="1522">
      <contour>
        <pt x="206" y="1522" on="1"/>
        <pt x="1064" y="1522" on="1"/>
        <pt x="1064" y="1391" on="1"/>
        <pt x="375" y="1391" on="1"/>
        <pt x="375" y="852" on="1"/>
        <pt x="878" y="852" on="1"/>
        <pt x="878" y="721" on="1"/>
        <pt x="375" y="721" on="1"/>
        <pt x="375" y="133" on="1"/>
        <pt x="1137" y="133" on="1"/>
        <pt x="1137" y="0" on="1"/>
        <pt x="206" y="0" on="1"/>
      </contour>
    </TTGlyph>
    <TTGlyph name="Eacute" xMin="206" yMin="0" xMax="1137" yMax="1975">
      <component glyphName="acute.cap" x="497" y="0" flags="0x1004"/>
      <component glyphName="E" x="0" y="0" flags="0x1004"/>
    </TTGlyph>
    <TTGlyph name="Ebreve" xMin="206" yMin="0" xMax="1137" yMax="1967">
      <component glyphName="breve.cap" x="286" y="0" flags="0x1004"/>
      <component glyphName="E" x="0" y="0" flags="0x1004"/>
    </TTGlyph>
    <TTGlyph name="Ecaron" xMin="206" yMin="0" xMax="1137" yMax="1982">
      <component glyphName="caron.cap" x="283" y="0" flags="0x1004"/>
      <component glyphName="E" x="0" y="0" flags="0x1004"/>
    </TTGlyph>
    <TTGlyph name="Ecircumflex" xMin="206" yMin="0" xMax="1137" yMax="1982">
      <component glyphName="E" x="0" y="0" flags="0x1204"/>
      <component glyphName="circumflex.cap" x="272" y="0" flags="0x1004"/>
    </TTGlyph>
    <TTGlyph name="Edieresis" xMin="206" yMin="0" xMax="1137" yMax="1922">
      <component glyphName="dieresis.cap" x="271" y="0" flags="0x1004"/>
      <component glyphName="E" x="0" y="0" flags="0x1004"/>
    </TTGlyph>
    <TTGlyph name="Edotaccent" xMin="206" yMin="0" xMax="1137" yMax="1926">
      <component glyphName="dotaccent.cap" x="509" y="0" flags="0x1004"/>
      <component glyphName="E" x="0" y="0" flags="0x1004"/>
    </TTGlyph>
    <TTGlyph name="Egrave" xMin="206" yMin="0" xMax="1137" yMax="1975">
      <component glyphName="grave.cap" x="285" y="0" flags="0x1004"/>
      <component glyphName="E" x="0" y="0" flags="0x1004"/>
    </TTGlyph>
    <TTGlyph name="Emacron" xMin="206" yMin="0" xMax="1137" yMax="1867">
      <component glyphName="macron.cap" x="353" y="0" flags="0x1004"/>
      <component glyphName="E" x="0" y="0" flags="0x1004"/>
    </TTGlyph>
    <TTGlyph name="Eng" xMin="205" yMin="-403" xMax="1368" yMax="1522">
      <contour>
        <pt x="205" y="1522" on="1"/>
        <pt x="363" y="1522" on="1"/>
        <pt x="1083" y="455" on="1"/>
        <pt x="1216" y="219" on="1"/>
        <pt x="1202" y="523" on="1"/>
        <pt x="1202" y="1522" on="1"/>
        <pt x="1368" y="1522" on="1"/>
        <pt x="1368" y="405" on="1"/>
        <pt x="1368" y="130" on="0"/>
        <pt x="1295" y="-94" on="0"/>
        <pt x="1185" y="-231" on="0"/>
        <pt x="1116" y="-280" on="1"/>
        <pt x="978" y="-379" on="0"/>
        <pt x="822" y="-403" on="1"/>
        <pt x="778" y="-323" on="1"/>
        <pt x="930" y="-281" on="0"/>
        <pt x="1187" y="-63" on="0"/>
        <pt x="1189" y="35" on="1"/>
        <pt x="506" y="1040" on="1"/>
        <pt x="362" y="1286" on="1"/>
        <pt x="371" y="972" on="1"/>
        <pt x="371" y="0" on="1"/>
        <pt x="206" y="0" on="1"/>
      </contour>
    </TTGlyph>
    <TTGlyph name="Eogonek" xMin="206" yMin="-512" xMax="1137" yMax="1522">
      <contour>
        <pt x="1099" y="-450" on="1"/>
        <pt x="1016" y="-512" on="0"/>
        <pt x="701" y="-512" on="0"/>
        <pt x="646" y="-406" on="1"/>
        <pt x="627" y="-370" on="0"/>
        <pt x="627" y="-318" on="1"/>
        <pt x="627" y="-221" on="0"/>
        <pt x="805" y="-47" on="0"/>
        <pt x="923" y="0" on="1"/>
        <pt x="206" y="0" on="1"/>
        <pt x="206" y="1522" on="1"/>
        <pt x="1064" y="1522" on="1"/>
        <pt x="1064" y="1391" on="1"/>
        <pt x="375" y="1391" on="1"/>
        <pt x="375" y="852" on="1"/>
        <pt x="878" y="852" on="1"/>
        <pt x="878" y="721" on="1"/>
        <pt x="375" y="721" on="1"/>
        <pt x="375" y="133" on="1"/>
        <pt x="1137" y="133" on="1"/>
        <pt x="1137" y="0" on="1"/>
        <pt x="1058" y="0" on="1"/>
        <pt x="884" y="-89" on="0"/>
        <pt x="816" y="-194" on="1"/>
        <pt x="791" y="-234" on="0"/>
        <pt x="791" y="-275" on="1"/>
        <pt x="791" y="-345" on="0"/>
        <pt x="871" y="-399" on="0"/>
        <pt x="1023" y="-397" on="0"/>
        <pt x="1099" y="-358" on="1"/>
      </contour>
    </TTGlyph>
    <TTGlyph name="Eth" xMin="62" yMin="-16" xMax="1384" yMax="1536">
      <contour>
        <pt x="317" y="-2" on="1"/>
        <pt x="224" y="0" on="1"/>
        <pt x="206" y="0" on="1"/>
        <pt x="206" y="737" on="1"/>
        <pt x="62" y="737" on="1"/>
        <pt x="62" y="851" on="1"/>
        <pt x="206" y="851" on="1"/>
        <pt x="206" y="1522" on="1"/>
        <pt x="236" y="1522" on="0"/>
        <pt x="266" y="1522" on="1"/>
        <pt x="326" y="1523" on="1"/>
        <pt x="664" y="1536" on="1"/>
        <pt x="1022" y="1536" on="0"/>
        <pt x="1384" y="1156" on="0"/>
        <pt x="1384" y="426" on="0"/>
        <pt x="995" y="-16" on="0"/>
        <pt x="657" y="-16" on="1"/>
      </contour>
      <contour>
        <pt x="879" y="1377" on="1"/>
        <pt x="769" y="1413" on="0"/>
        <pt x="521" y="1413" on="0"/>
        <pt x="375" y="1399" on="1"/>
        <pt x="375" y="851" on="1"/>
        <pt x="809" y="851" on="1"/>
        <pt x="809" y="737" on="1"/>
        <pt x="375" y="737" on="1"/>
        <pt x="375" y="128" on="1"/>
        <pt x="712" y="81" on="0"/>
        <pt x="885" y="152" on="1"/>
        <pt x="985" y="192" on="0"/>
        <pt x="1056" y="274" on="1"/>
        <pt x="1208" y="448" on="0"/>
        <pt x="1208" y="789" on="1"/>
        <pt x="1208" y="1269" on="0"/>
      </contour>
    </TTGlyph>
    <TTGlyph name="Euro" xMin="119" yMin="-28" xMax="1371" yMax="1538">
      <contour>
        <pt x="940" y="95" on="1"/>
        <pt x="1164" y="95" on="0"/>
        <pt x="1325" y="187" on="1"/>
        <pt x="1371" y="61" on="1"/>
        <pt x="1338" y="56" on="0"/>
        <pt x="1304" y="42" on="1"/>
        <pt x="1141" y="-28" on="0"/>
        <pt x="791" y="-28" on="0"/>
        <pt x="690" y="12" on="1"/>
        <pt x="388" y="129" on="0"/>
        <pt x="325" y="527" on="1"/>
        <pt x="119" y="527" on="1"/>
        <pt x="119" y="637" on="1"/>
        <pt x="313" y="637" on="1"/>
        <pt x="311" y="677" on="0"/>
        <pt x="311" y="813" on="0"/>
        <pt x="323" y="899" on="1"/>
        <pt x="150" y="899" on="1"/>
        <pt x="150" y="1008" on="1"/>
        <pt x="343" y="1008" on="1"/>
        <pt x="403" y="1254" on="0"/>
        <pt x="740" y="1538" on="0"/>
        <pt x="1008" y="1538" on="1"/>
        <pt x="1152" y="1538" on="0"/>
        <pt x="1278" y="1494" on="1"/>
        <pt x="1311" y="1483" on="0"/>
        <pt x="1342" y="1475" on="1"/>
        <pt x="1301" y="1341" on="1"/>
        <pt x="1174" y="1411" on="0"/>
        <pt x="969" y="1411" on="1"/>
        <pt x="717" y="1411" on="0"/>
        <pt x="586" y="1186" on="1"/>
        <pt x="542" y="1111" on="0"/>
        <pt x="518" y="1008" on="1"/>
        <pt x="1105" y="1008" on="1"/>
        <pt x="1105" y="899" on="1"/>
        <pt x="500" y="899" on="1"/>
        <pt x="493" y="843" on="0"/>
        <pt x="493" y="717" on="0"/>
        <pt x="498" y="637" on="1"/>
        <pt x="1072" y="637" on="1"/>
        <pt x="1072" y="527" on="1"/>
        <pt x="510" y="527" on="1"/>
        <pt x="581" y="95" on="0"/>
      </contour>
    </TTGlyph>
    <TTGlyph name="F" xMin="206" yMin="0" xMax="1057" yMax="1522">
      <contour>
        <pt x="206" y="1522" on="1"/>
        <pt x="1057" y="1522" on="1"/>
        <pt x="1057" y="1391" on="1"/>
        <pt x="375" y="1391" on="1"/>
        <pt x="375" y="830" on="1"/>
        <pt x="884" y="830" on="1"/>
        <pt x="884" y="699" on="1"/>
        <pt x="375" y="699" on="1"/>
        <pt x="375" y="0" on="1"/>
        <pt x="206" y="0" on="1"/>
      </contour>
    </TTGlyph>
    <TTGlyph name="G" xMin="110" yMin="-16" xMax="1321" yMax="1538">
      <contour>
        <pt x="1228" y="1325" on="1"/>
        <pt x="1057" y="1405" on="0"/>
        <pt x="580" y="1405" on="0"/>
        <pt x="286" y="1069" on="0"/>
        <pt x="286" y="478" on="0"/>
        <pt x="558" y="114" on="0"/>
        <pt x="1024" y="114" on="0"/>
        <pt x="1158" y="181" on="1"/>
        <pt x="1158" y="617" on="1"/>
        <pt x="842" y="628" on="1"/>
        <pt x="842" y="750" on="1"/>
        <pt x="1321" y="750" on="1"/>
        <pt x="1321" y="91" on="1"/>
        <pt x="1289" y="89" on="0"/>
        <pt x="1248" y="72" on="1"/>
        <pt x="1033" y="-16" on="0"/>
        <pt x="639" y="-16" on="0"/>
        <pt x="382" y="100" on="0"/>
        <pt x="293" y="202" on="1"/>
        <pt x="110" y="413" on="0"/>
        <pt x="110" y="1125" on="0"/>
        <pt x="506" y="1538" on="0"/>
        <pt x="815" y="1538" on="1"/>
        <pt x="989" y="1538" on="0"/>
        <pt x="1150" y="1496" on="1"/>
        <pt x="1190" y="1486" on="0"/>
        <pt x="1235" y="1477" on="1"/>
      </contour>
    </TTGlyph>
    <TTGlyph name="Gbreve" xMin="110" yMin="-16" xMax="1321" yMax="1967">
      <component glyphName="breve.cap" x="432" y="0" flags="0x1004"/>
      <component glyphName="G" x="0" y="0" flags="0x1004"/>
    </TTGlyph>
    <TTGlyph name="Gcircumflex" xMin="110" yMin="-16" xMax="1321" yMax="1982">
      <component glyphName="G" x="0" y="0" flags="0x1204"/>
      <component glyphName="circumflex.cap" x="418" y="0" flags="0x1004"/>
    </TTGlyph>
    <TTGlyph name="Gcommaaccent" xMin="110" yMin="-560" xMax="1321" yMax="1538">
      <component glyphName="commaaccent" x="653" y="0" flags="0x1004"/>
      <component glyphName="G" x="0" y="0" flags="0x1004"/>
    </TTGlyph>
    <TTGlyph name="Gdotaccent" xMin="110" yMin="-16" xMax="1321" yMax="1926">
      <component glyphName="dotaccent.cap" x="655" y="0" flags="0x1004"/>
      <component glyphName="G" x="0" y="0" flags="0x1004"/>
    </TTGlyph>
    <TTGlyph name="H" xMin="206" yMin="0" xMax="1336" yMax="1522">
      <contour>
        <pt x="206" y="1522" on="1"/>
        <pt x="375" y="1522" on="1"/>
        <pt x="375" y="840" on="1"/>
        <pt x="1167" y="840" on="1"/>
        <pt x="1167" y="1522" on="1"/>
        <pt x="1336" y="1522" on="1"/>
        <pt x="1336" y="0" on="1"/>
        <pt x="1167" y="0" on="1"/>
        <pt x="1167" y="710" on="1"/>
        <pt x="375" y="710" on="1"/>
        <pt x="375" y="0" on="1"/>
        <pt x="206" y="0" on="1"/>
      </contour>
    </TTGlyph>
    <TTGlyph name="Hbar" xMin="11" yMin="0" xMax="1559" yMax="1522">
      <contour>
        <pt x="206" y="1085" on="1"/>
        <pt x="11" y="1085" on="1"/>
        <pt x="11" y="1193" on="1"/>
        <pt x="206" y="1193" on="1"/>
        <pt x="206" y="1522" on="1"/>
        <pt x="375" y="1522" on="1"/>
        <pt x="375" y="1193" on="1"/>
        <pt x="1175" y="1193" on="1"/>
        <pt x="1175" y="1522" on="1"/>
        <pt x="1344" y="1522" on="1"/>
        <pt x="1344" y="1193" on="1"/>
        <pt x="1559" y="1193" on="1"/>
        <pt x="1559" y="1085" on="1"/>
        <pt x="1344" y="1085" on="1"/>
        <pt x="1344" y="0" on="1"/>
        <pt x="1175" y="0" on="1"/>
        <pt x="1175" y="703" on="1"/>
        <pt x="375" y="703" on="1"/>
        <pt x="375" y="0" on="1"/>
        <pt x="206" y="0" on="1"/>
      </contour>
      <contour>
        <pt x="1175" y="833" on="1"/>
        <pt x="1175" y="1085" on="1"/>
        <pt x="375" y="1085" on="1"/>
        <pt x="375" y="833" on="1"/>
      </contour>
    </TTGlyph>
    <TTGlyph name="Hcircumflex" xMin="206" yMin="0" xMax="1336" yMax="1982">
      <component glyphName="H" x="0" y="0" flags="0x1204"/>
      <component glyphName="circumflex.cap" x="371" y="0" flags="0x1004"/>
    </TTGlyph>
    <TTGlyph name="I" xMin="221" yMin="0" xMax="392" yMax="1522">
      <contour>
        <pt x="221" y="1522" on="1"/>
        <pt x="392" y="1522" on="1"/>
        <pt x="392" y="0" on="1"/>
        <pt x="221" y="0" on="1"/>
      </contour>
    </TTGlyph>
    <TTGlyph name="IJ" xMin="221" yMin="-332" xMax="1078" yMax="1522">
      <component glyphName="I" x="0" y="0" flags="0x1004"/>
      <component glyphName="J" x="613" y="0" flags="0x1004"/>
    </TTGlyph>
    <TTGlyph name="Iacute" xMin="188" yMin="0" xMax="646" yMax="1975">
      <component glyphName="I" x="0" y="0" flags="0x1204"/>
      <component glyphName="acute.cap" x="132" y="0" flags="0x1004"/>
    </TTGlyph>
    <TTGlyph name="Ibreve" xMin="-30" yMin="0" xMax="647" yMax="1967">
      <component glyphName="I" x="0" y="0" flags="0x1204"/>
      <component glyphName="breve.cap" x="-78" y="0" flags="0x1004"/>
    </TTGlyph>
    <TTGlyph name="Icircumflex" xMin="-44" yMin="0" xMax="662" yMax="1982">
      <component glyphName="I" x="0" y="0" flags="0x1204"/>
      <component glyphName="circumflex.cap" x="-93" y="0" flags="0x1004"/>
    </TTGlyph>
    <TTGlyph name="Idieresis" xMin="-44" yMin="0" xMax="661" yMax="1922">
      <component glyphName="I" x="0" y="0" flags="0x1204"/>
      <component glyphName="dieresis.cap" x="-94" y="0" flags="0x1004"/>
    </TTGlyph>
    <TTGlyph name="Idotaccent" xMin="194" yMin="0" xMax="421" yMax="1926">
      <component glyphName="I" x="0" y="0" flags="0x1204"/>
      <component glyphName="dotaccent.cap" x="143" y="0" flags="0x1004"/>
    </TTGlyph>
    <TTGlyph name="Igrave" xMin="-30" yMin="0" xMax="428" yMax="1975">
      <component glyphName="I" x="0" y="0" flags="0x1204"/>
      <component glyphName="grave.cap" x="-80" y="0" flags="0x1004"/>
    </TTGlyph>
    <TTGlyph name="Imacron" xMin="39" yMin="0" xMax="582" yMax="1867">
      <component glyphName="I" x="0" y="0" flags="0x1204"/>
      <component glyphName="macron.cap" x="-11" y="0" flags="0x1004"/>
    </TTGlyph>
    <TTGlyph name="Iogonek" xMin="-9" yMin="-512" xMax="515" yMax="1522">
      <contour>
        <pt x="515" y="-450" on="1"/>
        <pt x="432" y="-512" on="0"/>
        <pt x="116" y="-512" on="0"/>
        <pt x="54" y="-390" on="1"/>
        <pt x="-9" y="-265" on="0"/>
        <pt x="102" y="-123" on="1"/>
        <pt x="159" y="-49" on="0"/>
        <pt x="241" y="0" on="1"/>
        <pt x="221" y="0" on="1"/>
        <pt x="221" y="1522" on="1"/>
        <pt x="392" y="1522" on="1"/>
        <pt x="392" y="0" on="1"/>
        <pt x="371" y="0" on="1"/>
        <pt x="253" y="-74" on="0"/>
        <pt x="212" y="-183" on="1"/>
        <pt x="198" y="-220" on="0"/>
        <pt x="198" y="-264" on="0"/>
        <pt x="198" y="-283" on="1"/>
        <pt x="198" y="-331" on="0"/>
        <pt x="284" y="-399" on="0"/>
        <pt x="437" y="-397" on="0"/>
        <pt x="515" y="-358" on="1"/>
      </contour>
    </TTGlyph>
    <TTGlyph name="Itilde" xMin="-102" yMin="0" xMax="720" yMax="1944">
      <component glyphName="I" x="0" y="0" flags="0x1204"/>
      <component glyphName="tilde.cap" x="-150" y="0" flags="0x1004"/>
    </TTGlyph>
    <TTGlyph name="J" xMin="-39" yMin="-332" xMax="465" yMax="1522">
      <contour>
        <pt x="-39" y="-243" on="1"/>
        <pt x="123" y="-197" on="0"/>
        <pt x="211" y="-70" on="1"/>
        <pt x="279" y="28" on="0"/>
        <pt x="289" y="258" on="1"/>
        <pt x="293" y="348" on="0"/>
        <pt x="293" y="554" on="1"/>
        <pt x="293" y="1522" on="1"/>
        <pt x="465" y="1522" on="1"/>
        <pt x="465" y="537" on="1"/>
        <pt x="465" y="403" on="0"/>
        <pt x="464" y="165" on="0"/>
        <pt x="446" y="70" on="1"/>
        <pt x="415" y="-104" on="0"/>
        <pt x="161" y="-312" on="0"/>
        <pt x="14" y="-332" on="1"/>
      </contour>
    </TTGlyph>
    <TTGlyph name="Jcircumflex" xMin="-39" yMin="-332" xMax="731" yMax="1982">
      <component glyphName="J" x="0" y="0" flags="0x1204"/>
      <component glyphName="circumflex.cap" x="-24" y="0" flags="0x1004"/>
    </TTGlyph>
    <TTGlyph name="K" xMin="206" yMin="0" xMax="1277" yMax="1522">
      <contour>
        <pt x="206" y="1522" on="1"/>
        <pt x="375" y="1522" on="1"/>
        <pt x="375" y="701" on="1"/>
        <pt x="1050" y="1522" on="1"/>
        <pt x="1251" y="1522" on="1"/>
        <pt x="710" y="876" on="1"/>
        <pt x="742" y="825" on="0"/>
        <pt x="822" y="706" on="1"/>
        <pt x="996" y="448" on="0"/>
        <pt x="1145" y="224" on="0"/>
        <pt x="1210" y="111" on="1"/>
        <pt x="1277" y="0" on="1"/>
        <pt x="1081" y="0" on="1"/>
        <pt x="1075" y="9" on="0"/>
        <pt x="1064" y="30" on="0"/>
        <pt x="1050" y="56" on="0"/>
        <pt x="1032" y="90" on="0"/>
        <pt x="980" y="181" on="0"/>
        <pt x="874" y="348" on="0"/>
        <pt x="759" y="520" on="0"/>
        <pt x="647" y="686" on="0"/>
        <pt x="604" y="753" on="1"/>
        <pt x="375" y="488" on="1"/>
        <pt x="375" y="0" on="1"/>
        <pt x="206" y="0" on="1"/>
      </contour>
    </TTGlyph>
    <TTGlyph name="Kcommaaccent" xMin="206" yMin="-560" xMax="1277" yMax="1522">
      <component glyphName="commaaccent" x="532" y="0" flags="0x1004"/>
      <component glyphName="K" x="0" y="0" flags="0x1004"/>
    </TTGlyph>
    <TTGlyph name="L" xMin="206" yMin="0" xMax="1007" yMax="1522">
      <contour>
        <pt x="206" y="1522" on="1"/>
        <pt x="378" y="1522" on="1"/>
        <pt x="378" y="133" on="1"/>
        <pt x="1007" y="133" on="1"/>
        <pt x="1007" y="0" on="1"/>
        <pt x="206" y="0" on="1"/>
      </contour>
    </TTGlyph>
    <TTGlyph name="Lacute" xMin="171" yMin="0" xMax="1007" yMax="1975">
      <component glyphName="acute.cap" x="115" y="0" flags="0x1004"/>
      <component glyphName="L" x="0" y="0" flags="0x1004"/>
    </TTGlyph>
    <TTGlyph name="Lcaron" xMin="206" yMin="0" xMax="1007" yMax="1685">
      <component glyphName="L" x="0" y="0" flags="0x1204"/>
      <component glyphName="caronvertical" x="644" y="0" flags="0x1004"/>
    </TTGlyph>
    <TTGlyph name="Lcommaaccent" xMin="206" yMin="-560" xMax="1007" yMax="1522">
      <component glyphName="commaaccent" x="430" y="0" flags="0x1004"/>
      <component glyphName="L" x="0" y="0" flags="0x1004"/>
    </TTGlyph>
    <TTGlyph name="Ldot" xMin="206" yMin="0" xMax="1143" yMax="1522">
      <component glyphName="period" x="726" y="725" flags="0x1004"/>
      <component glyphName="L" x="0" y="0" flags="0x1004"/>
    </TTGlyph>
    <TTGlyph name="Lslash" xMin="12" yMin="0" xMax="1007" yMax="1522">
      <contour>
        <pt x="206" y="624" on="1"/>
        <pt x="53" y="568" on="1"/>
        <pt x="12" y="672" on="1"/>
        <pt x="206" y="743" on="1"/>
        <pt x="206" y="1522" on="1"/>
        <pt x="378" y="1522" on="1"/>
        <pt x="378" y="807" on="1"/>
        <pt x="806" y="965" on="1"/>
        <pt x="847" y="859" on="1"/>
        <pt x="378" y="687" on="1"/>
        <pt x="378" y="133" on="1"/>
        <pt x="1007" y="133" on="1"/>
        <pt x="1007" y="0" on="1"/>
        <pt x="206" y="0" on="1"/>
      </contour>
    </TTGlyph>
    <TTGlyph name="M" xMin="149" yMin="-15" xMax="1778" yMax="1522">
      <contour>
        <pt x="311" y="1522" on="1"/>
        <pt x="551" y="1522" on="1"/>
        <pt x="888" y="533" on="1"/>
        <pt x="963" y="247" on="1"/>
        <pt x="1036" y="533" on="1"/>
        <pt x="1354" y="1522" on="1"/>
        <pt x="1582" y="1522" on="1"/>
        <pt x="1778" y="0" on="1"/>
        <pt x="1607" y="0" on="1"/>
        <pt x="1501" y="947" on="1"/>
        <pt x="1457" y="1397" on="1"/>
        <pt x="1333" y="947" on="1"/>
        <pt x="1010" y="-15" on="1"/>
        <pt x="917" y="-15" on="1"/>
        <pt x="578" y="947" on="1"/>
        <pt x="442" y="1397" on="1"/>
        <pt x="404" y="947" on="1"/>
        <pt x="313" y="0" on="1"/>
        <pt x="149" y="-1" on="1"/>
      </contour>
    </TTGlyph>
    <TTGlyph name="N" xMin="205" yMin="0" xMax="1348" yMax="1522">
      <contour>
        <pt x="205" y="1522" on="1"/>
        <pt x="362" y="1522" on="1"/>
        <pt x="1063" y="462" on="1"/>
        <pt x="1205" y="215" on="1"/>
        <pt x="1193" y="526" on="1"/>
        <pt x="1193" y="1522" on="1"/>
        <pt x="1348" y="1522" on="1"/>
        <pt x="1348" y="0" on="1"/>
        <pt x="1193" y="0" on="1"/>
        <pt x="506" y="1034" on="1"/>
        <pt x="350" y="1299" on="1"/>
        <pt x="361" y="970" on="1"/>
        <pt x="361" y="0" on="1"/>
        <pt x="205" y="0" on="1"/>
      </contour>
    </TTGlyph>
    <TTGlyph name="Nacute" xMin="205" yMin="0" xMax="1348" yMax="1975">
      <component glyphName="acute.cap" x="611" y="0" flags="0x1004"/>
      <component glyphName="N" x="0" y="0" flags="0x1004"/>
    </TTGlyph>
    <TTGlyph name="Ncaron" xMin="205" yMin="0" xMax="1348" yMax="1982">
      <component glyphName="caron.cap" x="397" y="0" flags="0x1004"/>
      <component glyphName="N" x="0" y="0" flags="0x1004"/>
    </TTGlyph>
    <TTGlyph name="Ncommaaccent" xMin="205" yMin="-560" xMax="1348" yMax="1522">
      <component glyphName="commaaccent" x="594" y="0" flags="0x1004"/>
      <component glyphName="N" x="0" y="0" flags="0x1004"/>
    </TTGlyph>
    <TTGlyph name="Ntilde" xMin="205" yMin="0" xMax="1348" yMax="1944">
      <component glyphName="tilde.cap" x="329" y="0" flags="0x1004"/>
      <component glyphName="N" x="0" y="0" flags="0x1004"/>
    </TTGlyph>
    <TTGlyph name="O" xMin="111" yMin="-16" xMax="1461" yMax="1538">
      <contour>
        <pt x="497" y="38" on="1"/>
        <pt x="245" y="154" on="0"/>
        <pt x="154" y="446" on="1"/>
        <pt x="111" y="587" on="0"/>
        <pt x="111" y="948" on="0"/>
        <pt x="226" y="1246" on="0"/>
        <pt x="320" y="1342" on="1"/>
        <pt x="510" y="1538" on="0"/>
        <pt x="1114" y="1538" on="0"/>
        <pt x="1461" y="1122" on="0"/>
        <pt x="1461" y="786" on="1"/>
        <pt x="1461" y="404" on="0"/>
        <pt x="1073" y="-16" on="0"/>
        <pt x="764" y="-16" on="1"/>
        <pt x="616" y="-16" on="0"/>
      </contour>
      <contour>
        <pt x="313" y="510" on="1"/>
        <pt x="380" y="267" on="0"/>
        <pt x="565" y="165" on="1"/>
        <pt x="658" y="114" on="0"/>
        <pt x="777" y="114" on="1"/>
        <pt x="1014" y="114" on="0"/>
        <pt x="1288" y="459" on="0"/>
        <pt x="1290" y="1050" on="0"/>
        <pt x="1035" y="1409" on="0"/>
        <pt x="577" y="1409" on="0"/>
        <pt x="282" y="1070" on="0"/>
        <pt x="282" y="750" on="1"/>
        <pt x="282" y="623" on="0"/>
      </contour>
    </TTGlyph>
    <TTGlyph name="OE" xMin="110" yMin="-16" xMax="1991" yMax="1538">
      <contour>
        <pt x="1094" y="74" on="1"/>
        <pt x="957" y="-16" on="0"/>
        <pt x="622" y="-16" on="0"/>
        <pt x="498" y="40" on="1"/>
        <pt x="247" y="154" on="0"/>
        <pt x="153" y="450" on="1"/>
        <pt x="110" y="585" on="0"/>
        <pt x="110" y="743" on="1"/>
        <pt x="110" y="1124" on="0"/>
        <pt x="513" y="1538" on="0"/>
        <pt x="832" y="1538" on="1"/>
        <pt x="982" y="1538" on="0"/>
        <pt x="1094" y="1472" on="1"/>
        <pt x="1094" y="1522" on="1"/>
        <pt x="1917" y="1522" on="1"/>
        <pt x="1917" y="1391" on="1"/>
        <pt x="1263" y="1391" on="1"/>
        <pt x="1263" y="852" on="1"/>
        <pt x="1748" y="852" on="1"/>
        <pt x="1748" y="720" on="1"/>
        <pt x="1263" y="720" on="1"/>
        <pt x="1263" y="134" on="1"/>
        <pt x="1991" y="134" on="1"/>
        <pt x="1991" y="0" on="1"/>
        <pt x="1094" y="0" on="1"/>
      </contour>
      <contour>
        <pt x="1094" y="1323" on="1"/>
        <pt x="983" y="1409" on="0"/>
        <pt x="812" y="1409" on="1"/>
        <pt x="591" y="1409" on="0"/>
        <pt x="446" y="1253" on="1"/>
        <pt x="280" y="1075" on="0"/>
        <pt x="280" y="755" on="1"/>
        <pt x="280" y="481" on="0"/>
        <pt x="550" y="112" on="0"/>
        <pt x="793" y="112" on="1"/>
        <pt x="972" y="112" on="0"/>
        <pt x="1094" y="218" on="1"/>
      </contour>
    </TTGlyph>
    <TTGlyph name="Oacute" xMin="111" yMin="-16" xMax="1461" yMax="1975">
      <component glyphName="acute.cap" x="633" y="0" flags="0x1004"/>
      <component glyphName="O" x="0" y="0" flags="0x1004"/>
    </TTGlyph>
    <TTGlyph name="Obreve" xMin="111" yMin="-16" xMax="1461" yMax="1967">
      <component glyphName="breve.cap" x="422" y="0" flags="0x1004"/>
      <component glyphName="O" x="0" y="0" flags="0x1004"/>
    </TTGlyph>
    <TTGlyph name="Ocircumflex" xMin="111" yMin="-16" xMax="1461" yMax="1982">
      <component glyphName="O" x="0" y="0" flags="0x1204"/>
      <component glyphName="circumflex.cap" x="408" y="0" flags="0x1004"/>
    </TTGlyph>
    <TTGlyph name="Odieresis" xMin="111" yMin="-16" xMax="1461" yMax="1922">
      <component glyphName="dieresis.cap" x="407" y="0" flags="0x1004"/>
      <component glyphName="O" x="0" y="0" flags="0x1004"/>
    </TTGlyph>
    <TTGlyph name="Ograve" xMin="111" yMin="-16" xMax="1461" yMax="1975">
      <component glyphName="grave.cap" x="420" y="0" flags="0x1004"/>
      <component glyphName="O" x="0" y="0" flags="0x1004"/>
    </TTGlyph>
    <TTGlyph name="Ohungarumlaut" xMin="111" yMin="-16" xMax="1461" yMax="1990">
      <component glyphName="O" x="0" y="0" flags="0x1204"/>
      <component glyphName="hungarumlaut.cap" x="409" y="0" flags="0x1004"/>
    </TTGlyph>
    <TTGlyph name="Omacron" xMin="111" yMin="-16" xMax="1461" yMax="1867">
      <component glyphName="macron.cap" x="489" y="0" flags="0x1004"/>
      <component glyphName="O" x="0" y="0" flags="0x1004"/>
    </TTGlyph>
    <TTGlyph name="Omega" xMin="201" yMin="0" xMax="1622" yMax="1545">
      <contour>
        <pt x="212" y="118" on="1"/>
        <pt x="564" y="118" on="1"/>
        <pt x="417" y="228" on="0"/>
        <pt x="201" y="642" on="0"/>
        <pt x="201" y="862" on="1"/>
        <pt x="201" y="865" on="0"/>
        <pt x="201" y="869" on="1"/>
        <pt x="201" y="1195" on="0"/>
        <pt x="422" y="1380" on="1"/>
        <pt x="620" y="1545" on="0"/>
        <pt x="1204" y="1545" on="0"/>
        <pt x="1587" y="1187" on="0"/>
        <pt x="1587" y="869" on="1"/>
        <pt x="1587" y="639" on="0"/>
        <pt x="1391" y="234" on="0"/>
        <pt x="1237" y="118" on="1"/>
        <pt x="1622" y="118" on="1"/>
        <pt x="1622" y="0" on="1"/>
        <pt x="1061" y="0" on="1"/>
        <pt x="1060" y="114" on="1"/>
        <pt x="1208" y="203" on="0"/>
        <pt x="1417" y="605" on="0"/>
        <pt x="1417" y="1141" on="0"/>
        <pt x="1253" y="1292" on="1"/>
        <pt x="1112" y="1421" on="0"/>
        <pt x="680" y="1421" on="0"/>
        <pt x="371" y="1135" on="0"/>
        <pt x="371" y="863" on="1"/>
        <pt x="371" y="534" on="0"/>
        <pt x="572" y="277" on="1"/>
        <pt x="657" y="169" on="0"/>
        <pt x="743" y="114" on="1"/>
        <pt x="743" y="0" on="1"/>
        <pt x="212" y="0" on="1"/>
      </contour>
    </TTGlyph>
    <TTGlyph name="Oslash" xMin="111" yMin="-194" xMax="1461" yMax="1730">
      <contour>
        <pt x="476" y="48" on="1"/>
        <pt x="299" y="135" on="0"/>
        <pt x="111" y="506" on="0"/>
        <pt x="111" y="741" on="1"/>
        <pt x="111" y="1128" on="0"/>
        <pt x="320" y="1342" on="1"/>
        <pt x="508" y="1536" on="0"/>
        <pt x="810" y="1538" on="1"/>
        <pt x="911" y="1538" on="0"/>
        <pt x="1003" y="1512" on="1"/>
        <pt x="1081" y="1730" on="1"/>
        <pt x="1177" y="1702" on="1"/>
        <pt x="1096" y="1477" on="1"/>
        <pt x="1272" y="1393" on="0"/>
        <pt x="1461" y="1029" on="0"/>
        <pt x="1461" y="784" on="1"/>
        <pt x="1461" y="404" on="0"/>
        <pt x="1073" y="-16" on="0"/>
        <pt x="765" y="-16" on="1"/>
        <pt x="659" y="-16" on="0"/>
        <pt x="569" y="11" on="1"/>
        <pt x="495" y="-194" on="1"/>
        <pt x="399" y="-167" on="1"/>
      </contour>
      <contour>
        <pt x="957" y="1385" on="1"/>
        <pt x="886" y="1409" on="0"/>
        <pt x="695" y="1408" on="0"/>
        <pt x="505" y="1326" on="0"/>
        <pt x="434" y="1245" on="1"/>
        <pt x="282" y="1070" on="0"/>
        <pt x="282" y="466" on="0"/>
        <pt x="420" y="289" on="1"/>
        <pt x="466" y="229" on="0"/>
        <pt x="527" y="188" on="1"/>
      </contour>
      <contour>
        <pt x="616" y="142" on="1"/>
        <pt x="692" y="114" on="0"/>
        <pt x="774" y="114" on="1"/>
        <pt x="1014" y="114" on="0"/>
        <pt x="1288" y="459" on="0"/>
        <pt x="1290" y="1062" on="0"/>
        <pt x="1152" y="1242" on="1"/>
        <pt x="1107" y="1301" on="0"/>
        <pt x="1047" y="1340" on="1"/>
      </contour>
    </TTGlyph>
    <TTGlyph name="Otilde" xMin="111" yMin="-16" xMax="1461" yMax="1944">
      <component glyphName="tilde.cap" x="351" y="0" flags="0x1004"/>
      <component glyphName="O" x="0" y="0" flags="0x1004"/>
    </TTGlyph>
    <TTGlyph name="P" xMin="206" yMin="0" xMax="1193" yMax="1536">
      <contour>
        <pt x="622" y="527" on="1"/>
        <pt x="375" y="535" on="1"/>
        <pt x="375" y="0" on="1"/>
        <pt x="206" y="0" on="1"/>
        <pt x="206" y="1522" on="1"/>
        <pt x="288" y="1522" on="1"/>
        <pt x="666" y="1536" on="1"/>
        <pt x="1193" y="1536" on="0"/>
        <pt x="1193" y="1045" on="1"/>
        <pt x="1193" y="799" on="0"/>
        <pt x="890" y="529" on="0"/>
      </contour>
      <contour>
        <pt x="798" y="1395" on="1"/>
        <pt x="725" y="1414" on="0"/>
        <pt x="484" y="1414" on="0"/>
        <pt x="375" y="1398" on="1"/>
        <pt x="375" y="664" on="1"/>
        <pt x="467" y="652" on="0"/>
        <pt x="583" y="652" on="1"/>
        <pt x="800" y="653" on="0"/>
        <pt x="1024" y="839" on="0"/>
        <pt x="1024" y="1044" on="1"/>
        <pt x="1024" y="1336" on="0"/>
      </contour>
    </TTGlyph>
    <TTGlyph name="Q" xMin="110" yMin="-287" xMax="1510" yMax="1538">
      <contour>
        <pt x="800" y="-15" on="1"/>
        <pt x="779" y="-16" on="1"/>
        <pt x="771" y="-16" on="0"/>
        <pt x="763" y="-16" on="1"/>
        <pt x="464" y="-16" on="0"/>
        <pt x="110" y="411" on="0"/>
        <pt x="110" y="747" on="1"/>
        <pt x="110" y="948" on="0"/>
        <pt x="225" y="1246" on="0"/>
        <pt x="319" y="1342" on="1"/>
        <pt x="509" y="1538" on="0"/>
        <pt x="1113" y="1538" on="0"/>
        <pt x="1460" y="1122" on="0"/>
        <pt x="1460" y="466" on="0"/>
        <pt x="1184" y="69" on="0"/>
        <pt x="959" y="9" on="1"/>
        <pt x="1092" y="-149" on="0"/>
        <pt x="1332" y="-149" on="1"/>
        <pt x="1457" y="-149" on="0"/>
        <pt x="1510" y="-126" on="1"/>
        <pt x="1510" y="-249" on="1"/>
        <pt x="1453" y="-287" on="0"/>
        <pt x="1354" y="-287" on="1"/>
        <pt x="1164" y="-287" on="0"/>
        <pt x="911" y="-167" on="0"/>
      </contour>
      <contour>
        <pt x="312" y="510" on="1"/>
        <pt x="379" y="267" on="0"/>
        <pt x="564" y="165" on="1"/>
        <pt x="657" y="114" on="0"/>
        <pt x="776" y="114" on="1"/>
        <pt x="1013" y="114" on="0"/>
        <pt x="1287" y="459" on="0"/>
        <pt x="1289" y="1050" on="0"/>
        <pt x="1034" y="1409" on="0"/>
        <pt x="576" y="1409" on="0"/>
        <pt x="281" y="1070" on="0"/>
        <pt x="281" y="750" on="1"/>
        <pt x="281" y="623" on="0"/>
      </contour>
    </TTGlyph>
    <TTGlyph name="R" xMin="206" yMin="0" xMax="1294" yMax="1536">
      <contour>
        <pt x="684" y="664" on="1"/>
        <pt x="606" y="661" on="0"/>
        <pt x="455" y="661" on="0"/>
        <pt x="375" y="663" on="1"/>
        <pt x="375" y="0" on="1"/>
        <pt x="206" y="0" on="1"/>
        <pt x="206" y="1522" on="1"/>
        <pt x="252" y="1522" on="1"/>
        <pt x="306" y="1523" on="1"/>
        <pt x="378" y="1524" on="0"/>
        <pt x="567" y="1536" on="0"/>
        <pt x="666" y="1536" on="1"/>
        <pt x="1188" y="1536" on="0"/>
        <pt x="1188" y="1116" on="1"/>
        <pt x="1188" y="863" on="0"/>
        <pt x="1006" y="746" on="1"/>
        <pt x="949" y="710" on="0"/>
        <pt x="879" y="690" on="1"/>
        <pt x="975" y="631" on="0"/>
        <pt x="1076" y="430" on="1"/>
        <pt x="1115" y="352" on="0"/>
        <pt x="1211" y="147" on="0"/>
        <pt x="1252" y="73" on="0"/>
        <pt x="1280" y="21" on="0"/>
        <pt x="1294" y="0" on="1"/>
        <pt x="1102" y="0" on="1"/>
        <pt x="1068" y="46" on="0"/>
        <pt x="979" y="259" on="0"/>
        <pt x="952" y="318" on="1"/>
        <pt x="883" y="470" on="0"/>
        <pt x="834" y="540" on="1"/>
        <pt x="761" y="644" on="0"/>
      </contour>
      <contour>
        <pt x="878" y="1377" on="0"/>
        <pt x="736" y="1411" on="0"/>
        <pt x="467" y="1411" on="0"/>
        <pt x="375" y="1395" on="1"/>
        <pt x="375" y="783" on="1"/>
        <pt x="429" y="777" on="0"/>
        <pt x="533" y="777" on="1"/>
        <pt x="659" y="777" on="1"/>
        <pt x="912" y="780" on="0"/>
        <pt x="989" y="963" on="1"/>
        <pt x="1015" y="1025" on="0"/>
        <pt x="1015" y="1189" on="0"/>
        <pt x="971" y="1304" on="0"/>
      </contour>
    </TTGlyph>
    <TTGlyph name="Racute" xMin="206" yMin="0" xMax="1294" yMax="1975">
      <component glyphName="R" x="0" y="0" flags="0x1204"/>
      <component glyphName="acute.cap" x="527" y="0" flags="0x1004"/>
    </TTGlyph>
    <TTGlyph name="Rcaron" xMin="206" yMin="0" xMax="1294" yMax="1982">
      <component glyphName="caron.cap" x="312" y="0" flags="0x1004"/>
      <component glyphName="R" x="0" y="0" flags="0x1004"/>
    </TTGlyph>
    <TTGlyph name="Rcommaaccent" xMin="206" yMin="-560" xMax="1294" yMax="1536">
      <component glyphName="commaaccent" x="532" y="0" flags="0x1004"/>
      <component glyphName="R" x="0" y="0" flags="0x1004"/>
    </TTGlyph>
    <TTGlyph name="S" xMin="136" yMin="-16" xMax="1068" yMax="1538">
      <contour>
        <pt x="956" y="1323" on="1"/>
        <pt x="828" y="1405" on="0"/>
        <pt x="630" y="1405" on="1"/>
        <pt x="495" y="1405" on="0"/>
        <pt x="302" y="1291" on="0"/>
        <pt x="302" y="1066" on="0"/>
        <pt x="390" y="986" on="1"/>
        <pt x="453" y="927" on="0"/>
        <pt x="715" y="802" on="0"/>
        <pt x="792" y="760" on="1"/>
        <pt x="1068" y="611" on="0"/>
        <pt x="1068" y="385" on="1"/>
        <pt x="1068" y="190" on="0"/>
        <pt x="796" y="-16" on="0"/>
        <pt x="363" y="-16" on="0"/>
        <pt x="199" y="44" on="1"/>
        <pt x="157" y="60" on="0"/>
        <pt x="136" y="74" on="1"/>
        <pt x="177" y="213" on="1"/>
        <pt x="276" y="150" on="0"/>
        <pt x="448" y="126" on="1"/>
        <pt x="503" y="119" on="0"/>
        <pt x="570" y="119" on="1"/>
        <pt x="720" y="119" on="0"/>
        <pt x="902" y="243" on="0"/>
        <pt x="902" y="484" on="0"/>
        <pt x="800" y="565" on="1"/>
        <pt x="732" y="619" on="0"/>
        <pt x="464" y="740" on="0"/>
        <pt x="321" y="827" on="0"/>
        <pt x="265" y="883" on="1"/>
        <pt x="140" y="1008" on="0"/>
        <pt x="140" y="1162" on="1"/>
        <pt x="140" y="1415" on="0"/>
        <pt x="401" y="1502" on="1"/>
        <pt x="507" y="1538" on="0"/>
        <pt x="605" y="1538" on="1"/>
        <pt x="865" y="1538" on="0"/>
        <pt x="991" y="1456" on="1"/>
      </contour>
    </TTGlyph>
    <TTGlyph name="Sacute" xMin="136" yMin="-16" xMax="1068" yMax="1975">
      <component glyphName="S" x="0" y="0" flags="0x1204"/>
      <component glyphName="acute.cap" x="442" y="0" flags="0x1004"/>
    </TTGlyph>
    <TTGlyph name="Scaron" xMin="136" yMin="-16" xMax="1068" yMax="1982">
      <component glyphName="S" x="0" y="0" flags="0x1204"/>
      <component glyphName="caron.cap" x="228" y="0" flags="0x1004"/>
    </TTGlyph>
    <TTGlyph name="Scedilla" xMin="136" yMin="-464" xMax="1068" yMax="1538">
      <contour>
        <pt x="313" y="-327" on="1"/>
        <pt x="342" y="-345" on="0"/>
        <pt x="463" y="-345" on="0"/>
        <pt x="502" y="-307" on="1"/>
        <pt x="549" y="-261" on="0"/>
        <pt x="549" y="-125" on="1"/>
        <pt x="549" y="-65" on="0"/>
        <pt x="535" y="-15" on="1"/>
        <pt x="335" y="-9" on="0"/>
        <pt x="194" y="46" on="1"/>
        <pt x="155" y="61" on="0"/>
        <pt x="136" y="74" on="1"/>
        <pt x="177" y="213" on="1"/>
        <pt x="276" y="150" on="0"/>
        <pt x="448" y="126" on="1"/>
        <pt x="503" y="119" on="0"/>
        <pt x="570" y="119" on="1"/>
        <pt x="720" y="119" on="0"/>
        <pt x="902" y="243" on="0"/>
        <pt x="902" y="484" on="0"/>
        <pt x="800" y="565" on="1"/>
        <pt x="732" y="619" on="0"/>
        <pt x="464" y="740" on="0"/>
        <pt x="321" y="827" on="0"/>
        <pt x="265" y="883" on="1"/>
        <pt x="140" y="1008" on="0"/>
        <pt x="140" y="1162" on="1"/>
        <pt x="140" y="1415" on="0"/>
        <pt x="401" y="1502" on="1"/>
        <pt x="507" y="1538" on="0"/>
        <pt x="605" y="1538" on="1"/>
        <pt x="865" y="1538" on="0"/>
        <pt x="991" y="1456" on="1"/>
        <pt x="956" y="1323" on="1"/>
        <pt x="828" y="1405" on="0"/>
        <pt x="630" y="1405" on="1"/>
        <pt x="495" y="1405" on="0"/>
        <pt x="302" y="1291" on="0"/>
        <pt x="302" y="1066" on="0"/>
        <pt x="390" y="986" on="1"/>
        <pt x="453" y="927" on="0"/>
        <pt x="715" y="802" on="0"/>
        <pt x="792" y="760" on="1"/>
        <pt x="1068" y="611" on="0"/>
        <pt x="1068" y="385" on="1"/>
        <pt x="1068" y="205" on="0"/>
        <pt x="835" y="1" on="0"/>
        <pt x="639" y="-13" on="1"/>
        <pt x="671" y="-81" on="0"/>
        <pt x="671" y="-188" on="1"/>
        <pt x="671" y="-405" on="0"/>
        <pt x="524" y="-452" on="1"/>
        <pt x="484" y="-464" on="0"/>
        <pt x="454" y="-464" on="1"/>
        <pt x="343" y="-464" on="0"/>
        <pt x="301" y="-436" on="1"/>
      </contour>
    </TTGlyph>
    <TTGlyph name="Scircumflex" xMin="136" yMin="-16" xMax="1068" yMax="1982">
      <component glyphName="S" x="0" y="0" flags="0x1204"/>
      <component glyphName="circumflex.cap" x="217" y="0" flags="0x1004"/>
    </TTGlyph>
    <TTGlyph name="T" xMin="62" yMin="0" xMax="1222" yMax="1522">
      <contour>
        <pt x="553" y="1391" on="1"/>
        <pt x="62" y="1391" on="1"/>
        <pt x="62" y="1522" on="1"/>
        <pt x="1222" y="1522" on="1"/>
        <pt x="1222" y="1391" on="1"/>
        <pt x="724" y="1391" on="1"/>
        <pt x="724" y="0" on="1"/>
        <pt x="553" y="0" on="1"/>
      </contour>
    </TTGlyph>
    <TTGlyph name="Tbar" xMin="62" yMin="0" xMax="1222" yMax="1522">
      <contour>
        <pt x="553" y="666" on="1"/>
        <pt x="254" y="666" on="1"/>
        <pt x="254" y="778" on="1"/>
        <pt x="553" y="778" on="1"/>
        <pt x="553" y="1391" on="1"/>
        <pt x="62" y="1391" on="1"/>
        <pt x="62" y="1522" on="1"/>
        <pt x="1222" y="1522" on="1"/>
        <pt x="1222" y="1391" on="1"/>
        <pt x="724" y="1391" on="1"/>
        <pt x="724" y="778" on="1"/>
        <pt x="1025" y="778" on="1"/>
        <pt x="1025" y="666" on="1"/>
        <pt x="724" y="666" on="1"/>
        <pt x="724" y="0" on="1"/>
        <pt x="553" y="0" on="1"/>
      </contour>
    </TTGlyph>
    <TTGlyph name="Tcaron" xMin="62" yMin="0" xMax="1222" yMax="1982">
      <component glyphName="caron.cap" x="244" y="0" flags="0x1004"/>
      <component glyphName="T" x="0" y="0" flags="0x1004"/>
    </TTGlyph>
    <TTGlyph name="Thorn" xMin="206" yMin="0" xMax="1185" yMax="1522">
      <contour>
        <pt x="617" y="292" on="1"/>
        <pt x="591" y="292" on="0"/>
        <pt x="375" y="304" on="1"/>
        <pt x="375" y="0" on="1"/>
        <pt x="206" y="0" on="1"/>
        <pt x="206" y="1522" on="1"/>
        <pt x="375" y="1522" on="1"/>
        <pt x="375" y="1230" on="1"/>
        <pt x="616" y="1248" on="0"/>
        <pt x="788" y="1248" on="0"/>
        <pt x="980" y="1195" on="0"/>
        <pt x="1046" y="1139" on="1"/>
        <pt x="1185" y="1022" on="0"/>
        <pt x="1185" y="548" on="0"/>
        <pt x="886" y="292" on="0"/>
      </contour>
      <contour>
        <pt x="631" y="1126" on="1"/>
        <pt x="508" y="1126" on="0"/>
        <pt x="375" y="1104" on="1"/>
        <pt x="375" y="429" on="1"/>
        <pt x="492" y="415" on="0"/>
        <pt x="592" y="415" on="1"/>
        <pt x="798" y="415" on="0"/>
        <pt x="1016" y="587" on="0"/>
        <pt x="1016" y="790" on="1"/>
        <pt x="1016" y="1126" on="0"/>
      </contour>
    </TTGlyph>
    <TTGlyph name="U" xMin="171" yMin="-16" xMax="1304" yMax="1523">
      <contour>
        <pt x="171" y="1523" on="1"/>
        <pt x="340" y="1523" on="1"/>
        <pt x="339" y="684" on="1"/>
        <pt x="339" y="226" on="0"/>
        <pt x="576" y="144" on="1"/>
        <pt x="653" y="117" on="0"/>
        <pt x="746" y="117" on="1"/>
        <pt x="941" y="117" on="0"/>
        <pt x="1136" y="372" on="0"/>
        <pt x="1136" y="685" on="1"/>
        <pt x="1136" y="1522" on="1"/>
        <pt x="1304" y="1522" on="1"/>
        <pt x="1304" y="645" on="1"/>
        <pt x="1304" y="-16" on="0"/>
        <pt x="744" y="-16" on="1"/>
        <pt x="305" y="-16" on="0"/>
        <pt x="204" y="360" on="1"/>
        <pt x="171" y="483" on="0"/>
        <pt x="171" y="644" on="1"/>
      </contour>
    </TTGlyph>
    <TTGlyph name="Uacute" xMin="171" yMin="-16" xMax="1304" yMax="1975">
      <component glyphName="acute.cap" x="573" y="0" flags="0x1004"/>
      <component glyphName="U" x="0" y="0" flags="0x1004"/>
    </TTGlyph>
    <TTGlyph name="Ubreve" xMin="171" yMin="-16" xMax="1304" yMax="1967">
      <component glyphName="breve.cap" x="362" y="0" flags="0x1004"/>
      <component glyphName="U" x="0" y="0" flags="0x1004"/>
    </TTGlyph>
    <TTGlyph name="Ucircumflex" xMin="171" yMin="-16" xMax="1304" yMax="1982">
      <component glyphName="U" x="0" y="0" flags="0x1204"/>
      <component glyphName="circumflex.cap" x="347" y="0" flags="0x1004"/>
    </TTGlyph>
    <TTGlyph name="Udieresis" xMin="171" yMin="-16" xMax="1304" yMax="1922">
      <component glyphName="dieresis.cap" x="346" y="0" flags="0x1004"/>
      <component glyphName="U" x="0" y="0" flags="0x1004"/>
    </TTGlyph>
    <TTGlyph name="Ugrave" xMin="171" yMin="-16" xMax="1304" yMax="1975">
      <component glyphName="grave.cap" x="360" y="0" flags="0x1004"/>
      <component glyphName="U" x="0" y="0" flags="0x1004"/>
    </TTGlyph>
    <TTGlyph name="Uhungarumlaut" xMin="171" yMin="-16" xMax="1304" yMax="1990">
      <component glyphName="U" x="0" y="0" flags="0x1204"/>
      <component glyphName="hungarumlaut.cap" x="349" y="0" flags="0x1004"/>
    </TTGlyph>
    <TTGlyph name="Umacron" xMin="171" yMin="-16" xMax="1304" yMax="1867">
      <component glyphName="macron.cap" x="429" y="0" flags="0x1004"/>
      <component glyphName="U" x="0" y="0" flags="0x1004"/>
    </TTGlyph>
    <TTGlyph name="Uogonek" xMin="171" yMin="-512" xMax="1304" yMax="1523">
      <contour>
        <pt x="1065" y="-450" on="1"/>
        <pt x="982" y="-512" on="0"/>
        <pt x="664" y="-512" on="0"/>
        <pt x="607" y="-396" on="1"/>
        <pt x="551" y="-283" on="0"/>
        <pt x="650" y="-148" on="1"/>
        <pt x="708" y="-71" on="0"/>
        <pt x="790" y="-15" on="1"/>
        <pt x="779" y="-16" on="0"/>
        <pt x="768" y="-16" on="1"/>
        <pt x="744" y="-16" on="1"/>
        <pt x="305" y="-16" on="0"/>
        <pt x="204" y="360" on="1"/>
        <pt x="171" y="483" on="0"/>
        <pt x="171" y="644" on="1"/>
        <pt x="171" y="1523" on="1"/>
        <pt x="340" y="1523" on="1"/>
        <pt x="339" y="684" on="1"/>
        <pt x="339" y="226" on="0"/>
        <pt x="576" y="144" on="1"/>
        <pt x="653" y="117" on="0"/>
        <pt x="746" y="117" on="1"/>
        <pt x="941" y="117" on="0"/>
        <pt x="1136" y="372" on="0"/>
        <pt x="1136" y="685" on="1"/>
        <pt x="1136" y="1522" on="1"/>
        <pt x="1304" y="1522" on="1"/>
        <pt x="1304" y="645" on="1"/>
        <pt x="1304" y="116" on="0"/>
        <pt x="945" y="10" on="1"/>
        <pt x="814" y="-95" on="0"/>
        <pt x="768" y="-201" on="1"/>
        <pt x="753" y="-237" on="0"/>
        <pt x="753" y="-271" on="1"/>
        <pt x="753" y="-399" on="0"/>
        <pt x="902" y="-399" on="1"/>
        <pt x="983" y="-397" on="0"/>
        <pt x="1065" y="-358" on="1"/>
      </contour>
    </TTGlyph>
    <TTGlyph name="Uring" xMin="171" yMin="-16" xMax="1304" yMax="1972">
      <component glyphName="U" x="0" y="0" flags="0x1204"/>
      <component glyphName="ring.cap" x="391" y="0" flags="0x1004"/>
    </TTGlyph>
    <TTGlyph name="Utilde" xMin="171" yMin="-16" xMax="1304" yMax="1944">
      <component glyphName="tilde.cap" x="290" y="0" flags="0x1004"/>
      <component glyphName="U" x="0" y="0" flags="0x1004"/>
    </TTGlyph>
    <TTGlyph name="V" xMin="31" yMin="-16" xMax="1301" yMax="1522">
      <contour>
        <pt x="31" y="1522" on="1"/>
        <pt x="210" y="1522" on="1"/>
        <pt x="601" y="437" on="1"/>
        <pt x="677" y="193" on="1"/>
        <pt x="753" y="437" on="1"/>
        <pt x="1123" y="1522" on="1"/>
        <pt x="1301" y="1522" on="1"/>
        <pt x="747" y="-16" on="1"/>
        <pt x="605" y="-16" on="1"/>
      </contour>
    </TTGlyph>
    <TTGlyph name="W" xMin="32" yMin="-16" xMax="1878" yMax="1522">
      <contour>
        <pt x="32" y="1522" on="1"/>
        <pt x="206" y="1522" on="1"/>
        <pt x="455" y="516" on="1"/>
        <pt x="524" y="181" on="1"/>
        <pt x="598" y="516" on="1"/>
        <pt x="896" y="1522" on="1"/>
        <pt x="1021" y="1522" on="1"/>
        <pt x="1322" y="516" on="1"/>
        <pt x="1407" y="184" on="1"/>
        <pt x="1471" y="515" on="1"/>
        <pt x="1707" y="1522" on="1"/>
        <pt x="1878" y="1522" on="1"/>
        <pt x="1486" y="-16" on="1"/>
        <pt x="1320" y="-16" on="1"/>
        <pt x="995" y="1080" on="1"/>
        <pt x="958" y="1262" on="1"/>
        <pt x="921" y="1080" on="1"/>
        <pt x="592" y="-16" on="1"/>
        <pt x="444" y="-16" on="1"/>
      </contour>
    </TTGlyph>
    <TTGlyph name="Wacute" xMin="32" yMin="-16" xMax="1878" yMax="1975">
      <component glyphName="acute.cap" x="780" y="0" flags="0x1004"/>
      <component glyphName="W" x="0" y="0" flags="0x1004"/>
    </TTGlyph>
    <TTGlyph name="Wcircumflex" xMin="32" yMin="-16" xMax="1878" yMax="1982">
      <component glyphName="W" x="0" y="0" flags="0x1204"/>
      <component glyphName="circumflex.cap" x="554" y="0" flags="0x1004"/>
    </TTGlyph>
    <TTGlyph name="Wdieresis" xMin="32" yMin="-16" xMax="1878" yMax="1922">
      <component glyphName="dieresis.cap" x="553" y="0" flags="0x1004"/>
      <component glyphName="W" x="0" y="0" flags="0x1004"/>
    </TTGlyph>
    <TTGlyph name="Wgrave" xMin="32" yMin="-16" xMax="1878" yMax="1975">
      <component glyphName="grave.cap" x="567" y="0" flags="0x1004"/>
      <component glyphName="W" x="0" y="0" flags="0x1004"/>
    </TTGlyph>
    <TTGlyph name="X" xMin="73" yMin="0" xMax="1257" yMax="1523">
      <contour>
        <pt x="563" y="782" on="1"/>
        <pt x="79" y="1522" on="1"/>
        <pt x="270" y="1523" on="1"/>
        <pt x="565" y="1058" on="1"/>
        <pt x="672" y="881" on="1"/>
        <pt x="777" y="1058" on="1"/>
        <pt x="1060" y="1522" on="1"/>
        <pt x="1243" y="1522" on="1"/>
        <pt x="763" y="758" on="1"/>
        <pt x="1257" y="0" on="1"/>
        <pt x="1064" y="0" on="1"/>
        <pt x="656" y="655" on="1"/>
        <pt x="256" y="0" on="1"/>
        <pt x="73" y="0" on="1"/>
      </contour>
    </TTGlyph>
    <TTGlyph name="Y" xMin="31" yMin="0" xMax="1219" yMax="1522">
      <contour>
        <pt x="548" y="584" on="1"/>
        <pt x="31" y="1522" on="1"/>
        <pt x="212" y="1522" on="1"/>
        <pt x="586" y="821" on="1"/>
        <pt x="637" y="706" on="1"/>
        <pt x="681" y="821" on="1"/>
        <pt x="1040" y="1522" on="1"/>
        <pt x="1219" y="1522" on="1"/>
        <pt x="720" y="587" on="1"/>
        <pt x="720" y="0" on="1"/>
        <pt x="548" y="0" on="1"/>
      </contour>
    </TTGlyph>
    <TTGlyph name="Yacute" xMin="31" yMin="0" xMax="1219" yMax="1975">
      <component glyphName="Y" x="0" y="0" flags="0x1204"/>
      <component glyphName="acute.cap" x="470" y="0" flags="0x1004"/>
    </TTGlyph>
    <TTGlyph name="Ycircumflex" xMin="31" yMin="0" xMax="1219" yMax="1982">
      <component glyphName="Y" x="0" y="0" flags="0x1204"/>
      <component glyphName="circumflex.cap" x="245" y="0" flags="0x1004"/>
    </TTGlyph>
    <TTGlyph name="Ydieresis" xMin="31" yMin="0" xMax="1219" yMax="1922">
      <component glyphName="Y" x="0" y="0" flags="0x1204"/>
      <component glyphName="dieresis.cap" x="244" y="0" flags="0x1004"/>
    </TTGlyph>
    <TTGlyph name="Ygrave" xMin="31" yMin="0" xMax="1219" yMax="1975">
      <component glyphName="Y" x="0" y="0" flags="0x1204"/>
      <component glyphName="grave.cap" x="257" y="0" flags="0x1004"/>
    </TTGlyph>
    <TTGlyph name="Z" xMin="106" yMin="0" xMax="1220" yMax="1522">
      <contour>
        <pt x="914" y="1275" on="1"/>
        <pt x="999" y="1387" on="1"/>
        <pt x="189" y="1387" on="1"/>
        <pt x="189" y="1522" on="1"/>
        <pt x="1184" y="1522" on="1"/>
        <pt x="1220" y="1458" on="1"/>
        <pt x="415" y="239" on="1"/>
        <pt x="329" y="133" on="1"/>
        <pt x="1178" y="133" on="1"/>
        <pt x="1178" y="0" on="1"/>
        <pt x="142" y="0" on="1"/>
        <pt x="106" y="66" on="1"/>
      </contour>
    </TTGlyph>
    <TTGlyph name="Zacute" xMin="106" yMin="0" xMax="1220" yMax="1975">
      <component glyphName="Z" x="0" y="0" flags="0x1204"/>
      <component glyphName="acute.cap" x="510" y="0" flags="0x1004"/>
    </TTGlyph>
    <TTGlyph name="Zcaron" xMin="106" yMin="0" xMax="1220" yMax="1982">
      <component glyphName="caron.cap" x="296" y="0" flags="0x1004"/>
      <component glyphName="Z" x="0" y="0" flags="0x1004"/>
    </TTGlyph>
    <TTGlyph name="Zdotaccent" xMin="106" yMin="0" xMax="1220" yMax="1926">
      <component glyphName="dotaccent.cap" x="522" y="0" flags="0x1004"/>
      <component glyphName="Z" x="0" y="0" flags="0x1004"/>
    </TTGlyph>
    <TTGlyph name="a" xMin="110" yMin="-16" xMax="967" yMax="1157">
      <contour>
        <pt x="162" y="109" on="0"/>
        <pt x="110" y="227" on="0"/>
        <pt x="110" y="414" on="0"/>
        <pt x="173" y="492" on="1"/>
        <pt x="304" y="654" on="0"/>
        <pt x="700" y="678" on="1"/>
        <pt x="756" y="682" on="0"/>
        <pt x="801" y="682" on="1"/>
        <pt x="801" y="814" on="1"/>
        <pt x="801" y="944" on="0"/>
        <pt x="674" y="1030" on="0"/>
        <pt x="408" y="1030" on="0"/>
        <pt x="261" y="966" on="1"/>
        <pt x="222" y="949" on="0"/>
        <pt x="200" y="933" on="1"/>
        <pt x="159" y="1043" on="1"/>
        <pt x="252" y="1105" on="0"/>
        <pt x="440" y="1143" on="1"/>
        <pt x="509" y="1157" on="0"/>
        <pt x="587" y="1157" on="1"/>
        <pt x="770" y="1157" on="0"/>
        <pt x="860" y="1089" on="1"/>
        <pt x="967" y="1008" on="0"/>
        <pt x="967" y="807" on="1"/>
        <pt x="967" y="-16" on="1"/>
        <pt x="899" y="-16" on="1"/>
        <pt x="850" y="-16" on="0"/>
        <pt x="811" y="12" on="0"/>
        <pt x="811" y="64" on="1"/>
        <pt x="810" y="106" on="1"/>
        <pt x="722" y="26" on="0"/>
        <pt x="572" y="-5" on="1"/>
        <pt x="518" y="-16" on="0"/>
        <pt x="381" y="-16" on="0"/>
        <pt x="254" y="27" on="0"/>
      </contour>
      <contour>
        <pt x="448" y="522" on="1"/>
        <pt x="275" y="458" on="0"/>
        <pt x="275" y="330" on="1"/>
        <pt x="275" y="109" on="0"/>
        <pt x="506" y="109" on="1"/>
        <pt x="647" y="109" on="0"/>
        <pt x="764" y="180" on="1"/>
        <pt x="791" y="197" on="0"/>
        <pt x="801" y="208" on="1"/>
        <pt x="801" y="575" on="1"/>
        <pt x="668" y="575" on="0"/>
        <pt x="484" y="537" on="0"/>
      </contour>
    </TTGlyph>
    <TTGlyph name="aacute" xMin="110" yMin="-16" xMax="967" yMax="1781">
      <component glyphName="a" x="0" y="0" flags="0x1204"/>
      <component glyphName="acute" x="411" y="0" flags="0x1004"/>
    </TTGlyph>
    <TTGlyph name="abreve" xMin="110" yMin="-16" xMax="967" yMax="1694">
      <component glyphName="a" x="0" y="0" flags="0x1204"/>
      <component glyphName="breve" x="195" y="0" flags="0x1004"/>
    </TTGlyph>
    <TTGlyph name="acircumflex" xMin="110" yMin="-16" xMax="967" yMax="1692">
      <component glyphName="a" x="0" y="0" flags="0x1204"/>
      <component glyphName="circumflex" x="164" y="0" flags="0x1004"/>
    </TTGlyph>
    <TTGlyph name="acute" xMin="50" yMin="1315" xMax="507" yMax="1781">
      <contour>
        <pt x="50" y="1383" on="1"/>
        <pt x="277" y="1630" on="0"/>
        <pt x="387" y="1781" on="1"/>
        <pt x="507" y="1678" on="1"/>
        <pt x="436" y="1574" on="0"/>
        <pt x="256" y="1412" on="1"/>
        <pt x="180" y="1343" on="0"/>
        <pt x="136" y="1315" on="1"/>
      </contour>
    </TTGlyph>
    <TTGlyph name="acute.cap" xMin="56" yMin="1589" xMax="514" yMax="1975">
      <contour>
        <pt x="56" y="1660" on="1"/>
        <pt x="98" y="1694" on="0"/>
        <pt x="192" y="1779" on="0"/>
        <pt x="231" y="1814" on="1"/>
        <pt x="370" y="1939" on="0"/>
        <pt x="403" y="1975" on="1"/>
        <pt x="514" y="1873" on="1"/>
        <pt x="388" y="1747" on="0"/>
        <pt x="226" y="1644" on="1"/>
        <pt x="174" y="1612" on="0"/>
        <pt x="128" y="1589" on="1"/>
      </contour>
    </TTGlyph>
    <TTGlyph name="adieresis" xMin="110" yMin="-16" xMax="967" yMax="1633">
      <component glyphName="a" x="0" y="0" flags="0x1204"/>
      <component glyphName="dieresis" x="192" y="0" flags="0x1004"/>
    </TTGlyph>
    <TTGlyph name="ae" xMin="110" yMin="-16" xMax="1721" yMax="1157">
      <contour>
        <pt x="889" y="188" on="1"/>
        <pt x="722" y="-16" on="0"/>
        <pt x="461" y="-16" on="1"/>
        <pt x="306" y="-16" on="0"/>
        <pt x="110" y="155" on="0"/>
        <pt x="110" y="414" on="0"/>
        <pt x="175" y="492" on="1"/>
        <pt x="333" y="682" on="0"/>
        <pt x="799" y="682" on="1"/>
        <pt x="799" y="801" on="1"/>
        <pt x="799" y="941" on="0"/>
        <pt x="730" y="991" on="1"/>
        <pt x="676" y="1030" on="0"/>
        <pt x="420" y="1030" on="0"/>
        <pt x="268" y="964" on="1"/>
        <pt x="228" y="947" on="0"/>
        <pt x="204" y="931" on="1"/>
        <pt x="162" y="1043" on="1"/>
        <pt x="252" y="1103" on="0"/>
        <pt x="450" y="1143" on="1"/>
        <pt x="519" y="1157" on="0"/>
        <pt x="585" y="1157" on="1"/>
        <pt x="724" y="1157" on="0"/>
        <pt x="890" y="1076" on="0"/>
        <pt x="924" y="975" on="1"/>
        <pt x="1065" y="1156" on="0"/>
        <pt x="1319" y="1156" on="1"/>
        <pt x="1497" y="1156" on="0"/>
        <pt x="1717" y="921" on="0"/>
        <pt x="1721" y="728" on="1"/>
        <pt x="1721" y="593" on="0"/>
        <pt x="1713" y="553" on="1"/>
        <pt x="965" y="553" on="1"/>
        <pt x="965" y="543" on="0"/>
        <pt x="965" y="533" on="1"/>
        <pt x="965" y="308" on="0"/>
        <pt x="1078" y="200" on="1"/>
        <pt x="1171" y="111" on="0"/>
        <pt x="1340" y="111" on="1"/>
        <pt x="1466" y="111" on="0"/>
        <pt x="1593" y="158" on="1"/>
        <pt x="1630" y="171" on="0"/>
        <pt x="1653" y="186" on="1"/>
        <pt x="1686" y="89" on="1"/>
        <pt x="1594" y="16" on="0"/>
        <pt x="1408" y="-8" on="1"/>
        <pt x="1351" y="-16" on="0"/>
        <pt x="1298" y="-16" on="1"/>
        <pt x="1016" y="-16" on="0"/>
      </contour>
      <contour>
        <pt x="1564" y="665" on="1"/>
        <pt x="1565" y="686" on="0"/>
        <pt x="1565" y="723" on="1"/>
        <pt x="1565" y="848" on="0"/>
        <pt x="1515" y="930" on="1"/>
        <pt x="1449" y="1037" on="0"/>
        <pt x="1302" y="1037" on="1"/>
        <pt x="1097" y="1037" on="0"/>
        <pt x="1012" y="834" on="1"/>
        <pt x="983" y="764" on="0"/>
        <pt x="972" y="665" on="1"/>
      </contour>
      <contour>
        <pt x="448" y="522" on="1"/>
        <pt x="278" y="459" on="0"/>
        <pt x="278" y="329" on="1"/>
        <pt x="278" y="109" on="0"/>
        <pt x="503" y="109" on="1"/>
        <pt x="606" y="109" on="0"/>
        <pt x="802" y="218" on="0"/>
        <pt x="844" y="282" on="1"/>
        <pt x="801" y="399" on="0"/>
        <pt x="801" y="565" on="1"/>
        <pt x="801" y="575" on="1"/>
        <pt x="573" y="575" on="0"/>
      </contour>
    </TTGlyph>
    <TTGlyph name="aeacute" xMin="110" yMin="-16" xMax="1721" yMax="1781">
      <component glyphName="acute" x="749" y="0" flags="0x1004"/>
      <component glyphName="ae" x="0" y="0" flags="0x1004"/>
    </TTGlyph>
    <TTGlyph name="afii61352" xMin="206" yMin="0" xMax="2467" yMax="1532">
      <contour>
        <pt x="1635" y="614" on="1"/>
        <pt x="1532" y="758" on="0"/>
        <pt x="1532" y="1010" on="1"/>
        <pt x="1532" y="1129" on="0"/>
        <pt x="1608" y="1329" on="0"/>
        <pt x="1672" y="1396" on="1"/>
        <pt x="1802" y="1532" on="0"/>
        <pt x="2240" y="1532" on="0"/>
        <pt x="2362" y="1366" on="1"/>
        <pt x="2467" y="1221" on="0"/>
        <pt x="2467" y="732" on="0"/>
        <pt x="2201" y="445" on="0"/>
        <pt x="1756" y="445" on="0"/>
      </contour>
      <contour>
        <pt x="206" y="1522" on="1"/>
        <pt x="355" y="1522" on="1"/>
        <pt x="989" y="492" on="1"/>
        <pt x="1117" y="235" on="1"/>
        <pt x="1109" y="461" on="1"/>
        <pt x="1109" y="1522" on="1"/>
        <pt x="1263" y="1522" on="1"/>
        <pt x="1263" y="0" on="1"/>
        <pt x="1117" y="0" on="1"/>
        <pt x="501" y="998" on="1"/>
        <pt x="350" y="1283" on="1"/>
        <pt x="360" y="1036" on="1"/>
        <pt x="360" y="0" on="1"/>
        <pt x="206" y="0" on="1"/>
      </contour>
      <contour>
        <pt x="1697" y="812" on="0"/>
        <pt x="1851" y="563" on="0"/>
        <pt x="2143" y="563" on="0"/>
        <pt x="2303" y="784" on="0"/>
        <pt x="2303" y="980" on="1"/>
        <pt x="2303" y="1280" on="0"/>
        <pt x="2137" y="1378" on="1"/>
        <pt x="2079" y="1412" on="0"/>
        <pt x="1933" y="1412" on="0"/>
        <pt x="1821" y="1359" on="0"/>
        <pt x="1780" y="1308" on="1"/>
        <pt x="1697" y="1201" on="0"/>
      </contour>
      <contour>
        <pt x="1596" y="213" on="1"/>
        <pt x="2412" y="213" on="1"/>
        <pt x="2412" y="87" on="1"/>
        <pt x="1596" y="87" on="1"/>
      </contour>
    </TTGlyph>
    <TTGlyph name="agrave" xMin="110" yMin="-16" xMax="967" yMax="1781">
      <component glyphName="a" x="0" y="0" flags="0x1204"/>
      <component glyphName="grave" x="181" y="0" flags="0x1004"/>
    </TTGlyph>
    <TTGlyph name="amacron" xMin="110" yMin="-16" xMax="967" yMax="1576">
      <component glyphName="a" x="0" y="0" flags="0x1204"/>
      <component glyphName="macron" x="262" y="0" flags="0x1004"/>
    </TTGlyph>
    <TTGlyph name="ampersand" xMin="148" yMin="-16" xMax="1440" yMax="1546">
      <contour>
        <pt x="1086" y="68" on="1"/>
        <pt x="923" y="-16" on="0"/>
        <pt x="770" y="-16" on="1"/>
        <pt x="475" y="-16" on="0"/>
        <pt x="148" y="194" on="0"/>
        <pt x="148" y="591" on="0"/>
        <pt x="356" y="718" on="1"/>
        <pt x="417" y="756" on="0"/>
        <pt x="484" y="786" on="1"/>
        <pt x="298" y="1021" on="0"/>
        <pt x="298" y="1358" on="0"/>
        <pt x="517" y="1546" on="0"/>
        <pt x="870" y="1546" on="0"/>
        <pt x="1073" y="1350" on="0"/>
        <pt x="1073" y="1214" on="1"/>
        <pt x="1073" y="968" on="0"/>
        <pt x="848" y="822" on="1"/>
        <pt x="780" y="778" on="0"/>
        <pt x="698" y="741" on="1"/>
        <pt x="855" y="527" on="0"/>
        <pt x="1074" y="273" on="0"/>
        <pt x="1102" y="244" on="1"/>
        <pt x="1211" y="345" on="0"/>
        <pt x="1211" y="514" on="1"/>
        <pt x="1211" y="624" on="0"/>
        <pt x="1173" y="728" on="1"/>
        <pt x="1320" y="728" on="1"/>
        <pt x="1355" y="614" on="0"/>
        <pt x="1355" y="514" on="1"/>
        <pt x="1355" y="286" on="0"/>
        <pt x="1203" y="156" on="1"/>
        <pt x="1301" y="87" on="0"/>
        <pt x="1424" y="87" on="1"/>
        <pt x="1432" y="87" on="0"/>
        <pt x="1440" y="87" on="1"/>
        <pt x="1440" y="-1" on="1"/>
        <pt x="1388" y="-16" on="0"/>
        <pt x="1327" y="-16" on="1"/>
        <pt x="1202" y="-16" on="0"/>
      </contour>
      <contour>
        <pt x="625" y="840" on="1"/>
        <pt x="930" y="965" on="0"/>
        <pt x="930" y="1212" on="1"/>
        <pt x="930" y="1296" on="0"/>
        <pt x="803" y="1427" on="0"/>
        <pt x="697" y="1427" on="1"/>
        <pt x="527" y="1427" on="0"/>
        <pt x="472" y="1302" on="1"/>
        <pt x="453" y="1259" on="0"/>
        <pt x="453" y="1145" on="0"/>
        <pt x="478" y="1058" on="0"/>
        <pt x="523" y="976" on="0"/>
        <pt x="587" y="892" on="0"/>
      </contour>
      <contour>
        <pt x="560" y="687" on="1"/>
        <pt x="305" y="569" on="0"/>
        <pt x="305" y="390" on="1"/>
        <pt x="305" y="267" on="0"/>
        <pt x="524" y="106" on="0"/>
        <pt x="743" y="106" on="1"/>
        <pt x="859" y="106" on="0"/>
        <pt x="982" y="159" on="1"/>
        <pt x="803" y="353" on="0"/>
      </contour>
    </TTGlyph>
    <TTGlyph name="aogonek" xMin="110" yMin="-512" xMax="1053" yMax="1157">
      <contour>
        <pt x="1053" y="-450" on="1"/>
        <pt x="970" y="-512" on="0"/>
        <pt x="653" y="-512" on="0"/>
        <pt x="597" y="-400" on="1"/>
        <pt x="578" y="-363" on="0"/>
        <pt x="578" y="-312" on="1"/>
        <pt x="577" y="-221" on="0"/>
        <pt x="731" y="-52" on="0"/>
        <pt x="831" y="-2" on="1"/>
        <pt x="811" y="12" on="0"/>
        <pt x="811" y="64" on="1"/>
        <pt x="810" y="106" on="1"/>
        <pt x="722" y="26" on="0"/>
        <pt x="572" y="-5" on="1"/>
        <pt x="518" y="-16" on="0"/>
        <pt x="450" y="-16" on="1"/>
        <pt x="302" y="-16" on="0"/>
        <pt x="110" y="155" on="0"/>
        <pt x="110" y="414" on="0"/>
        <pt x="173" y="492" on="1"/>
        <pt x="304" y="654" on="0"/>
        <pt x="700" y="678" on="1"/>
        <pt x="756" y="682" on="0"/>
        <pt x="801" y="682" on="1"/>
        <pt x="801" y="814" on="1"/>
        <pt x="801" y="944" on="0"/>
        <pt x="674" y="1030" on="0"/>
        <pt x="408" y="1030" on="0"/>
        <pt x="261" y="966" on="1"/>
        <pt x="222" y="949" on="0"/>
        <pt x="200" y="933" on="1"/>
        <pt x="159" y="1043" on="1"/>
        <pt x="252" y="1105" on="0"/>
        <pt x="440" y="1143" on="1"/>
        <pt x="509" y="1157" on="0"/>
        <pt x="587" y="1157" on="1"/>
        <pt x="770" y="1157" on="0"/>
        <pt x="860" y="1089" on="1"/>
        <pt x="967" y="1008" on="0"/>
        <pt x="967" y="807" on="1"/>
        <pt x="967" y="-16" on="1"/>
        <pt x="952" y="-16" on="1"/>
        <pt x="860" y="-76" on="0"/>
        <pt x="821" y="-117" on="1"/>
        <pt x="742" y="-200" on="0"/>
        <pt x="742" y="-280" on="1"/>
        <pt x="742" y="-399" on="0"/>
        <pt x="892" y="-399" on="1"/>
        <pt x="975" y="-397" on="0"/>
        <pt x="1053" y="-358" on="1"/>
      </contour>
      <contour>
        <pt x="448" y="522" on="1"/>
        <pt x="275" y="458" on="0"/>
        <pt x="275" y="330" on="1"/>
        <pt x="275" y="109" on="0"/>
        <pt x="506" y="109" on="1"/>
        <pt x="647" y="109" on="0"/>
        <pt x="764" y="180" on="1"/>
        <pt x="791" y="197" on="0"/>
        <pt x="801" y="208" on="1"/>
        <pt x="801" y="575" on="1"/>
        <pt x="668" y="575" on="0"/>
        <pt x="484" y="537" on="0"/>
      </contour>
    </TTGlyph>
    <TTGlyph name="approxequal" xMin="217" yMin="308" xMax="1210" yMax="1078">
      <component glyphName="asciitilde" x="-5" y="-352" flags="0x1004"/>
      <component glyphName="asciitilde" x="-5" y="103" flags="0x1004"/>
    </TTGlyph>
    <TTGlyph name="aring" xMin="110" yMin="-16" xMax="967" yMax="1858">
      <component glyphName="a" x="0" y="0" flags="0x1204"/>
      <component glyphName="ring" x="226" y="0" flags="0x1004"/>
    </TTGlyph>
    <TTGlyph name="asciicircum" xMin="189" yMin="509" xMax="1174" yMax="1531">
      <contour>
        <pt x="603" y="1531" on="1"/>
        <pt x="757" y="1531" on="1"/>
        <pt x="1174" y="509" on="1"/>
        <pt x="1014" y="509" on="1"/>
        <pt x="680" y="1348" on="1"/>
        <pt x="350" y="509" on="1"/>
        <pt x="189" y="509" on="1"/>
      </contour>
    </TTGlyph>
    <TTGlyph name="asciitilde" xMin="222" yMin="660" xMax="1215" yMax="975">
      <contour>
        <pt x="523" y="833" on="1"/>
        <pt x="399" y="833" on="0"/>
        <pt x="310" y="707" on="1"/>
        <pt x="222" y="776" on="1"/>
        <pt x="254" y="848" on="0"/>
        <pt x="422" y="975" on="0"/>
        <pt x="636" y="975" on="0"/>
        <pt x="738" y="889" on="1"/>
        <pt x="802" y="834" on="0"/>
        <pt x="878" y="803" on="0"/>
        <pt x="916" y="803" on="1"/>
        <pt x="1046" y="803" on="0"/>
        <pt x="1136" y="928" on="1"/>
        <pt x="1215" y="852" on="1"/>
        <pt x="1161" y="725" on="0"/>
        <pt x="1018" y="677" on="1"/>
        <pt x="967" y="660" on="0"/>
        <pt x="858" y="660" on="0"/>
        <pt x="786" y="686" on="0"/>
        <pt x="726" y="724" on="0"/>
        <pt x="700" y="746" on="1"/>
        <pt x="602" y="833" on="0"/>
      </contour>
    </TTGlyph>
    <TTGlyph name="asterisk" xMin="139" yMin="648" xMax="1087" yMax="1658">
      <contour>
        <pt x="645" y="1094" on="1"/>
        <pt x="674" y="929" on="1"/>
        <pt x="690" y="649" on="1"/>
        <pt x="544" y="648" on="1"/>
        <pt x="554" y="929" on="1"/>
        <pt x="579" y="1096" on="1"/>
        <pt x="451" y="986" on="1"/>
        <pt x="215" y="834" on="1"/>
        <pt x="142" y="959" on="1"/>
        <pt x="388" y="1093" on="1"/>
        <pt x="545" y="1153" on="1"/>
        <pt x="387" y="1210" on="1"/>
        <pt x="139" y="1340" on="1"/>
        <pt x="210" y="1466" on="1"/>
        <pt x="447" y="1315" on="1"/>
        <pt x="578" y="1211" on="1"/>
        <pt x="578" y="1212" on="0"/>
        <pt x="576" y="1224" on="1"/>
        <pt x="571" y="1254" on="1"/>
        <pt x="560" y="1321" on="0"/>
        <pt x="549" y="1373" on="0"/>
        <pt x="549" y="1375" on="1"/>
        <pt x="535" y="1658" on="1"/>
        <pt x="681" y="1658" on="1"/>
        <pt x="671" y="1377" on="1"/>
        <pt x="645" y="1212" on="1"/>
        <pt x="773" y="1320" on="1"/>
        <pt x="1011" y="1472" on="1"/>
        <pt x="1083" y="1348" on="1"/>
        <pt x="836" y="1215" on="1"/>
        <pt x="680" y="1154" on="1"/>
        <pt x="837" y="1097" on="1"/>
        <pt x="1087" y="969" on="1"/>
        <pt x="1013" y="840" on="1"/>
        <pt x="778" y="990" on="1"/>
      </contour>
    </TTGlyph>
    <TTGlyph name="at" xMin="224" yMin="-465" xMax="1999" yMax="1544">
      <contour>
        <pt x="1863" y="808" on="1"/>
        <pt x="1863" y="1432" on="0"/>
        <pt x="1224" y="1432" on="1"/>
        <pt x="993" y="1432" on="0"/>
        <pt x="796" y="1309" on="1"/>
        <pt x="486" y="1115" on="0"/>
        <pt x="391" y="724" on="1"/>
        <pt x="359" y="591" on="0"/>
        <pt x="359" y="296" on="0"/>
        <pt x="413" y="67" on="0"/>
        <pt x="462" y="-21" on="1"/>
        <pt x="555" y="-189" on="0"/>
        <pt x="882" y="-352" on="0"/>
        <pt x="1343" y="-352" on="0"/>
        <pt x="1502" y="-259" on="1"/>
        <pt x="1532" y="-359" on="1"/>
        <pt x="1423" y="-430" on="0"/>
        <pt x="1212" y="-456" on="1"/>
        <pt x="1144" y="-465" on="0"/>
        <pt x="1074" y="-465" on="1"/>
        <pt x="696" y="-465" on="0"/>
        <pt x="224" y="-10" on="0"/>
        <pt x="224" y="425" on="1"/>
        <pt x="224" y="756" on="0"/>
        <pt x="495" y="1264" on="0"/>
        <pt x="965" y="1544" on="0"/>
        <pt x="1253" y="1544" on="1"/>
        <pt x="1591" y="1544" on="0"/>
        <pt x="1999" y="1167" on="0"/>
        <pt x="1999" y="835" on="1"/>
        <pt x="1999" y="452" on="0"/>
        <pt x="1660" y="2" on="0"/>
        <pt x="1443" y="2" on="1"/>
        <pt x="1308" y="2" on="0"/>
        <pt x="1308" y="213" on="1"/>
        <pt x="1308" y="301" on="0"/>
        <pt x="1324" y="404" on="1"/>
        <pt x="1195" y="128" on="0"/>
        <pt x="1044" y="32" on="1"/>
        <pt x="990" y="-2" on="0"/>
        <pt x="882" y="-2" on="0"/>
        <pt x="831" y="24" on="1"/>
        <pt x="722" y="79" on="0"/>
        <pt x="674" y="240" on="1"/>
        <pt x="652" y="317" on="0"/>
        <pt x="652" y="427" on="0"/>
        <pt x="653" y="505" on="0"/>
        <pt x="684" y="654" on="0"/>
        <pt x="714" y="724" on="1"/>
        <pt x="778" y="878" on="0"/>
        <pt x="1026" y="1071" on="0"/>
        <pt x="1356" y="1071" on="0"/>
        <pt x="1450" y="1014" on="1"/>
        <pt x="1583" y="1040" on="1"/>
        <pt x="1492" y="722" on="0"/>
        <pt x="1450" y="401" on="1"/>
        <pt x="1436" y="296" on="0"/>
        <pt x="1436" y="124" on="0"/>
        <pt x="1481" y="124" on="1"/>
        <pt x="1549" y="124" on="0"/>
        <pt x="1685" y="230" on="0"/>
        <pt x="1740" y="322" on="1"/>
        <pt x="1863" y="529" on="0"/>
      </contour>
      <contour>
        <pt x="849" y="724" on="0"/>
        <pt x="797" y="549" on="0"/>
        <pt x="795" y="452" on="0"/>
        <pt x="795" y="415" on="1"/>
        <pt x="795" y="306" on="0"/>
        <pt x="881" y="133" on="0"/>
        <pt x="966" y="133" on="1"/>
        <pt x="1069" y="133" on="0"/>
        <pt x="1359" y="681" on="0"/>
        <pt x="1392" y="885" on="1"/>
        <pt x="1337" y="956" on="0"/>
        <pt x="1190" y="956" on="1"/>
        <pt x="1011" y="956" on="0"/>
        <pt x="898" y="795" on="1"/>
      </contour>
    </TTGlyph>
    <TTGlyph name="atilde" xMin="110" yMin="-16" xMax="992" yMax="1638">
      <component glyphName="a" x="0" y="0" flags="0x1204"/>
      <component glyphName="tilde" x="122" y="0" flags="0x1004"/>
    </TTGlyph>
    <TTGlyph name="b" xMin="184" yMin="-17" xMax="1141" yMax="1661">
      <contour>
        <pt x="344" y="1016" on="1"/>
        <pt x="491" y="1156" on="0"/>
        <pt x="888" y="1156" on="0"/>
        <pt x="1141" y="874" on="0"/>
        <pt x="1141" y="332" on="0"/>
        <pt x="823" y="-17" on="0"/>
        <pt x="567" y="-17" on="1"/>
        <pt x="392" y="-17" on="0"/>
        <pt x="237" y="40" on="1"/>
        <pt x="199" y="54" on="0"/>
        <pt x="184" y="64" on="1"/>
        <pt x="184" y="1661" on="1"/>
        <pt x="351" y="1661" on="1"/>
        <pt x="351" y="1186" on="1"/>
      </contour>
      <contour>
        <pt x="351" y="155" on="1"/>
        <pt x="416" y="106" on="0"/>
        <pt x="746" y="106" on="0"/>
        <pt x="971" y="359" on="0"/>
        <pt x="971" y="582" on="1"/>
        <pt x="971" y="1025" on="0"/>
        <pt x="646" y="1025" on="1"/>
        <pt x="519" y="1025" on="0"/>
        <pt x="403" y="948" on="1"/>
        <pt x="372" y="928" on="0"/>
        <pt x="351" y="909" on="1"/>
      </contour>
    </TTGlyph>
    <TTGlyph name="backslash" xMin="66" yMin="-363" xMax="787" yMax="1599">
      <component glyphName="slash" x="853" y="0" scalex="-0.999938964844" scaley="1.0" flags="0x1004"/>
    </TTGlyph>
    <TTGlyph name="bar" xMin="344" yMin="-187" xMax="498" yMax="1780">
      <contour>
        <pt x="344" y="1780" on="1"/>
        <pt x="498" y="1780" on="1"/>
        <pt x="498" y="-187" on="1"/>
        <pt x="344" y="-187" on="1"/>
      </contour>
    </TTGlyph>
    <TTGlyph name="braceleft" xMin="118" yMin="-195" xMax="823" yMax="1741">
      <contour>
        <pt x="823" y="-167" on="1"/>
        <pt x="702" y="-195" on="0"/>
        <pt x="480" y="-195" on="0"/>
        <pt x="420" y="-176" on="0"/>
        <pt x="402" y="-154" on="1"/>
        <pt x="369" y="-112" on="0"/>
        <pt x="369" y="2" on="1"/>
        <pt x="369" y="585" on="1"/>
        <pt x="369" y="633" on="0"/>
        <pt x="211" y="693" on="1"/>
        <pt x="166" y="710" on="0"/>
        <pt x="118" y="724" on="1"/>
        <pt x="118" y="834" on="1"/>
        <pt x="252" y="879" on="0"/>
        <pt x="291" y="897" on="1"/>
        <pt x="369" y="935" on="0"/>
        <pt x="369" y="969" on="1"/>
        <pt x="369" y="1544" on="1"/>
        <pt x="369" y="1660" on="0"/>
        <pt x="419" y="1722" on="0"/>
        <pt x="480" y="1741" on="0"/>
        <pt x="649" y="1741" on="0"/>
        <pt x="823" y="1721" on="1"/>
        <pt x="823" y="1629" on="1"/>
        <pt x="528" y="1629" on="1"/>
        <pt x="528" y="972" on="1"/>
        <pt x="528" y="923" on="0"/>
        <pt x="491" y="892" on="1"/>
        <pt x="456" y="857" on="0"/>
        <pt x="308" y="789" on="0"/>
        <pt x="283" y="778" on="1"/>
        <pt x="445" y="707" on="0"/>
        <pt x="528" y="624" on="0"/>
        <pt x="528" y="582" on="1"/>
        <pt x="528" y="-82" on="1"/>
        <pt x="823" y="-82" on="1"/>
      </contour>
    </TTGlyph>
    <TTGlyph name="braceright" xMin="163" yMin="-195" xMax="868" yMax="1741">
      <component glyphName="braceleft" x="986" y="0" scalex="-0.999938964844" scaley="1.0" flags="0x1004"/>
    </TTGlyph>
    <TTGlyph name="bracketleft" xMin="226" yMin="-191" xMax="688" yMax="1737">
      <contour>
        <pt x="688" y="-171" on="1"/>
        <pt x="550" y="-191" on="0"/>
        <pt x="330" y="-191" on="0"/>
        <pt x="272" y="-173" on="0"/>
        <pt x="226" y="-113" on="0"/>
        <pt x="226" y="2" on="1"/>
        <pt x="226" y="1544" on="1"/>
        <pt x="226" y="1659" on="0"/>
        <pt x="272" y="1719" on="0"/>
        <pt x="330" y="1737" on="0"/>
        <pt x="461" y="1737" on="0"/>
        <pt x="688" y="1717" on="1"/>
        <pt x="688" y="1627" on="1"/>
        <pt x="386" y="1627" on="1"/>
        <pt x="386" y="-82" on="1"/>
        <pt x="688" y="-84" on="1"/>
      </contour>
    </TTGlyph>
    <TTGlyph name="bracketright" xMin="153" yMin="-191" xMax="615" yMax="1737">
      <component glyphName="bracketleft" x="841" y="0" scalex="-0.999938964844" scaley="1.0" flags="0x1004"/>
    </TTGlyph>
    <TTGlyph name="breve" xMin="48" yMin="1335" xMax="726" yMax="1694">
      <contour>
        <pt x="595" y="1397" on="0"/>
        <pt x="466" y="1335" on="0"/>
        <pt x="304" y="1335" on="0"/>
        <pt x="239" y="1366" on="1"/>
        <pt x="111" y="1427" on="0"/>
        <pt x="66" y="1562" on="1"/>
        <pt x="48" y="1615" on="0"/>
        <pt x="48" y="1681" on="0"/>
        <pt x="49" y="1694" on="1"/>
        <pt x="167" y="1694" on="1"/>
        <pt x="167" y="1624" on="0"/>
        <pt x="193" y="1579" on="1"/>
        <pt x="259" y="1465" on="0"/>
        <pt x="368" y="1465" on="1"/>
        <pt x="544" y="1465" on="0"/>
        <pt x="596" y="1612" on="1"/>
        <pt x="611" y="1655" on="0"/>
        <pt x="611" y="1694" on="1"/>
        <pt x="725" y="1694" on="1"/>
        <pt x="726" y="1682" on="0"/>
        <pt x="726" y="1615" on="0"/>
        <pt x="685" y="1498" on="0"/>
      </contour>
    </TTGlyph>
    <TTGlyph name="breve.cap" xMin="48" yMin="1642" xMax="725" yMax="1967">
      <contour>
        <pt x="595" y="1695" on="0"/>
        <pt x="466" y="1642" on="0"/>
        <pt x="303" y="1642" on="0"/>
        <pt x="238" y="1668" on="1"/>
        <pt x="108" y="1721" on="0"/>
        <pt x="65" y="1843" on="1"/>
        <pt x="48" y="1891" on="0"/>
        <pt x="48" y="1954" on="0"/>
        <pt x="49" y="1967" on="1"/>
        <pt x="166" y="1967" on="1"/>
        <pt x="166" y="1868" on="0"/>
        <pt x="244" y="1813" on="1"/>
        <pt x="299" y="1774" on="0"/>
        <pt x="379" y="1774" on="1"/>
        <pt x="510" y="1774" on="0"/>
        <pt x="569" y="1853" on="1"/>
        <pt x="610" y="1908" on="0"/>
        <pt x="610" y="1967" on="1"/>
        <pt x="724" y="1967" on="1"/>
        <pt x="725" y="1957" on="0"/>
        <pt x="725" y="1893" on="0"/>
        <pt x="684" y="1784" on="0"/>
      </contour>
    </TTGlyph>
    <TTGlyph name="brokenbar" xMin="344" yMin="-186" xMax="498" yMax="1780">
      <contour>
        <pt x="344" y="1780" on="1"/>
        <pt x="498" y="1780" on="1"/>
        <pt x="498" y="946" on="1"/>
        <pt x="344" y="946" on="1"/>
      </contour>
      <contour>
        <pt x="344" y="645" on="1"/>
        <pt x="498" y="645" on="1"/>
        <pt x="498" y="-186" on="1"/>
        <pt x="344" y="-186" on="1"/>
      </contour>
    </TTGlyph>
    <TTGlyph name="bullet" xMin="255" yMin="548" xMax="597" yMax="902">
      <contour>
        <pt x="418" y="548" on="1"/>
        <pt x="348" y="548" on="0"/>
        <pt x="255" y="648" on="0"/>
        <pt x="255" y="794" on="0"/>
        <pt x="365" y="902" on="0"/>
        <pt x="434" y="902" on="1"/>
        <pt x="504" y="902" on="0"/>
        <pt x="597" y="805" on="0"/>
        <pt x="597" y="656" on="0"/>
        <pt x="489" y="548" on="0"/>
      </contour>
    </TTGlyph>
    <TTGlyph name="c" xMin="106" yMin="-16" xMax="947" yMax="1156">
      <contour>
        <pt x="892" y="965" on="1"/>
        <pt x="808" y="1027" on="0"/>
        <pt x="485" y="1027" on="0"/>
        <pt x="268" y="791" on="0"/>
        <pt x="268" y="352" on="0"/>
        <pt x="469" y="110" on="0"/>
        <pt x="794" y="110" on="0"/>
        <pt x="912" y="189" on="1"/>
        <pt x="947" y="93" on="1"/>
        <pt x="829" y="-16" on="0"/>
        <pt x="369" y="-16" on="0"/>
        <pt x="106" y="303" on="0"/>
        <pt x="106" y="820" on="0"/>
        <pt x="388" y="1156" on="0"/>
        <pt x="644" y="1156" on="1"/>
        <pt x="782" y="1156" on="0"/>
        <pt x="880" y="1118" on="1"/>
        <pt x="906" y="1107" on="0"/>
        <pt x="921" y="1097" on="1"/>
      </contour>
    </TTGlyph>
    <TTGlyph name="cacute" xMin="106" yMin="-16" xMax="951" yMax="1781">
      <component glyphName="acute" x="444" y="0" flags="0x1004"/>
      <component glyphName="c" x="0" y="0" flags="0x1004"/>
    </TTGlyph>
    <TTGlyph name="caron" xMin="48" yMin="1301" xMax="785" yMax="1691">
      <contour>
        <pt x="48" y="1648" on="1"/>
        <pt x="145" y="1691" on="1"/>
        <pt x="419" y="1428" on="1"/>
        <pt x="682" y="1691" on="1"/>
        <pt x="785" y="1647" on="1"/>
        <pt x="494" y="1301" on="1"/>
        <pt x="345" y="1301" on="1"/>
      </contour>
    </TTGlyph>
    <TTGlyph name="caron.cap" xMin="49" yMin="1667" xMax="730" yMax="1982">
      <contour>
        <pt x="49" y="1936" on="1"/>
        <pt x="146" y="1982" on="1"/>
        <pt x="390" y="1780" on="1"/>
        <pt x="638" y="1982" on="1"/>
        <pt x="730" y="1938" on="1"/>
        <pt x="465" y="1667" on="1"/>
        <pt x="317" y="1667" on="1"/>
      </contour>
    </TTGlyph>
    <TTGlyph name="caronvertical" xMin="55" yMin="1037" xMax="265" yMax="1685">
      <contour>
        <pt x="62" y="1607" on="1"/>
        <pt x="72" y="1644" on="1"/>
        <pt x="205" y="1685" on="1"/>
        <pt x="265" y="1632" on="0"/>
        <pt x="265" y="1256" on="0"/>
        <pt x="192" y="1109" on="1"/>
        <pt x="170" y="1066" on="0"/>
        <pt x="146" y="1037" on="1"/>
        <pt x="62" y="1063" on="1"/>
        <pt x="55" y="1086" on="1"/>
        <pt x="63" y="1110" on="0"/>
        <pt x="74" y="1136" on="1"/>
        <pt x="115" y="1239" on="0"/>
        <pt x="115" y="1540" on="0"/>
      </contour>
    </TTGlyph>
    <TTGlyph name="ccaron" xMin="106" yMin="-16" xMax="983" yMax="1712">
      <component glyphName="caron" x="198" y="21" flags="0x1004"/>
      <component glyphName="c" x="0" y="0" flags="0x1004"/>
    </TTGlyph>
    <TTGlyph name="ccedilla" xMin="106" yMin="-464" xMax="947" yMax="1156">
      <contour>
        <pt x="304" y="-327" on="1"/>
        <pt x="333" y="-345" on="0"/>
        <pt x="454" y="-345" on="0"/>
        <pt x="493" y="-307" on="1"/>
        <pt x="540" y="-261" on="0"/>
        <pt x="540" y="-122" on="1"/>
        <pt x="540" y="-57" on="0"/>
        <pt x="524" y="-11" on="1"/>
        <pt x="328" y="15" on="0"/>
        <pt x="106" y="324" on="0"/>
        <pt x="106" y="820" on="0"/>
        <pt x="388" y="1156" on="0"/>
        <pt x="644" y="1156" on="1"/>
        <pt x="782" y="1156" on="0"/>
        <pt x="880" y="1118" on="1"/>
        <pt x="906" y="1107" on="0"/>
        <pt x="921" y="1097" on="1"/>
        <pt x="892" y="965" on="1"/>
        <pt x="808" y="1027" on="0"/>
        <pt x="485" y="1027" on="0"/>
        <pt x="268" y="791" on="0"/>
        <pt x="268" y="352" on="0"/>
        <pt x="469" y="110" on="0"/>
        <pt x="794" y="110" on="0"/>
        <pt x="912" y="189" on="1"/>
        <pt x="947" y="93" on="1"/>
        <pt x="839" y="-4" on="0"/>
        <pt x="631" y="-15" on="1"/>
        <pt x="662" y="-85" on="0"/>
        <pt x="662" y="-188" on="1"/>
        <pt x="662" y="-405" on="0"/>
        <pt x="515" y="-452" on="1"/>
        <pt x="475" y="-464" on="0"/>
        <pt x="444" y="-464" on="1"/>
        <pt x="334" y="-464" on="0"/>
        <pt x="292" y="-436" on="1"/>
      </contour>
    </TTGlyph>
    <TTGlyph name="ccircumflex" xMin="106" yMin="-16" xMax="982" yMax="1692">
      <component glyphName="circumflex" x="197" y="0" flags="0x1004"/>
      <component glyphName="c" x="0" y="0" flags="0x1004"/>
    </TTGlyph>
    <TTGlyph name="cdotaccent" xMin="106" yMin="-16" xMax="947" yMax="1630">
      <component glyphName="c" x="0" y="0" flags="0x1204"/>
      <component glyphName="dotaccent" x="450" y="0" flags="0x1004"/>
    </TTGlyph>
    <TTGlyph name="cedilla" xMin="48" yMin="-464" xMax="418" yMax="25">
      <contour>
        <pt x="293" y="-180" on="1"/>
        <pt x="296" y="-146" on="0"/>
        <pt x="296" y="-41" on="0"/>
        <pt x="268" y="21" on="1"/>
        <pt x="332" y="25" on="1"/>
        <pt x="366" y="21" on="1"/>
        <pt x="418" y="-48" on="0"/>
        <pt x="418" y="-188" on="1"/>
        <pt x="418" y="-405" on="0"/>
        <pt x="271" y="-452" on="1"/>
        <pt x="231" y="-464" on="0"/>
        <pt x="200" y="-464" on="1"/>
        <pt x="90" y="-464" on="0"/>
        <pt x="48" y="-436" on="1"/>
        <pt x="60" y="-327" on="1"/>
        <pt x="89" y="-345" on="0"/>
        <pt x="210" y="-345" on="0"/>
        <pt x="288" y="-269" on="0"/>
      </contour>
    </TTGlyph>
    <TTGlyph name="cent" xMin="170" yMin="-216" xMax="1011" yMax="1373">
      <contour>
        <pt x="956" y="965" on="1"/>
        <pt x="872" y="1027" on="0"/>
        <pt x="549" y="1027" on="0"/>
        <pt x="332" y="791" on="0"/>
        <pt x="332" y="352" on="0"/>
        <pt x="533" y="110" on="0"/>
        <pt x="858" y="110" on="0"/>
        <pt x="976" y="189" on="1"/>
        <pt x="1011" y="93" on="1"/>
        <pt x="910" y="1" on="0"/>
        <pt x="715" y="-14" on="1"/>
        <pt x="712" y="-216" on="1"/>
        <pt x="597" y="-216" on="1"/>
        <pt x="601" y="-12" on="1"/>
        <pt x="398" y="9" on="0"/>
        <pt x="170" y="321" on="0"/>
        <pt x="170" y="801" on="0"/>
        <pt x="417" y="1128" on="0"/>
        <pt x="640" y="1152" on="1"/>
        <pt x="646" y="1373" on="1"/>
        <pt x="760" y="1373" on="1"/>
        <pt x="754" y="1154" on="1"/>
        <pt x="917" y="1144" on="0"/>
        <pt x="985" y="1097" on="1"/>
      </contour>
    </TTGlyph>
    <TTGlyph name="circumflex" xMin="48" yMin="1302" xMax="785" yMax="1692">
      <contour>
        <pt x="48" y="1345" on="1"/>
        <pt x="345" y="1692" on="1"/>
        <pt x="494" y="1692" on="1"/>
        <pt x="785" y="1346" on="1"/>
        <pt x="682" y="1302" on="1"/>
        <pt x="419" y="1565" on="1"/>
        <pt x="145" y="1302" on="1"/>
      </contour>
    </TTGlyph>
    <TTGlyph name="circumflex.cap" xMin="49" yMin="1639" xMax="755" yMax="1982">
      <contour>
        <pt x="49" y="1684" on="1"/>
        <pt x="326" y="1982" on="1"/>
        <pt x="475" y="1982" on="1"/>
        <pt x="755" y="1686" on="1"/>
        <pt x="645" y="1639" on="1"/>
        <pt x="401" y="1862" on="1"/>
        <pt x="153" y="1639" on="1"/>
      </contour>
    </TTGlyph>
    <TTGlyph name="colon" xMin="184" yMin="-16" xMax="417" yMax="1073">
      <component glyphName="period" x="0" y="0" flags="0x1204"/>
      <component glyphName="period" x="0" y="824" flags="0x1004"/>
    </TTGlyph>
    <TTGlyph name="comma" xMin="164" yMin="-499" xMax="465" yMax="258">
      <contour>
        <pt x="201" y="159" on="1"/>
        <pt x="306" y="258" on="1"/>
        <pt x="386" y="221" on="0"/>
        <pt x="465" y="50" on="0"/>
        <pt x="465" y="-40" on="1"/>
        <pt x="465" y="-205" on="0"/>
        <pt x="322" y="-455" on="0"/>
        <pt x="221" y="-499" on="1"/>
        <pt x="165" y="-430" on="1"/>
        <pt x="164" y="-409" on="1"/>
        <pt x="256" y="-354" on="0"/>
        <pt x="294" y="-206" on="1"/>
        <pt x="307" y="-155" on="0"/>
        <pt x="307" y="-110" on="1"/>
        <pt x="307" y="-34" on="0"/>
        <pt x="244" y="96" on="0"/>
        <pt x="201" y="111" on="1"/>
      </contour>
    </TTGlyph>
    <TTGlyph name="commaaccent" xMin="57" yMin="-560" xMax="272" yMax="-97">
      <contour>
        <pt x="177" y="-97" on="1"/>
        <pt x="239" y="-125" on="0"/>
        <pt x="264" y="-230" on="1"/>
        <pt x="272" y="-265" on="0"/>
        <pt x="272" y="-310" on="1"/>
        <pt x="272" y="-396" on="0"/>
        <pt x="183" y="-539" on="0"/>
        <pt x="134" y="-560" on="1"/>
        <pt x="76" y="-528" on="1"/>
        <pt x="76" y="-508" on="1"/>
        <pt x="129" y="-460" on="0"/>
        <pt x="129" y="-265" on="0"/>
        <pt x="84" y="-222" on="1"/>
        <pt x="71" y="-209" on="0"/>
        <pt x="57" y="-205" on="1"/>
        <pt x="57" y="-167" on="1"/>
      </contour>
    </TTGlyph>
    <TTGlyph name="copyright" xMin="204" yMin="95" xMax="1929" yMax="1831">
      <contour>
        <pt x="204" y="964" on="1"/>
        <pt x="204" y="1324" on="0"/>
        <pt x="455" y="1578" on="1"/>
        <pt x="533" y="1657" on="0"/>
        <pt x="629" y="1713" on="1"/>
        <pt x="831" y="1831" on="0"/>
        <pt x="1066" y="1831" on="1"/>
        <pt x="1301" y="1831" on="0"/>
        <pt x="1697" y="1600" on="0"/>
        <pt x="1929" y="1202" on="0"/>
        <pt x="1929" y="965" on="1"/>
        <pt x="1929" y="727" on="0"/>
        <pt x="1697" y="328" on="0"/>
        <pt x="1302" y="95" on="0"/>
        <pt x="1066" y="95" on="1"/>
        <pt x="830" y="95" on="0"/>
        <pt x="436" y="327" on="0"/>
        <pt x="204" y="727" on="0"/>
      </contour>
      <contour>
        <pt x="313" y="965" on="1"/>
        <pt x="313" y="643" on="0"/>
        <pt x="529" y="420" on="1"/>
        <pt x="667" y="276" on="0"/>
        <pt x="862" y="222" on="1"/>
        <pt x="959" y="194" on="0"/>
        <pt x="1066" y="194" on="1"/>
        <pt x="1276" y="194" on="0"/>
        <pt x="1621" y="400" on="0"/>
        <pt x="1819" y="754" on="0"/>
        <pt x="1819" y="965" on="1"/>
        <pt x="1819" y="1285" on="0"/>
        <pt x="1603" y="1508" on="1"/>
        <pt x="1465" y="1652" on="0"/>
        <pt x="1270" y="1706" on="1"/>
        <pt x="1173" y="1734" on="0"/>
        <pt x="1066" y="1734" on="1"/>
        <pt x="856" y="1734" on="0"/>
        <pt x="511" y="1528" on="0"/>
        <pt x="313" y="1174" on="0"/>
      </contour>
      <contour>
        <pt x="1342" y="667" on="1"/>
        <pt x="1377" y="571" on="1"/>
        <pt x="1331" y="534" on="0"/>
        <pt x="1171" y="481" on="0"/>
        <pt x="1070" y="481" on="1"/>
        <pt x="871" y="481" on="0"/>
        <pt x="627" y="761" on="0"/>
        <pt x="627" y="1176" on="0"/>
        <pt x="883" y="1451" on="0"/>
        <pt x="1115" y="1451" on="1"/>
        <pt x="1257" y="1451" on="0"/>
        <pt x="1357" y="1387" on="1"/>
        <pt x="1331" y="1263" on="1"/>
        <pt x="1235" y="1331" on="0"/>
        <pt x="950" y="1331" on="0"/>
        <pt x="775" y="1133" on="0"/>
        <pt x="775" y="804" on="0"/>
        <pt x="947" y="601" on="0"/>
        <pt x="1222" y="601" on="0"/>
      </contour>
    </TTGlyph>
    <TTGlyph name="currency" xMin="216" yMin="180" xMax="1318" yMax="1321">
      <contour>
        <pt x="1016" y="388" on="1"/>
        <pt x="902" y="310" on="0"/>
        <pt x="628" y="310" on="0"/>
        <pt x="516" y="385" on="1"/>
        <pt x="313" y="180" on="1"/>
        <pt x="216" y="277" on="1"/>
        <pt x="416" y="477" on="1"/>
        <pt x="322" y="596" on="0"/>
        <pt x="322" y="751" on="1"/>
        <pt x="322" y="905" on="0"/>
        <pt x="415" y="1023" on="1"/>
        <pt x="216" y="1223" on="1"/>
        <pt x="311" y="1321" on="1"/>
        <pt x="514" y="1116" on="1"/>
        <pt x="628" y="1192" on="0"/>
        <pt x="902" y="1192" on="0"/>
        <pt x="1016" y="1114" on="1"/>
        <pt x="1221" y="1318" on="1"/>
        <pt x="1318" y="1222" on="1"/>
        <pt x="1115" y="1019" on="1"/>
        <pt x="1206" y="900" on="0"/>
        <pt x="1206" y="599" on="0"/>
        <pt x="1114" y="482" on="1"/>
        <pt x="1314" y="282" on="1"/>
        <pt x="1218" y="186" on="1"/>
      </contour>
      <contour>
        <pt x="457" y="751" on="1"/>
        <pt x="457" y="620" on="0"/>
        <pt x="638" y="435" on="0"/>
        <pt x="891" y="435" on="0"/>
        <pt x="1070" y="621" on="0"/>
        <pt x="1070" y="751" on="1"/>
        <pt x="1070" y="881" on="0"/>
        <pt x="891" y="1067" on="0"/>
        <pt x="638" y="1067" on="0"/>
        <pt x="457" y="882" on="0"/>
      </contour>
    </TTGlyph>
    <TTGlyph name="d" xMin="102" yMin="-16" xMax="1059" yMax="1664">
      <contour>
        <pt x="902" y="126" on="1"/>
        <pt x="760" y="-16" on="0"/>
        <pt x="361" y="-16" on="0"/>
        <pt x="102" y="260" on="0"/>
        <pt x="102" y="807" on="0"/>
        <pt x="417" y="1156" on="0"/>
        <pt x="674" y="1156" on="1"/>
        <pt x="796" y="1156" on="0"/>
        <pt x="895" y="1118" on="1"/>
        <pt x="892" y="1186" on="1"/>
        <pt x="892" y="1664" on="1"/>
        <pt x="1059" y="1664" on="1"/>
        <pt x="1059" y="-12" on="1"/>
        <pt x="987" y="-12" on="1"/>
        <pt x="922" y="-12" on="0"/>
        <pt x="908" y="20" on="1"/>
        <pt x="902" y="33" on="0"/>
        <pt x="902" y="57" on="1"/>
      </contour>
      <contour>
        <pt x="892" y="978" on="1"/>
        <pt x="827" y="1034" on="0"/>
        <pt x="490" y="1034" on="0"/>
        <pt x="273" y="777" on="0"/>
        <pt x="273" y="334" on="0"/>
        <pt x="440" y="115" on="0"/>
        <pt x="759" y="115" on="0"/>
        <pt x="892" y="229" on="1"/>
      </contour>
    </TTGlyph>
    <TTGlyph name="dagger" xMin="126" yMin="200" xMax="900" yMax="1658">
      <contour>
        <pt x="438" y="1149" on="1"/>
        <pt x="126" y="1147" on="1"/>
        <pt x="127" y="1272" on="1"/>
        <pt x="438" y="1269" on="1"/>
        <pt x="435" y="1658" on="1"/>
        <pt x="591" y="1658" on="1"/>
        <pt x="588" y="1269" on="1"/>
        <pt x="900" y="1272" on="1"/>
        <pt x="900" y="1147" on="1"/>
        <pt x="588" y="1149" on="1"/>
        <pt x="579" y="200" on="1"/>
        <pt x="446" y="200" on="1"/>
      </contour>
    </TTGlyph>
    <TTGlyph name="daggerdbl" xMin="126" yMin="-356" xMax="900" yMax="1658">
      <contour>
        <pt x="126" y="622" on="1"/>
        <pt x="437" y="620" on="1"/>
        <pt x="437" y="1149" on="1"/>
        <pt x="126" y="1147" on="1"/>
        <pt x="127" y="1272" on="1"/>
        <pt x="437" y="1269" on="1"/>
        <pt x="434" y="1658" on="1"/>
        <pt x="591" y="1658" on="1"/>
        <pt x="587" y="1269" on="1"/>
        <pt x="900" y="1272" on="1"/>
        <pt x="900" y="1147" on="1"/>
        <pt x="587" y="1149" on="1"/>
        <pt x="587" y="620" on="1"/>
        <pt x="899" y="622" on="1"/>
        <pt x="899" y="497" on="1"/>
        <pt x="587" y="500" on="1"/>
        <pt x="575" y="-356" on="1"/>
        <pt x="449" y="-356" on="1"/>
        <pt x="437" y="500" on="1"/>
        <pt x="126" y="497" on="1"/>
      </contour>
    </TTGlyph>
    <TTGlyph name="dcaron" xMin="102" yMin="-16" xMax="1503" yMax="1685">
      <component glyphName="d" x="0" y="0" flags="0x1004"/>
      <component glyphName="caronvertical" x="1238" y="0" flags="0x1004"/>
    </TTGlyph>
    <TTGlyph name="dcroat" xMin="102" yMin="-16" xMax="1214" yMax="1664">
      <contour>
        <pt x="902" y="126" on="1"/>
        <pt x="760" y="-16" on="0"/>
        <pt x="361" y="-16" on="0"/>
        <pt x="102" y="260" on="0"/>
        <pt x="102" y="807" on="0"/>
        <pt x="417" y="1156" on="0"/>
        <pt x="674" y="1156" on="1"/>
        <pt x="796" y="1156" on="0"/>
        <pt x="895" y="1118" on="1"/>
        <pt x="892" y="1186" on="1"/>
        <pt x="892" y="1325" on="1"/>
        <pt x="598" y="1325" on="1"/>
        <pt x="598" y="1433" on="1"/>
        <pt x="892" y="1433" on="1"/>
        <pt x="892" y="1664" on="1"/>
        <pt x="1059" y="1664" on="1"/>
        <pt x="1059" y="1433" on="1"/>
        <pt x="1214" y="1433" on="1"/>
        <pt x="1214" y="1325" on="1"/>
        <pt x="1059" y="1325" on="1"/>
        <pt x="1059" y="-12" on="1"/>
        <pt x="987" y="-12" on="1"/>
        <pt x="922" y="-12" on="0"/>
        <pt x="908" y="20" on="1"/>
        <pt x="902" y="33" on="0"/>
        <pt x="902" y="57" on="1"/>
      </contour>
      <contour>
        <pt x="892" y="978" on="1"/>
        <pt x="827" y="1034" on="0"/>
        <pt x="490" y="1034" on="0"/>
        <pt x="273" y="777" on="0"/>
        <pt x="273" y="334" on="0"/>
        <pt x="440" y="115" on="0"/>
        <pt x="759" y="115" on="0"/>
        <pt x="892" y="229" on="1"/>
      </contour>
    </TTGlyph>
    <TTGlyph name="degree" xMin="121" yMin="947" xMax="787" yMax="1609">
      <contour>
        <pt x="317" y="947" on="0"/>
        <pt x="121" y="1136" on="0"/>
        <pt x="121" y="1421" on="0"/>
        <pt x="313" y="1609" on="0"/>
        <pt x="594" y="1609" on="0"/>
        <pt x="787" y="1419" on="0"/>
        <pt x="787" y="1136" on="0"/>
        <pt x="598" y="947" on="0"/>
      </contour>
      <contour>
        <pt x="550" y="1050" on="0"/>
        <pt x="677" y="1180" on="0"/>
        <pt x="677" y="1373" on="0"/>
        <pt x="548" y="1505" on="0"/>
        <pt x="359" y="1505" on="0"/>
        <pt x="232" y="1375" on="0"/>
        <pt x="232" y="1182" on="0"/>
        <pt x="361" y="1050" on="0"/>
      </contour>
    </TTGlyph>
    <TTGlyph name="dieresis" xMin="57" yMin="1408" xMax="725" yMax="1633">
      <contour>
        <pt x="626" y="1633" on="1"/>
        <pt x="725" y="1633" on="0"/>
        <pt x="725" y="1528" on="1"/>
        <pt x="725" y="1474" on="0"/>
        <pt x="656" y="1408" on="0"/>
        <pt x="566" y="1408" on="0"/>
        <pt x="509" y="1463" on="0"/>
        <pt x="509" y="1502" on="1"/>
        <pt x="509" y="1565" on="0"/>
        <pt x="581" y="1633" on="0"/>
      </contour>
      <contour>
        <pt x="175" y="1633" on="1"/>
        <pt x="274" y="1633" on="0"/>
        <pt x="274" y="1528" on="1"/>
        <pt x="274" y="1474" on="0"/>
        <pt x="205" y="1408" on="0"/>
        <pt x="115" y="1408" on="0"/>
        <pt x="57" y="1463" on="0"/>
        <pt x="57" y="1502" on="1"/>
        <pt x="57" y="1565" on="0"/>
        <pt x="129" y="1633" on="0"/>
      </contour>
    </TTGlyph>
    <TTGlyph name="dieresis.cap" xMin="50" yMin="1690" xMax="755" yMax="1922">
      <contour>
        <pt x="650" y="1922" on="1"/>
        <pt x="755" y="1922" on="0"/>
        <pt x="755" y="1813" on="1"/>
        <pt x="755" y="1727" on="0"/>
        <pt x="680" y="1698" on="1"/>
        <pt x="658" y="1690" on="0"/>
        <pt x="590" y="1690" on="0"/>
        <pt x="529" y="1745" on="0"/>
        <pt x="529" y="1786" on="1"/>
        <pt x="529" y="1851" on="0"/>
        <pt x="603" y="1922" on="0"/>
      </contour>
      <contour>
        <pt x="171" y="1922" on="1"/>
        <pt x="275" y="1922" on="0"/>
        <pt x="275" y="1813" on="1"/>
        <pt x="275" y="1727" on="0"/>
        <pt x="200" y="1698" on="1"/>
        <pt x="178" y="1690" on="0"/>
        <pt x="111" y="1690" on="0"/>
        <pt x="50" y="1745" on="0"/>
        <pt x="50" y="1786" on="1"/>
        <pt x="50" y="1852" on="0"/>
        <pt x="123" y="1922" on="0"/>
      </contour>
    </TTGlyph>
    <TTGlyph name="divide" xMin="232" yMin="261" xMax="1161" yMax="1299">
      <contour>
        <pt x="819" y="1196" on="1"/>
        <pt x="819" y="1098" on="0"/>
        <pt x="741" y="1067" on="1"/>
        <pt x="718" y="1058" on="0"/>
        <pt x="649" y="1058" on="0"/>
        <pt x="587" y="1116" on="0"/>
        <pt x="587" y="1157" on="1"/>
        <pt x="587" y="1226" on="0"/>
        <pt x="663" y="1299" on="0"/>
        <pt x="766" y="1299" on="0"/>
        <pt x="819" y="1236" on="0"/>
      </contour>
      <contour>
        <pt x="232" y="839" on="1"/>
        <pt x="1161" y="839" on="1"/>
        <pt x="1161" y="709" on="1"/>
        <pt x="232" y="709" on="1"/>
      </contour>
      <contour>
        <pt x="649" y="261" on="0"/>
        <pt x="586" y="319" on="0"/>
        <pt x="586" y="360" on="1"/>
        <pt x="586" y="428" on="0"/>
        <pt x="662" y="501" on="0"/>
        <pt x="765" y="501" on="0"/>
        <pt x="818" y="438" on="0"/>
        <pt x="818" y="398" on="1"/>
        <pt x="818" y="332" on="0"/>
        <pt x="744" y="261" on="0"/>
      </contour>
    </TTGlyph>
    <TTGlyph name="dollar" xMin="238" yMin="-235" xMax="1170" yMax="1752">
      <contour>
        <pt x="1058" y="1323" on="1"/>
        <pt x="930" y="1405" on="0"/>
        <pt x="732" y="1405" on="1"/>
        <pt x="597" y="1405" on="0"/>
        <pt x="404" y="1291" on="0"/>
        <pt x="404" y="1066" on="0"/>
        <pt x="492" y="986" on="1"/>
        <pt x="555" y="927" on="0"/>
        <pt x="817" y="802" on="0"/>
        <pt x="894" y="760" on="1"/>
        <pt x="1170" y="611" on="0"/>
        <pt x="1170" y="385" on="1"/>
        <pt x="1170" y="204" on="0"/>
        <pt x="936" y="1" on="0"/>
        <pt x="735" y="-14" on="1"/>
        <pt x="733" y="-235" on="1"/>
        <pt x="609" y="-235" on="1"/>
        <pt x="611" y="-14" on="1"/>
        <pt x="427" y="-6" on="0"/>
        <pt x="292" y="47" on="1"/>
        <pt x="256" y="61" on="0"/>
        <pt x="238" y="74" on="1"/>
        <pt x="279" y="213" on="1"/>
        <pt x="378" y="150" on="0"/>
        <pt x="550" y="126" on="1"/>
        <pt x="605" y="119" on="0"/>
        <pt x="672" y="119" on="1"/>
        <pt x="822" y="119" on="0"/>
        <pt x="1004" y="243" on="0"/>
        <pt x="1004" y="484" on="0"/>
        <pt x="902" y="565" on="1"/>
        <pt x="834" y="619" on="0"/>
        <pt x="566" y="740" on="0"/>
        <pt x="423" y="827" on="0"/>
        <pt x="367" y="883" on="1"/>
        <pt x="242" y="1008" on="0"/>
        <pt x="242" y="1335" on="0"/>
        <pt x="370" y="1434" on="1"/>
        <pt x="478" y="1516" on="0"/>
        <pt x="653" y="1534" on="1"/>
        <pt x="657" y="1752" on="1"/>
        <pt x="781" y="1752" on="1"/>
        <pt x="778" y="1537" on="1"/>
        <pt x="980" y="1527" on="0"/>
        <pt x="1093" y="1456" on="1"/>
      </contour>
    </TTGlyph>
    <TTGlyph name="dotaccent" xMin="50" yMin="1388" xMax="280" yMax="1630">
      <contour>
        <pt x="280" y="1527" on="1"/>
        <pt x="280" y="1428" on="0"/>
        <pt x="203" y="1397" on="1"/>
        <pt x="181" y="1388" on="0"/>
        <pt x="158" y="1388" on="1"/>
        <pt x="111" y="1388" on="0"/>
        <pt x="50" y="1451" on="0"/>
        <pt x="50" y="1490" on="1"/>
        <pt x="50" y="1557" on="0"/>
        <pt x="126" y="1630" on="0"/>
        <pt x="227" y="1630" on="0"/>
        <pt x="280" y="1566" on="0"/>
      </contour>
    </TTGlyph>
    <TTGlyph name="dotaccent.cap" xMin="51" yMin="1691" xMax="278" yMax="1926">
      <contour>
        <pt x="278" y="1826" on="1"/>
        <pt x="278" y="1731" on="0"/>
        <pt x="203" y="1700" on="1"/>
        <pt x="181" y="1691" on="0"/>
        <pt x="113" y="1691" on="0"/>
        <pt x="51" y="1748" on="0"/>
        <pt x="51" y="1788" on="1"/>
        <pt x="51" y="1852" on="0"/>
        <pt x="125" y="1926" on="0"/>
        <pt x="227" y="1926" on="0"/>
        <pt x="278" y="1864" on="0"/>
      </contour>
    </TTGlyph>
    <TTGlyph name="dotlessi" xMin="211" yMin="0" xMax="377" yMax="1139">
      <contour>
        <pt x="211" y="1139" on="1"/>
        <pt x="377" y="1139" on="1"/>
        <pt x="377" y="0" on="1"/>
        <pt x="211" y="0" on="1"/>
      </contour>
    </TTGlyph>
    <TTGlyph name="dotlessj" xMin="-95" yMin="-507" xMax="377" yMax="1139">
      <contour>
        <pt x="-95" y="-370" on="1"/>
        <pt x="-44" y="-389" on="0"/>
        <pt x="21" y="-389" on="1"/>
        <pt x="121" y="-389" on="0"/>
        <pt x="211" y="-224" on="0"/>
        <pt x="211" y="-41" on="1"/>
        <pt x="211" y="1139" on="1"/>
        <pt x="377" y="1139" on="1"/>
        <pt x="377" y="23" on="1"/>
        <pt x="377" y="-385" on="0"/>
        <pt x="186" y="-476" on="1"/>
        <pt x="123" y="-507" on="0"/>
        <pt x="-69" y="-507" on="0"/>
        <pt x="-95" y="-494" on="1"/>
      </contour>
    </TTGlyph>
    <TTGlyph name="e" xMin="104" yMin="-16" xMax="1024" yMax="1156">
      <contour>
        <pt x="986" y="89" on="1"/>
        <pt x="858" y="-16" on="0"/>
        <pt x="568" y="-16" on="1"/>
        <pt x="481" y="-16" on="0"/>
        <pt x="388" y="24" on="1"/>
        <pt x="104" y="145" on="0"/>
        <pt x="104" y="565" on="1"/>
        <pt x="104" y="829" on="0"/>
        <pt x="377" y="1156" on="0"/>
        <pt x="621" y="1156" on="1"/>
        <pt x="798" y="1156" on="0"/>
        <pt x="1020" y="922" on="0"/>
        <pt x="1022" y="712" on="1"/>
        <pt x="1024" y="598" on="0"/>
        <pt x="1015" y="553" on="1"/>
        <pt x="267" y="553" on="1"/>
        <pt x="267" y="543" on="0"/>
        <pt x="267" y="533" on="1"/>
        <pt x="267" y="312" on="0"/>
        <pt x="380" y="202" on="1"/>
        <pt x="475" y="110" on="0"/>
        <pt x="644" y="110" on="1"/>
        <pt x="766" y="110" on="0"/>
        <pt x="894" y="158" on="1"/>
        <pt x="931" y="171" on="0"/>
        <pt x="954" y="186" on="1"/>
      </contour>
      <contour>
        <pt x="867" y="665" on="1"/>
        <pt x="868" y="686" on="0"/>
        <pt x="868" y="723" on="1"/>
        <pt x="868" y="848" on="0"/>
        <pt x="818" y="930" on="1"/>
        <pt x="752" y="1037" on="0"/>
        <pt x="605" y="1037" on="1"/>
        <pt x="399" y="1037" on="0"/>
        <pt x="314" y="834" on="1"/>
        <pt x="285" y="764" on="0"/>
        <pt x="274" y="665" on="1"/>
      </contour>
    </TTGlyph>
    <TTGlyph name="eacute" xMin="104" yMin="-16" xMax="1024" yMax="1781">
      <component glyphName="acute" x="432" y="0" flags="0x1004"/>
      <component glyphName="e" x="0" y="0" flags="0x1004"/>
    </TTGlyph>
    <TTGlyph name="ebreve" xMin="104" yMin="-16" xMax="1024" yMax="1694">
      <component glyphName="e" x="0" y="0" flags="0x1204"/>
      <component glyphName="breve" x="216" y="0" flags="0x1004"/>
    </TTGlyph>
    <TTGlyph name="ecaron" xMin="104" yMin="-16" xMax="1024" yMax="1712">
      <component glyphName="caron" x="186" y="21" flags="0x1004"/>
      <component glyphName="e" x="0" y="0" flags="0x1004"/>
    </TTGlyph>
    <TTGlyph name="ecircumflex" xMin="104" yMin="-16" xMax="1024" yMax="1692">
      <component glyphName="circumflex" x="185" y="0" flags="0x1004"/>
      <component glyphName="e" x="0" y="0" flags="0x1004"/>
    </TTGlyph>
    <TTGlyph name="edieresis" xMin="104" yMin="-16" xMax="1024" yMax="1633">
      <component glyphName="dieresis" x="213" y="0" flags="0x1004"/>
      <component glyphName="e" x="0" y="0" flags="0x1004"/>
    </TTGlyph>
    <TTGlyph name="edotaccent" xMin="104" yMin="-16" xMax="1024" yMax="1630">
      <component glyphName="e" x="0" y="0" flags="0x1204"/>
      <component glyphName="dotaccent" x="438" y="0" flags="0x1004"/>
    </TTGlyph>
    <TTGlyph name="egrave" xMin="104" yMin="-16" xMax="1024" yMax="1781">
      <component glyphName="e" x="0" y="0" flags="0x1204"/>
      <component glyphName="grave" x="202" y="0" flags="0x1004"/>
    </TTGlyph>
    <TTGlyph name="eight" xMin="157" yMin="-16" xMax="1163" yMax="1565">
      <contour>
        <pt x="247" y="124" on="0"/>
        <pt x="157" y="277" on="0"/>
        <pt x="157" y="361" on="1"/>
        <pt x="157" y="656" on="0"/>
        <pt x="488" y="804" on="1"/>
        <pt x="360" y="879" on="0"/>
        <pt x="217" y="1063" on="0"/>
        <pt x="217" y="1197" on="1"/>
        <pt x="217" y="1374" on="0"/>
        <pt x="477" y="1565" on="0"/>
        <pt x="861" y="1565" on="0"/>
        <pt x="1102" y="1374" on="0"/>
        <pt x="1102" y="1217" on="1"/>
        <pt x="1102" y="1022" on="0"/>
        <pt x="936" y="876" on="1"/>
        <pt x="880" y="826" on="0"/>
        <pt x="803" y="790" on="1"/>
        <pt x="976" y="700" on="0"/>
        <pt x="1102" y="580" on="0"/>
        <pt x="1163" y="462" on="0"/>
        <pt x="1163" y="285" on="0"/>
        <pt x="1082" y="133" on="0"/>
        <pt x="1013" y="83" on="1"/>
        <pt x="876" y="-16" on="0"/>
        <pt x="458" y="-16" on="0"/>
        <pt x="320" y="76" on="1"/>
      </contour>
      <contour>
        <pt x="688" y="851" on="1"/>
        <pt x="800" y="890" on="0"/>
        <pt x="949" y="1082" on="0"/>
        <pt x="949" y="1309" on="0"/>
        <pt x="800" y="1448" on="0"/>
        <pt x="537" y="1448" on="0"/>
        <pt x="371" y="1319" on="0"/>
        <pt x="371" y="1207" on="1"/>
        <pt x="371" y="1046" on="0"/>
        <pt x="568" y="922" on="1"/>
        <pt x="625" y="885" on="0"/>
      </contour>
      <contour>
        <pt x="318" y="260" on="0"/>
        <pt x="500" y="102" on="0"/>
        <pt x="809" y="102" on="0"/>
        <pt x="998" y="248" on="0"/>
        <pt x="998" y="371" on="1"/>
        <pt x="998" y="540" on="0"/>
        <pt x="748" y="667" on="1"/>
        <pt x="677" y="703" on="0"/>
        <pt x="603" y="741" on="1"/>
        <pt x="479" y="695" on="0"/>
        <pt x="318" y="512" on="0"/>
      </contour>
    </TTGlyph>
    <TTGlyph name="ellipsis" xMin="214" yMin="-16" xMax="1770" yMax="244">
      <contour>
        <pt x="1602" y="-16" on="0"/>
        <pt x="1538" y="52" on="0"/>
        <pt x="1536" y="93" on="1"/>
        <pt x="1534" y="161" on="0"/>
        <pt x="1609" y="244" on="0"/>
        <pt x="1647" y="244" on="1"/>
        <pt x="1709" y="244" on="0"/>
        <pt x="1767" y="176" on="0"/>
        <pt x="1768" y="134" on="1"/>
        <pt x="1770" y="65" on="0"/>
        <pt x="1697" y="-16" on="0"/>
      </contour>
      <contour>
        <pt x="873" y="161" on="0"/>
        <pt x="948" y="244" on="0"/>
        <pt x="985" y="244" on="1"/>
        <pt x="1049" y="244" on="0"/>
        <pt x="1107" y="173" on="0"/>
        <pt x="1107" y="123" on="1"/>
        <pt x="1107" y="120" on="0"/>
        <pt x="1107" y="105" on="1"/>
        <pt x="1107" y="63" on="0"/>
        <pt x="1036" y="-16" on="0"/>
        <pt x="940" y="-16" on="0"/>
        <pt x="917" y="10" on="1"/>
        <pt x="877" y="54" on="0"/>
      </contour>
      <contour>
        <pt x="214" y="161" on="0"/>
        <pt x="288" y="244" on="0"/>
        <pt x="325" y="244" on="1"/>
        <pt x="387" y="244" on="0"/>
        <pt x="447" y="173" on="0"/>
        <pt x="447" y="132" on="1"/>
        <pt x="447" y="64" on="0"/>
        <pt x="375" y="-16" on="0"/>
        <pt x="279" y="-16" on="0"/>
        <pt x="256" y="10" on="1"/>
        <pt x="215" y="54" on="0"/>
      </contour>
    </TTGlyph>
    <TTGlyph name="emacron" xMin="104" yMin="-16" xMax="1024" yMax="1576">
      <component glyphName="e" x="0" y="0" flags="0x1204"/>
      <component glyphName="macron" x="283" y="0" flags="0x1004"/>
    </TTGlyph>
    <TTGlyph name="emdash" xMin="240" yMin="705" xMax="2103" yMax="840">
      <contour>
        <pt x="240" y="840" on="1"/>
        <pt x="2103" y="840" on="1"/>
        <pt x="2103" y="705" on="1"/>
        <pt x="240" y="705" on="1"/>
      </contour>
    </TTGlyph>
    <TTGlyph name="endash" xMin="240" yMin="705" xMax="1452" yMax="840">
      <contour>
        <pt x="240" y="840" on="1"/>
        <pt x="1452" y="840" on="1"/>
        <pt x="1452" y="705" on="1"/>
        <pt x="240" y="705" on="1"/>
      </contour>
    </TTGlyph>
    <TTGlyph name="eng" xMin="193" yMin="-507" xMax="1108" yMax="1157">
      <contour>
        <pt x="650" y="-377" on="1"/>
        <pt x="678" y="-389" on="0"/>
        <pt x="808" y="-389" on="0"/>
        <pt x="878" y="-351" on="0"/>
        <pt x="900" y="-309" on="1"/>
        <pt x="942" y="-229" on="0"/>
        <pt x="942" y="-36" on="1"/>
        <pt x="942" y="704" on="1"/>
        <pt x="942" y="887" on="0"/>
        <pt x="841" y="1017" on="0"/>
        <pt x="590" y="1017" on="0"/>
        <pt x="436" y="928" on="1"/>
        <pt x="394" y="904" on="0"/>
        <pt x="361" y="879" on="1"/>
        <pt x="361" y="0" on="1"/>
        <pt x="193" y="0" on="1"/>
        <pt x="193" y="1139" on="1"/>
        <pt x="342" y="1139" on="1"/>
        <pt x="342" y="993" on="1"/>
        <pt x="476" y="1093" on="0"/>
        <pt x="646" y="1138" on="1"/>
        <pt x="717" y="1157" on="0"/>
        <pt x="794" y="1157" on="1"/>
        <pt x="961" y="1157" on="0"/>
        <pt x="1108" y="958" on="0"/>
        <pt x="1108" y="708" on="1"/>
        <pt x="1108" y="-14" on="1"/>
        <pt x="1108" y="-374" on="0"/>
        <pt x="930" y="-474" on="1"/>
        <pt x="871" y="-507" on="0"/>
        <pt x="678" y="-507" on="0"/>
        <pt x="650" y="-493" on="1"/>
      </contour>
    </TTGlyph>
    <TTGlyph name="eogonek" xMin="104" yMin="-512" xMax="1024" yMax="1156">
      <contour>
        <pt x="743" y="-3" on="1"/>
        <pt x="665" y="-16" on="0"/>
        <pt x="481" y="-16" on="0"/>
        <pt x="388" y="24" on="1"/>
        <pt x="104" y="145" on="0"/>
        <pt x="104" y="565" on="1"/>
        <pt x="104" y="829" on="0"/>
        <pt x="377" y="1156" on="0"/>
        <pt x="621" y="1156" on="1"/>
        <pt x="798" y="1156" on="0"/>
        <pt x="1018" y="924" on="0"/>
        <pt x="1024" y="728" on="1"/>
        <pt x="1024" y="598" on="0"/>
        <pt x="1015" y="553" on="1"/>
        <pt x="267" y="553" on="1"/>
        <pt x="267" y="543" on="0"/>
        <pt x="267" y="533" on="1"/>
        <pt x="267" y="312" on="0"/>
        <pt x="380" y="202" on="1"/>
        <pt x="475" y="110" on="0"/>
        <pt x="644" y="110" on="1"/>
        <pt x="766" y="110" on="0"/>
        <pt x="894" y="158" on="1"/>
        <pt x="931" y="171" on="0"/>
        <pt x="954" y="186" on="1"/>
        <pt x="986" y="89" on="1"/>
        <pt x="961" y="71" on="1"/>
        <pt x="963" y="70" on="1"/>
        <pt x="865" y="9" on="0"/>
        <pt x="693" y="-195" on="0"/>
        <pt x="693" y="-277" on="1"/>
        <pt x="693" y="-399" on="0"/>
        <pt x="845" y="-399" on="1"/>
        <pt x="929" y="-397" on="0"/>
        <pt x="1007" y="-358" on="1"/>
        <pt x="1007" y="-450" on="1"/>
        <pt x="924" y="-512" on="0"/>
        <pt x="605" y="-512" on="0"/>
        <pt x="548" y="-400" on="1"/>
        <pt x="489" y="-288" on="0"/>
        <pt x="594" y="-144" on="1"/>
        <pt x="652" y="-63" on="0"/>
      </contour>
      <contour>
        <pt x="867" y="665" on="1"/>
        <pt x="868" y="686" on="0"/>
        <pt x="868" y="723" on="1"/>
        <pt x="868" y="848" on="0"/>
        <pt x="818" y="930" on="1"/>
        <pt x="752" y="1037" on="0"/>
        <pt x="605" y="1037" on="1"/>
        <pt x="399" y="1037" on="0"/>
        <pt x="314" y="834" on="1"/>
        <pt x="285" y="764" on="0"/>
        <pt x="274" y="665" on="1"/>
      </contour>
    </TTGlyph>
    <TTGlyph name="equal" xMin="241" yMin="428" xMax="1156" yMax="1114">
      <contour>
        <pt x="241" y="1114" on="1"/>
        <pt x="1156" y="1114" on="1"/>
        <pt x="1156" y="986" on="1"/>
        <pt x="241" y="986" on="1"/>
      </contour>
      <contour>
        <pt x="241" y="555" on="1"/>
        <pt x="1156" y="555" on="1"/>
        <pt x="1156" y="428" on="1"/>
        <pt x="241" y="428" on="1"/>
      </contour>
    </TTGlyph>
    <TTGlyph name="estimated" xMin="109" yMin="-16" xMax="1274" yMax="1356">
      <contour>
        <pt x="1274" y="832" on="1"/>
        <pt x="1274" y="679" on="0"/>
        <pt x="1263" y="627" on="1"/>
        <pt x="350" y="627" on="1"/>
        <pt x="350" y="259" on="1"/>
        <pt x="474" y="82" on="0"/>
        <pt x="749" y="82" on="1"/>
        <pt x="901" y="82" on="0"/>
        <pt x="1058" y="148" on="1"/>
        <pt x="1100" y="166" on="0"/>
        <pt x="1126" y="182" on="1"/>
        <pt x="1163" y="88" on="1"/>
        <pt x="1064" y="17" on="0"/>
        <pt x="850" y="-8" on="1"/>
        <pt x="788" y="-16" on="0"/>
        <pt x="732" y="-16" on="1"/>
        <pt x="438" y="-16" on="0"/>
        <pt x="109" y="348" on="0"/>
        <pt x="109" y="975" on="0"/>
        <pt x="437" y="1356" on="0"/>
        <pt x="748" y="1356" on="1"/>
        <pt x="963" y="1356" on="0"/>
        <pt x="1266" y="1072" on="0"/>
      </contour>
      <contour>
        <pt x="1051" y="1120" on="1"/>
        <pt x="948" y="1257" on="0"/>
        <pt x="475" y="1257" on="0"/>
        <pt x="350" y="1072" on="1"/>
        <pt x="350" y="737" on="1"/>
        <pt x="1051" y="737" on="1"/>
      </contour>
    </TTGlyph>
    <TTGlyph name="eth" xMin="109" yMin="-27" xMax="1116" yMax="1793">
      <contour>
        <pt x="563" y="1634" on="1"/>
        <pt x="628" y="1705" on="0"/>
        <pt x="698" y="1793" on="1"/>
        <pt x="788" y="1724" on="1"/>
        <pt x="765" y="1697" on="0"/>
        <pt x="721" y="1648" on="0"/>
        <pt x="674" y="1595" on="0"/>
        <pt x="653" y="1573" on="1"/>
        <pt x="754" y="1506" on="0"/>
        <pt x="846" y="1393" on="1"/>
        <pt x="1116" y="1066" on="0"/>
        <pt x="1116" y="612" on="1"/>
        <pt x="1116" y="301" on="0"/>
        <pt x="842" y="-27" on="0"/>
        <pt x="382" y="-27" on="0"/>
        <pt x="109" y="285" on="0"/>
        <pt x="109" y="835" on="0"/>
        <pt x="392" y="1155" on="0"/>
        <pt x="620" y="1155" on="1"/>
        <pt x="776" y="1153" on="0"/>
        <pt x="884" y="1043" on="1"/>
        <pt x="794" y="1310" on="0"/>
        <pt x="571" y="1483" on="1"/>
        <pt x="430" y="1323" on="1"/>
        <pt x="341" y="1393" on="1"/>
        <pt x="482" y="1546" on="1"/>
        <pt x="351" y="1629" on="0"/>
        <pt x="245" y="1662" on="1"/>
        <pt x="285" y="1759" on="1"/>
        <pt x="421" y="1717" on="0"/>
      </contour>
      <contour>
        <pt x="275" y="340" on="0"/>
        <pt x="467" y="88" on="0"/>
        <pt x="760" y="88" on="0"/>
        <pt x="949" y="337" on="0"/>
        <pt x="949" y="768" on="0"/>
        <pt x="940" y="851" on="1"/>
        <pt x="903" y="972" on="0"/>
        <pt x="744" y="1016" on="1"/>
        <pt x="690" y="1030" on="0"/>
        <pt x="543" y="1030" on="0"/>
        <pt x="412" y="963" on="0"/>
        <pt x="367" y="902" on="1"/>
        <pt x="275" y="777" on="0"/>
      </contour>
    </TTGlyph>
    <TTGlyph name="exclam" xMin="184" yMin="-16" xMax="417" yMax="1780">
      <contour>
        <pt x="211" y="1780" on="1"/>
        <pt x="398" y="1780" on="1"/>
        <pt x="380" y="473" on="1"/>
        <pt x="232" y="473" on="1"/>
      </contour>
      <contour>
        <pt x="417" y="135" on="1"/>
        <pt x="417" y="29" on="0"/>
        <pt x="342" y="-6" on="1"/>
        <pt x="320" y="-16" on="0"/>
        <pt x="250" y="-16" on="0"/>
        <pt x="184" y="54" on="0"/>
        <pt x="184" y="97" on="1"/>
        <pt x="184" y="168" on="0"/>
        <pt x="257" y="249" on="0"/>
        <pt x="294" y="249" on="1"/>
        <pt x="357" y="249" on="0"/>
        <pt x="417" y="178" on="0"/>
      </contour>
    </TTGlyph>
    <TTGlyph name="exclamdbl" xMin="214" yMin="-16" xMax="1118" yMax="1780">
      <component glyphName="exclam" x="30" y="0" flags="0x1004"/>
      <component glyphName="exclam" x="701" y="0" flags="0x1004"/>
    </TTGlyph>
    <TTGlyph name="exclamdown" xMin="184" yMin="-436" xMax="417" yMax="1360">
      <component glyphName="exclam" x="601" y="1344" scale="-0.999938964844" flags="0x1004"/>
    </TTGlyph>
    <TTGlyph name="f" xMin="76" yMin="0" xMax="800" yMax="1682">
      <contour>
        <pt x="800" y="1528" on="1"/>
        <pt x="746" y="1548" on="0"/>
        <pt x="551" y="1548" on="0"/>
        <pt x="439" y="1407" on="0"/>
        <pt x="439" y="1268" on="1"/>
        <pt x="439" y="1140" on="1"/>
        <pt x="742" y="1140" on="1"/>
        <pt x="742" y="1014" on="1"/>
        <pt x="439" y="1014" on="1"/>
        <pt x="439" y="0" on="1"/>
        <pt x="272" y="0" on="1"/>
        <pt x="272" y="1014" on="1"/>
        <pt x="76" y="1014" on="1"/>
        <pt x="76" y="1106" on="1"/>
        <pt x="272" y="1140" on="1"/>
        <pt x="272" y="1232" on="1"/>
        <pt x="272" y="1465" on="0"/>
        <pt x="400" y="1584" on="1"/>
        <pt x="506" y="1682" on="0"/>
        <pt x="664" y="1682" on="1"/>
        <pt x="744" y="1682" on="0"/>
        <pt x="800" y="1661" on="1"/>
      </contour>
    </TTGlyph>
    <TTGlyph name="f_f" xMin="76" yMin="0" xMax="1601" yMax="1682">
      <component glyphName="f" x="0" y="0" flags="0x1004"/>
      <component glyphName="f" x="801" y="0" flags="0x1004"/>
    </TTGlyph>
    <TTGlyph name="f_f_i" xMin="76" yMin="0" xMax="2015" yMax="1682">
      <component glyphName="dotlessi" x="1602" y="0" flags="0x1004"/>
      <component glyphName="dotaccent" x="1735" y="0" flags="0x1004"/>
      <component glyphName="f" x="0" y="0" flags="0x1004"/>
      <component glyphName="f" x="801" y="0" flags="0x1004"/>
    </TTGlyph>
    <TTGlyph name="f_f_l" xMin="76" yMin="0" xMax="1983" yMax="1682">
      <component glyphName="l" x="1602" y="0" flags="0x1004"/>
      <component glyphName="f" x="0" y="0" flags="0x1004"/>
      <component glyphName="f" x="801" y="0" flags="0x1004"/>
    </TTGlyph>
    <TTGlyph name="f_i" xMin="76" yMin="0" xMax="1214" yMax="1682">
      <component glyphName="dotlessi" x="801" y="0" flags="0x1004"/>
      <component glyphName="dotaccent" x="934" y="0" flags="0x1004"/>
      <component glyphName="f" x="0" y="0" flags="0x1004"/>
    </TTGlyph>
    <TTGlyph name="f_l" xMin="76" yMin="0" xMax="1182" yMax="1682">
      <component glyphName="l" x="801" y="0" flags="0x1004"/>
      <component glyphName="f" x="0" y="0" flags="0x1004"/>
    </TTGlyph>
    <TTGlyph name="ffi_dflt" xMin="76" yMin="0" xMax="2015" yMax="1682">
      <component glyphName="dotlessi" x="1602" y="0" flags="0x1004"/>
      <component glyphName="dotaccent" x="1735" y="0" flags="0x1004"/>
      <component glyphName="f" x="0" y="0" flags="0x1004"/>
      <component glyphName="f" x="801" y="0" flags="0x1004"/>
    </TTGlyph>
    <TTGlyph name="fi_trk" xMin="76" yMin="0" xMax="1214" yMax="1682">
      <component glyphName="dotlessi" x="801" y="0" flags="0x1004"/>
      <component glyphName="dotaccent" x="934" y="0" flags="0x1004"/>
      <component glyphName="f" x="0" y="0" flags="0x1004"/>
    </TTGlyph>
    <TTGlyph name="five" xMin="203" yMin="-348" xMax="1071" yMax="1252">
      <contour>
        <pt x="204" y="-222" on="1"/>
        <pt x="254" y="-227" on="0"/>
        <pt x="284" y="-227" on="1"/>
        <pt x="549" y="-227" on="0"/>
        <pt x="902" y="36" on="0"/>
        <pt x="902" y="227" on="1"/>
        <pt x="902" y="552" on="0"/>
        <pt x="558" y="552" on="1"/>
        <pt x="554" y="552" on="0"/>
        <pt x="550" y="552" on="1"/>
        <pt x="417" y="552" on="0"/>
        <pt x="252" y="491" on="1"/>
        <pt x="211" y="516" on="1"/>
        <pt x="272" y="1252" on="1"/>
        <pt x="1022" y="1252" on="1"/>
        <pt x="1006" y="1108" on="1"/>
        <pt x="403" y="1108" on="1"/>
        <pt x="354" y="631" on="1"/>
        <pt x="504" y="677" on="0"/>
        <pt x="620" y="677" on="1"/>
        <pt x="841" y="677" on="0"/>
        <pt x="1071" y="443" on="0"/>
        <pt x="1071" y="238" on="1"/>
        <pt x="1071" y="94" on="0"/>
        <pt x="983" y="-39" on="1"/>
        <pt x="842" y="-253" on="0"/>
        <pt x="546" y="-323" on="1"/>
        <pt x="445" y="-347" on="0"/>
        <pt x="245" y="-348" on="0"/>
        <pt x="203" y="-335" on="1"/>
      </contour>
    </TTGlyph>
    <TTGlyph name="florin" xMin="219" yMin="-356" xMax="1047" yMax="1686">
      <contour>
        <pt x="1037" y="1532" on="1"/>
        <pt x="1008" y="1551" on="0"/>
        <pt x="831" y="1551" on="0"/>
        <pt x="789" y="1536" on="1"/>
        <pt x="651" y="1485" on="0"/>
        <pt x="626" y="1256" on="1"/>
        <pt x="612" y="1141" on="1"/>
        <pt x="932" y="1141" on="1"/>
        <pt x="923" y="1013" on="1"/>
        <pt x="602" y="1013" on="1"/>
        <pt x="489" y="-356" on="1"/>
        <pt x="325" y="-356" on="1"/>
        <pt x="440" y="1013" on="1"/>
        <pt x="219" y="1013" on="1"/>
        <pt x="225" y="1101" on="1"/>
        <pt x="450" y="1141" on="1"/>
        <pt x="458" y="1209" on="1"/>
        <pt x="488" y="1456" on="0"/>
        <pt x="724" y="1686" on="0"/>
        <pt x="900" y="1686" on="1"/>
        <pt x="1010" y="1686" on="0"/>
        <pt x="1047" y="1669" on="1"/>
      </contour>
    </TTGlyph>
    <TTGlyph name="four" xMin="104" yMin="-376" xMax="1244" yMax="1307">
      <contour>
        <pt x="113" y="96" on="0"/>
        <pt x="168" y="210" on="0"/>
        <pt x="248" y="375" on="0"/>
        <pt x="345" y="577" on="0"/>
        <pt x="445" y="787" on="0"/>
        <pt x="494" y="889" on="1"/>
        <pt x="634" y="1180" on="0"/>
        <pt x="689" y="1307" on="1"/>
        <pt x="748" y="1307" on="1"/>
        <pt x="852" y="1243" on="1"/>
        <pt x="792" y="1104" on="0"/>
        <pt x="365" y="260" on="0"/>
        <pt x="357" y="244" on="1"/>
        <pt x="290" y="129" on="1"/>
        <pt x="827" y="129" on="1"/>
        <pt x="840" y="616" on="1"/>
        <pt x="993" y="616" on="1"/>
        <pt x="993" y="129" on="1"/>
        <pt x="1244" y="129" on="1"/>
        <pt x="1244" y="0" on="1"/>
        <pt x="993" y="0" on="1"/>
        <pt x="993" y="-376" on="1"/>
        <pt x="827" y="-376" on="1"/>
        <pt x="827" y="0" on="1"/>
        <pt x="145" y="0" on="1"/>
        <pt x="104" y="79" on="1"/>
      </contour>
    </TTGlyph>
    <TTGlyph name="foursuperior" xMin="112" yMin="592" xMax="1042" yMax="1779">
      <contour>
        <pt x="112" y="947" on="1"/>
        <pt x="586" y="1779" on="1"/>
        <pt x="638" y="1779" on="1"/>
        <pt x="737" y="1720" on="1"/>
        <pt x="353" y="1091" on="1"/>
        <pt x="297" y="991" on="1"/>
        <pt x="694" y="991" on="1"/>
        <pt x="694" y="993" on="1"/>
        <pt x="700" y="1273" on="1"/>
        <pt x="849" y="1289" on="1"/>
        <pt x="849" y="991" on="1"/>
        <pt x="1041" y="991" on="1"/>
        <pt x="1042" y="875" on="1"/>
        <pt x="849" y="875" on="1"/>
        <pt x="849" y="592" on="1"/>
        <pt x="693" y="592" on="1"/>
        <pt x="693" y="875" on="1"/>
        <pt x="153" y="875" on="1"/>
      </contour>
    </TTGlyph>
    <TTGlyph name="fraction" xMin="160" yMin="0" xMax="851" yMax="1530">
      <contour>
        <pt x="699" y="1530" on="1"/>
        <pt x="851" y="1530" on="1"/>
        <pt x="310" y="0" on="1"/>
        <pt x="160" y="0" on="1"/>
      </contour>
    </TTGlyph>
    <TTGlyph name="g" xMin="121" yMin="-517" xMax="1191" yMax="1156">
      <contour>
        <pt x="121" y="-215" on="1"/>
        <pt x="121" y="-42" on="0"/>
        <pt x="280" y="46" on="1"/>
        <pt x="194" y="94" on="0"/>
        <pt x="194" y="217" on="1"/>
        <pt x="195" y="275" on="0"/>
        <pt x="269" y="396" on="0"/>
        <pt x="330" y="440" on="1"/>
        <pt x="243" y="488" on="0"/>
        <pt x="142" y="650" on="0"/>
        <pt x="142" y="755" on="1"/>
        <pt x="142" y="952" on="0"/>
        <pt x="394" y="1156" on="0"/>
        <pt x="600" y="1156" on="1"/>
        <pt x="752" y="1156" on="0"/>
        <pt x="864" y="1088" on="1"/>
        <pt x="962" y="1137" on="0"/>
        <pt x="1084" y="1137" on="1"/>
        <pt x="1191" y="1137" on="1"/>
        <pt x="1191" y="1003" on="1"/>
        <pt x="959" y="1003" on="1"/>
        <pt x="1028" y="908" on="0"/>
        <pt x="1028" y="795" on="1"/>
        <pt x="1028" y="591" on="0"/>
        <pt x="773" y="380" on="0"/>
        <pt x="577" y="380" on="1"/>
        <pt x="493" y="380" on="0"/>
        <pt x="423" y="401" on="1"/>
        <pt x="347" y="341" on="0"/>
        <pt x="347" y="187" on="0"/>
        <pt x="417" y="132" on="0"/>
        <pt x="510" y="132" on="1"/>
        <pt x="757" y="132" on="1"/>
        <pt x="1079" y="132" on="0"/>
        <pt x="1134" y="-46" on="1"/>
        <pt x="1149" y="-97" on="0"/>
        <pt x="1149" y="-236" on="0"/>
        <pt x="1063" y="-372" on="0"/>
        <pt x="988" y="-420" on="1"/>
        <pt x="834" y="-517" on="0"/>
        <pt x="599" y="-517" on="1"/>
        <pt x="254" y="-517" on="0"/>
        <pt x="155" y="-340" on="1"/>
        <pt x="121" y="-279" on="0"/>
      </contour>
      <contour>
        <pt x="580" y="492" on="1"/>
        <pt x="862" y="492" on="0"/>
        <pt x="862" y="772" on="1"/>
        <pt x="862" y="908" on="0"/>
        <pt x="718" y="1042" on="0"/>
        <pt x="596" y="1042" on="1"/>
        <pt x="395" y="1042" on="0"/>
        <pt x="332" y="899" on="1"/>
        <pt x="308" y="846" on="0"/>
        <pt x="308" y="776" on="1"/>
        <pt x="308" y="644" on="0"/>
        <pt x="452" y="492" on="0"/>
      </contour>
      <contour>
        <pt x="376" y="10" on="1"/>
        <pt x="284" y="-66" on="0"/>
        <pt x="284" y="-294" on="0"/>
        <pt x="442" y="-402" on="0"/>
        <pt x="605" y="-402" on="1"/>
        <pt x="860" y="-402" on="0"/>
        <pt x="956" y="-282" on="1"/>
        <pt x="989" y="-241" on="0"/>
        <pt x="989" y="-189" on="1"/>
        <pt x="989" y="-85" on="0"/>
        <pt x="855" y="0" on="0"/>
        <pt x="689" y="0" on="1"/>
        <pt x="535" y="0" on="1"/>
        <pt x="435" y="0" on="0"/>
      </contour>
    </TTGlyph>
    <TTGlyph name="gbreve" xMin="121" yMin="-517" xMax="1191" yMax="1694">
      <component glyphName="g" x="0" y="0" flags="0x1204"/>
      <component glyphName="breve" x="219" y="0" flags="0x1004"/>
    </TTGlyph>
    <TTGlyph name="gcircumflex" xMin="121" yMin="-517" xMax="1191" yMax="1692">
      <component glyphName="circumflex" x="187" y="0" flags="0x1004"/>
      <component glyphName="g" x="0" y="0" flags="0x1004"/>
    </TTGlyph>
    <TTGlyph name="gcommaaccent" xMin="121" yMin="-517" xMax="1191" yMax="1809">
      <contour>
        <pt x="582" y="1331" on="1"/>
        <pt x="514" y="1358" on="0"/>
        <pt x="489" y="1464" on="1"/>
        <pt x="481" y="1499" on="0"/>
        <pt x="481" y="1545" on="1"/>
        <pt x="481" y="1635" on="0"/>
        <pt x="580" y="1785" on="0"/>
        <pt x="635" y="1809" on="1"/>
        <pt x="692" y="1777" on="1"/>
        <pt x="692" y="1756" on="1"/>
        <pt x="648" y="1723" on="0"/>
        <pt x="630" y="1638" on="1"/>
        <pt x="624" y="1609" on="0"/>
        <pt x="624" y="1580" on="1"/>
        <pt x="624" y="1528" on="0"/>
        <pt x="670" y="1444" on="0"/>
        <pt x="701" y="1438" on="1"/>
        <pt x="701" y="1400" on="1"/>
      </contour>
      <contour>
        <pt x="121" y="-215" on="1"/>
        <pt x="121" y="-42" on="0"/>
        <pt x="280" y="46" on="1"/>
        <pt x="194" y="94" on="0"/>
        <pt x="194" y="217" on="1"/>
        <pt x="195" y="275" on="0"/>
        <pt x="269" y="396" on="0"/>
        <pt x="330" y="440" on="1"/>
        <pt x="243" y="488" on="0"/>
        <pt x="142" y="650" on="0"/>
        <pt x="142" y="755" on="1"/>
        <pt x="142" y="952" on="0"/>
        <pt x="394" y="1156" on="0"/>
        <pt x="600" y="1156" on="1"/>
        <pt x="752" y="1156" on="0"/>
        <pt x="864" y="1088" on="1"/>
        <pt x="962" y="1137" on="0"/>
        <pt x="1084" y="1137" on="1"/>
        <pt x="1191" y="1137" on="1"/>
        <pt x="1191" y="1003" on="1"/>
        <pt x="959" y="1003" on="1"/>
        <pt x="1028" y="908" on="0"/>
        <pt x="1028" y="795" on="1"/>
        <pt x="1028" y="591" on="0"/>
        <pt x="773" y="380" on="0"/>
        <pt x="577" y="380" on="1"/>
        <pt x="493" y="380" on="0"/>
        <pt x="423" y="401" on="1"/>
        <pt x="347" y="341" on="0"/>
        <pt x="347" y="187" on="0"/>
        <pt x="417" y="132" on="0"/>
        <pt x="510" y="132" on="1"/>
        <pt x="757" y="132" on="1"/>
        <pt x="1079" y="132" on="0"/>
        <pt x="1134" y="-46" on="1"/>
        <pt x="1149" y="-97" on="0"/>
        <pt x="1149" y="-236" on="0"/>
        <pt x="1063" y="-372" on="0"/>
        <pt x="988" y="-420" on="1"/>
        <pt x="834" y="-517" on="0"/>
        <pt x="599" y="-517" on="1"/>
        <pt x="254" y="-517" on="0"/>
        <pt x="155" y="-340" on="1"/>
        <pt x="121" y="-279" on="0"/>
      </contour>
      <contour>
        <pt x="580" y="492" on="1"/>
        <pt x="862" y="492" on="0"/>
        <pt x="862" y="772" on="1"/>
        <pt x="862" y="908" on="0"/>
        <pt x="718" y="1042" on="0"/>
        <pt x="596" y="1042" on="1"/>
        <pt x="395" y="1042" on="0"/>
        <pt x="332" y="899" on="1"/>
        <pt x="308" y="846" on="0"/>
        <pt x="308" y="776" on="1"/>
        <pt x="308" y="644" on="0"/>
        <pt x="452" y="492" on="0"/>
      </contour>
      <contour>
        <pt x="376" y="10" on="1"/>
        <pt x="284" y="-66" on="0"/>
        <pt x="284" y="-294" on="0"/>
        <pt x="442" y="-402" on="0"/>
        <pt x="605" y="-402" on="1"/>
        <pt x="860" y="-402" on="0"/>
        <pt x="956" y="-282" on="1"/>
        <pt x="989" y="-241" on="0"/>
        <pt x="989" y="-189" on="1"/>
        <pt x="989" y="-85" on="0"/>
        <pt x="855" y="0" on="0"/>
        <pt x="689" y="0" on="1"/>
        <pt x="535" y="0" on="1"/>
        <pt x="435" y="0" on="0"/>
      </contour>
    </TTGlyph>
    <TTGlyph name="gdotaccent" xMin="121" yMin="-517" xMax="1191" yMax="1630">
      <component glyphName="g" x="0" y="0" flags="0x1204"/>
      <component glyphName="dotaccent" x="441" y="0" flags="0x1004"/>
    </TTGlyph>
    <TTGlyph name="germandbls" xMin="44" yMin="-16" xMax="1227" yMax="1579">
      <contour>
        <pt x="602" y="149" on="1"/>
        <pt x="693" y="102" on="0"/>
        <pt x="986" y="102" on="0"/>
        <pt x="1040" y="207" on="1"/>
        <pt x="1058" y="243" on="0"/>
        <pt x="1058" y="355" on="0"/>
        <pt x="1005" y="446" on="0"/>
        <pt x="925" y="523" on="0"/>
        <pt x="879" y="558" on="1"/>
        <pt x="701" y="696" on="0"/>
        <pt x="701" y="855" on="1"/>
        <pt x="701" y="949" on="0"/>
        <pt x="916" y="1180" on="0"/>
        <pt x="916" y="1286" on="1"/>
        <pt x="916" y="1377" on="0"/>
        <pt x="790" y="1460" on="0"/>
        <pt x="703" y="1460" on="1"/>
        <pt x="358" y="1460" on="0"/>
        <pt x="358" y="975" on="1"/>
        <pt x="358" y="0" on="1"/>
        <pt x="191" y="0" on="1"/>
        <pt x="191" y="1014" on="1"/>
        <pt x="44" y="1014" on="1"/>
        <pt x="44" y="1113" on="1"/>
        <pt x="204" y="1143" on="1"/>
        <pt x="242" y="1362" on="0"/>
        <pt x="520" y="1579" on="0"/>
        <pt x="717" y="1579" on="1"/>
        <pt x="869" y="1579" on="0"/>
        <pt x="1082" y="1439" on="0"/>
        <pt x="1082" y="1172" on="0"/>
        <pt x="969" y="1055" on="1"/>
        <pt x="895" y="978" on="0"/>
        <pt x="856" y="909" on="0"/>
        <pt x="856" y="823" on="0"/>
        <pt x="911" y="746" on="0"/>
        <pt x="993" y="676" on="0"/>
        <pt x="1042" y="640" on="1"/>
        <pt x="1227" y="505" on="0"/>
        <pt x="1227" y="311" on="1"/>
        <pt x="1227" y="144" on="0"/>
        <pt x="1100" y="58" on="1"/>
        <pt x="992" y="-16" on="0"/>
        <pt x="684" y="-16" on="0"/>
        <pt x="602" y="17" on="1"/>
      </contour>
    </TTGlyph>
    <TTGlyph name="grave" xMin="50" yMin="1315" xMax="507" yMax="1781">
      <contour>
        <pt x="170" y="1781" on="1"/>
        <pt x="260" y="1663" on="0"/>
        <pt x="507" y="1383" on="1"/>
        <pt x="422" y="1315" on="1"/>
        <pt x="350" y="1363" on="0"/>
        <pt x="110" y="1592" on="0"/>
        <pt x="50" y="1678" on="1"/>
      </contour>
    </TTGlyph>
    <TTGlyph name="grave.cap" xMin="50" yMin="1589" xMax="508" yMax="1975">
      <contour>
        <pt x="437" y="1589" on="1"/>
        <pt x="301" y="1657" on="0"/>
        <pt x="134" y="1795" on="1"/>
        <pt x="85" y="1836" on="0"/>
        <pt x="50" y="1873" on="1"/>
        <pt x="161" y="1975" on="1"/>
        <pt x="194" y="1939" on="0"/>
        <pt x="372" y="1779" on="0"/>
        <pt x="466" y="1694" on="0"/>
        <pt x="508" y="1660" on="1"/>
      </contour>
    </TTGlyph>
    <TTGlyph name="greater" xMin="235" yMin="254" xMax="1197" yMax="1293">
      <component glyphName="less" x="1368" y="0" scalex="-0.999938964844" scaley="1.0" flags="0x1004"/>
    </TTGlyph>
    <TTGlyph name="greaterequal" xMin="230" yMin="0" xMax="1195" yMax="1282">
      <component glyphName="lessequal" x="1368" y="0" scalex="-0.999938964844" scaley="1.0" flags="0x1004"/>
    </TTGlyph>
    <TTGlyph name="guillemotleft" xMin="245" yMin="106" xMax="1668" yMax="1131">
      <component glyphName="guilsinglleft" x="0" y="0" flags="0x1004"/>
      <component glyphName="guilsinglleft" x="726" y="0" flags="0x1004"/>
    </TTGlyph>
    <TTGlyph name="guillemotright" xMin="262" yMin="106" xMax="1685" yMax="1131">
      <component glyphName="guilsinglleft" x="1204" y="0" scalex="-0.999938964844" scaley="1.0" flags="0x1004"/>
      <component glyphName="guilsinglleft" x="1930" y="0" scalex="-0.999938964844" scaley="1.0" flags="0x1004"/>
    </TTGlyph>
    <TTGlyph name="guilsinglleft" xMin="245" yMin="106" xMax="942" yMax="1131">
      <contour>
        <pt x="245" y="683" on="1"/>
        <pt x="898" y="1131" on="1"/>
        <pt x="942" y="1006" on="1"/>
        <pt x="408" y="615" on="1"/>
        <pt x="942" y="227" on="1"/>
        <pt x="898" y="106" on="1"/>
        <pt x="245" y="542" on="1"/>
      </contour>
    </TTGlyph>
    <TTGlyph name="guilsinglright" xMin="262" yMin="106" xMax="959" yMax="1131">
      <component glyphName="guilsinglleft" x="1204" y="0" scalex="-0.999938964844" scaley="1.0" flags="0x1004"/>
    </TTGlyph>
    <TTGlyph name="h" xMin="193" yMin="0" xMax="1123" yMax="1664">
      <contour>
        <pt x="193" y="1664" on="1"/>
        <pt x="360" y="1664" on="1"/>
        <pt x="360" y="1157" on="1"/>
        <pt x="352" y="1001" on="1"/>
        <pt x="478" y="1099" on="0"/>
        <pt x="648" y="1141" on="1"/>
        <pt x="713" y="1157" on="0"/>
        <pt x="790" y="1157" on="1"/>
        <pt x="962" y="1157" on="0"/>
        <pt x="1123" y="943" on="0"/>
        <pt x="1123" y="677" on="1"/>
        <pt x="1123" y="0" on="1"/>
        <pt x="956" y="0" on="1"/>
        <pt x="956" y="689" on="1"/>
        <pt x="956" y="876" on="0"/>
        <pt x="849" y="1017" on="0"/>
        <pt x="718" y="1017" on="1"/>
        <pt x="541" y="1017" on="0"/>
        <pt x="360" y="879" on="1"/>
        <pt x="360" y="0" on="1"/>
        <pt x="193" y="0" on="1"/>
      </contour>
    </TTGlyph>
    <TTGlyph name="hbar" xMin="44" yMin="0" xMax="1123" yMax="1664">
      <contour>
        <pt x="193" y="1309" on="1"/>
        <pt x="44" y="1309" on="1"/>
        <pt x="44" y="1410" on="1"/>
        <pt x="193" y="1410" on="1"/>
        <pt x="193" y="1664" on="1"/>
        <pt x="360" y="1664" on="1"/>
        <pt x="360" y="1410" on="1"/>
        <pt x="631" y="1410" on="1"/>
        <pt x="631" y="1309" on="1"/>
        <pt x="360" y="1309" on="1"/>
        <pt x="360" y="1157" on="1"/>
        <pt x="352" y="1001" on="1"/>
        <pt x="478" y="1099" on="0"/>
        <pt x="648" y="1141" on="1"/>
        <pt x="713" y="1157" on="0"/>
        <pt x="790" y="1157" on="1"/>
        <pt x="962" y="1157" on="0"/>
        <pt x="1123" y="943" on="0"/>
        <pt x="1123" y="677" on="1"/>
        <pt x="1123" y="0" on="1"/>
        <pt x="956" y="0" on="1"/>
        <pt x="956" y="689" on="1"/>
        <pt x="956" y="876" on="0"/>
        <pt x="849" y="1017" on="0"/>
        <pt x="718" y="1017" on="1"/>
        <pt x="541" y="1017" on="0"/>
        <pt x="360" y="879" on="1"/>
        <pt x="360" y="0" on="1"/>
        <pt x="193" y="0" on="1"/>
      </contour>
    </TTGlyph>
    <TTGlyph name="hcircumflex" xMin="193" yMin="0" xMax="1123" yMax="1982">
      <component glyphName="h" x="0" y="0" flags="0x1204"/>
      <component glyphName="circumflex.cap" x="358" y="0" flags="0x1004"/>
    </TTGlyph>
    <TTGlyph name="hungarumlaut" xMin="47" yMin="1333" xMax="930" yMax="1796">
      <contour>
        <pt x="47" y="1387" on="1"/>
        <pt x="54" y="1396" on="0"/>
        <pt x="95" y="1459" on="0"/>
        <pt x="122" y="1501" on="1"/>
        <pt x="260" y="1711" on="0"/>
        <pt x="311" y="1796" on="1"/>
        <pt x="435" y="1711" on="1"/>
        <pt x="353" y="1572" on="0"/>
        <pt x="200" y="1407" on="1"/>
        <pt x="158" y="1361" on="0"/>
        <pt x="126" y="1333" on="1"/>
      </contour>
      <contour>
        <pt x="539" y="1387" on="1"/>
        <pt x="551" y="1403" on="0"/>
        <pt x="645" y="1540" on="0"/>
        <pt x="709" y="1633" on="0"/>
        <pt x="764" y="1715" on="0"/>
        <pt x="806" y="1777" on="0"/>
        <pt x="812" y="1787" on="1"/>
        <pt x="930" y="1702" on="1"/>
        <pt x="853" y="1568" on="0"/>
        <pt x="694" y="1406" on="1"/>
        <pt x="650" y="1360" on="0"/>
        <pt x="617" y="1333" on="1"/>
      </contour>
    </TTGlyph>
    <TTGlyph name="hungarumlaut.cap" xMin="54" yMin="1639" xMax="878" yMax="1990">
      <contour>
        <pt x="410" y="1922" on="1"/>
        <pt x="283" y="1746" on="0"/>
        <pt x="149" y="1639" on="1"/>
        <pt x="54" y="1692" on="1"/>
        <pt x="119" y="1764" on="0"/>
        <pt x="273" y="1979" on="0"/>
        <pt x="280" y="1990" on="1"/>
      </contour>
      <contour>
        <pt x="878" y="1913" on="1"/>
        <pt x="761" y="1748" on="0"/>
        <pt x="617" y="1639" on="1"/>
        <pt x="521" y="1692" on="1"/>
        <pt x="596" y="1776" on="0"/>
        <pt x="748" y="1972" on="0"/>
        <pt x="754" y="1981" on="1"/>
      </contour>
    </TTGlyph>
    <TTGlyph name="hyphen" xMin="247" yMin="705" xMax="1103" yMax="840">
      <contour>
        <pt x="247" y="840" on="1"/>
        <pt x="1103" y="840" on="1"/>
        <pt x="1103" y="705" on="1"/>
        <pt x="247" y="705" on="1"/>
      </contour>
    </TTGlyph>
    <TTGlyph name="i" xMin="183" yMin="0" xMax="413" yMax="1630">
      <component glyphName="dotlessi" x="0" y="0" flags="0x1204"/>
      <component glyphName="dotaccent" x="133" y="0" flags="0x1004"/>
    </TTGlyph>
    <TTGlyph name="i.cy" xMin="183" yMin="0" xMax="413" yMax="1630">
      <component glyphName="dotlessi" x="0" y="0" flags="0x1204"/>
      <component glyphName="dotaccent" x="133" y="0" flags="0x1004"/>
    </TTGlyph>
    <TTGlyph name="i.dot" xMin="183" yMin="0" xMax="413" yMax="1630">
      <component glyphName="dotlessi" x="0" y="0" flags="0x1204"/>
      <component glyphName="dotaccent" x="133" y="0" flags="0x1004"/>
    </TTGlyph>
    <TTGlyph name="i.uc" xMin="200" yMin="0" xMax="427" yMax="1926">
      <component glyphName="I" x="0" y="0" flags="0x1204"/>
      <component glyphName="dotaccent.cap" x="149" y="0" flags="0x1004"/>
    </TTGlyph>
    <TTGlyph name="iacute" xMin="172" yMin="0" xMax="629" yMax="1781">
      <component glyphName="acute" x="122" y="0" flags="0x1004"/>
      <component glyphName="dotlessi" x="0" y="0" flags="0x1004"/>
    </TTGlyph>
    <TTGlyph name="ibreve" xMin="-45" yMin="0" xMax="633" yMax="1694">
      <component glyphName="dotlessi" x="0" y="0" flags="0x1204"/>
      <component glyphName="breve" x="-93" y="0" flags="0x1004"/>
    </TTGlyph>
    <TTGlyph name="icircumflex" xMin="-76" yMin="0" xMax="661" yMax="1692">
      <component glyphName="circumflex" x="-124" y="0" flags="0x1004"/>
      <component glyphName="dotlessi" x="0" y="0" flags="0x1004"/>
    </TTGlyph>
    <TTGlyph name="idieresis" xMin="-17" yMin="0" xMax="606" yMax="1633">
      <contour>
        <pt x="507" y="1633" on="1"/>
        <pt x="606" y="1633" on="0"/>
        <pt x="606" y="1528" on="1"/>
        <pt x="606" y="1474" on="0"/>
        <pt x="537" y="1408" on="0"/>
        <pt x="447" y="1408" on="0"/>
        <pt x="389" y="1463" on="0"/>
        <pt x="389" y="1502" on="1"/>
        <pt x="389" y="1565" on="0"/>
        <pt x="461" y="1633" on="0"/>
      </contour>
      <contour>
        <pt x="101" y="1633" on="1"/>
        <pt x="199" y="1633" on="0"/>
        <pt x="199" y="1528" on="1"/>
        <pt x="199" y="1474" on="0"/>
        <pt x="130" y="1408" on="0"/>
        <pt x="41" y="1408" on="0"/>
        <pt x="-17" y="1463" on="0"/>
        <pt x="-17" y="1502" on="1"/>
        <pt x="-17" y="1565" on="0"/>
        <pt x="55" y="1633" on="0"/>
      </contour>
      <contour>
        <pt x="211" y="1139" on="1"/>
        <pt x="377" y="1139" on="1"/>
        <pt x="377" y="0" on="1"/>
        <pt x="211" y="0" on="1"/>
      </contour>
    </TTGlyph>
    <TTGlyph name="igrave" xMin="-57" yMin="0" xMax="400" yMax="1781">
      <component glyphName="dotlessi" x="0" y="0" flags="0x1204"/>
      <component glyphName="grave" x="-107" y="0" flags="0x1004"/>
    </TTGlyph>
    <TTGlyph name="ij" xMin="183" yMin="-507" xMax="999" yMax="1630">
      <component glyphName="dotlessj" x="588" y="0" flags="0x1004"/>
      <component glyphName="dotlessi" x="0" y="0" flags="0x1004"/>
      <component glyphName="dotaccent" x="133" y="0" flags="0x1004"/>
      <component glyphName="dotaccent" x="719" y="0" flags="0x1004"/>
    </TTGlyph>
    <TTGlyph name="imacron" xMin="24" yMin="0" xMax="567" yMax="1576">
      <component glyphName="dotlessi" x="0" y="0" flags="0x1204"/>
      <component glyphName="macron" x="-26" y="0" flags="0x1004"/>
    </TTGlyph>
    <TTGlyph name="infinity" xMin="103" yMin="229" xMax="1739" yMax="1004">
      <contour>
        <pt x="846" y="398" on="1"/>
        <pt x="691" y="230" on="0"/>
        <pt x="321" y="230" on="0"/>
        <pt x="103" y="445" on="0"/>
        <pt x="103" y="792" on="0"/>
        <pt x="334" y="1004" on="0"/>
        <pt x="709" y="1004" on="0"/>
        <pt x="852" y="832" on="1"/>
        <pt x="892" y="783" on="0"/>
        <pt x="927" y="731" on="1"/>
        <pt x="1048" y="915" on="0"/>
        <pt x="1209" y="979" on="1"/>
        <pt x="1269" y="1003" on="0"/>
        <pt x="1339" y="1004" on="0"/>
        <pt x="1342" y="1004" on="1"/>
        <pt x="1535" y="1004" on="0"/>
        <pt x="1739" y="786" on="0"/>
        <pt x="1739" y="445" on="0"/>
        <pt x="1519" y="229" on="0"/>
        <pt x="1134" y="229" on="0"/>
        <pt x="996" y="397" on="1"/>
        <pt x="956" y="445" on="0"/>
        <pt x="922" y="496" on="1"/>
        <pt x="889" y="446" on="0"/>
      </contour>
      <contour>
        <pt x="1001" y="620" on="1"/>
        <pt x="1080" y="497" on="0"/>
        <pt x="1135" y="447" on="1"/>
        <pt x="1246" y="345" on="0"/>
        <pt x="1467" y="345" on="0"/>
        <pt x="1588" y="510" on="0"/>
        <pt x="1588" y="619" on="1"/>
        <pt x="1588" y="789" on="0"/>
        <pt x="1440" y="856" on="1"/>
        <pt x="1389" y="879" on="0"/>
        <pt x="1328" y="879" on="1"/>
        <pt x="1226" y="879" on="0"/>
        <pt x="1069" y="734" on="0"/>
      </contour>
      <contour>
        <pt x="402" y="368" on="1"/>
        <pt x="453" y="346" on="0"/>
        <pt x="513" y="346" on="1"/>
        <pt x="613" y="346" on="0"/>
        <pt x="773" y="482" on="0"/>
        <pt x="850" y="605" on="1"/>
        <pt x="773" y="728" on="0"/>
        <pt x="725" y="778" on="1"/>
        <pt x="626" y="879" on="0"/>
        <pt x="527" y="879" on="1"/>
        <pt x="395" y="879" on="0"/>
        <pt x="254" y="721" on="0"/>
        <pt x="254" y="609" on="1"/>
        <pt x="254" y="433" on="0"/>
      </contour>
    </TTGlyph>
    <TTGlyph name="integral" xMin="101" yMin="-518" xMax="969" yMax="1684">
      <contour>
        <pt x="165" y="-287" on="1"/>
        <pt x="253" y="-393" on="0"/>
        <pt x="533" y="-393" on="0"/>
        <pt x="675" y="-229" on="0"/>
        <pt x="675" y="134" on="0"/>
        <pt x="564" y="374" on="1"/>
        <pt x="517" y="477" on="0"/>
        <pt x="462" y="580" on="1"/>
        <pt x="248" y="979" on="0"/>
        <pt x="248" y="1208" on="1"/>
        <pt x="248" y="1542" on="0"/>
        <pt x="488" y="1648" on="1"/>
        <pt x="567" y="1684" on="0"/>
        <pt x="642" y="1684" on="1"/>
        <pt x="770" y="1684" on="0"/>
        <pt x="928" y="1621" on="0"/>
        <pt x="969" y="1552" on="1"/>
        <pt x="882" y="1466" on="1"/>
        <pt x="847" y="1525" on="0"/>
        <pt x="748" y="1550" on="1"/>
        <pt x="713" y="1559" on="0"/>
        <pt x="656" y="1559" on="1"/>
        <pt x="536" y="1559" on="0"/>
        <pt x="402" y="1373" on="0"/>
        <pt x="402" y="1207" on="1"/>
        <pt x="402" y="991" on="0"/>
        <pt x="614" y="597" on="1"/>
        <pt x="741" y="363" on="0"/>
        <pt x="827" y="75" on="0"/>
        <pt x="827" y="-30" on="1"/>
        <pt x="827" y="-254" on="0"/>
        <pt x="629" y="-518" on="0"/>
        <pt x="421" y="-518" on="1"/>
        <pt x="265" y="-518" on="0"/>
        <pt x="156" y="-442" on="1"/>
        <pt x="122" y="-419" on="0"/>
        <pt x="101" y="-389" on="1"/>
      </contour>
    </TTGlyph>
    <TTGlyph name="iogonek" xMin="18" yMin="-512" xMax="502" yMax="1630">
      <contour>
        <pt x="412" y="1527" on="1"/>
        <pt x="412" y="1428" on="0"/>
        <pt x="335" y="1397" on="1"/>
        <pt x="313" y="1388" on="0"/>
        <pt x="290" y="1388" on="1"/>
        <pt x="242" y="1388" on="0"/>
        <pt x="182" y="1451" on="0"/>
        <pt x="182" y="1490" on="1"/>
        <pt x="182" y="1557" on="0"/>
        <pt x="258" y="1630" on="0"/>
        <pt x="359" y="1630" on="0"/>
        <pt x="412" y="1566" on="0"/>
      </contour>
      <contour>
        <pt x="502" y="-450" on="1"/>
        <pt x="420" y="-512" on="0"/>
        <pt x="165" y="-512" on="0"/>
        <pt x="21" y="-397" on="0"/>
        <pt x="21" y="-299" on="1"/>
        <pt x="18" y="-170" on="0"/>
        <pt x="156" y="-52" on="1"/>
        <pt x="193" y="-21" on="0"/>
        <pt x="228" y="0" on="1"/>
        <pt x="211" y="0" on="1"/>
        <pt x="211" y="1139" on="1"/>
        <pt x="377" y="1139" on="1"/>
        <pt x="377" y="0" on="1"/>
        <pt x="358" y="0" on="1"/>
        <pt x="241" y="-73" on="0"/>
        <pt x="200" y="-183" on="1"/>
        <pt x="154" y="-306" on="0"/>
        <pt x="232" y="-368" on="1"/>
        <pt x="272" y="-399" on="0"/>
        <pt x="424" y="-397" on="0"/>
        <pt x="502" y="-358" on="1"/>
      </contour>
    </TTGlyph>
    <TTGlyph name="itilde" xMin="-118" yMin="0" xMax="704" yMax="1638">
      <component glyphName="dotlessi" x="0" y="0" flags="0x1204"/>
      <component glyphName="tilde" x="-166" y="0" flags="0x1004"/>
    </TTGlyph>
    <TTGlyph name="j" xMin="-95" yMin="-507" xMax="411" yMax="1630">
      <component glyphName="dotlessj" x="0" y="0" flags="0x1204"/>
      <component glyphName="dotaccent" x="131" y="0" flags="0x1004"/>
    </TTGlyph>
    <TTGlyph name="jcircumflex" xMin="-95" yMin="-507" xMax="674" yMax="1692">
      <component glyphName="dotlessj" x="0" y="0" flags="0x1204"/>
      <component glyphName="circumflex" x="-111" y="0" flags="0x1004"/>
    </TTGlyph>
    <TTGlyph name="k" xMin="188" yMin="0" xMax="1134" yMax="1661">
      <contour>
        <pt x="188" y="1661" on="1"/>
        <pt x="354" y="1661" on="1"/>
        <pt x="354" y="708" on="1"/>
        <pt x="350" y="585" on="1"/>
        <pt x="887" y="1139" on="1"/>
        <pt x="1085" y="1139" on="1"/>
        <pt x="640" y="692" on="1"/>
        <pt x="1134" y="0" on="1"/>
        <pt x="943" y="0" on="1"/>
        <pt x="529" y="581" on="1"/>
        <pt x="350" y="401" on="1"/>
        <pt x="354" y="224" on="1"/>
        <pt x="354" y="0" on="1"/>
        <pt x="188" y="0" on="1"/>
      </contour>
    </TTGlyph>
    <TTGlyph name="kcommaaccent" xMin="188" yMin="-560" xMax="1134" yMax="1661">
      <component glyphName="commaaccent" x="452" y="0" flags="0x1004"/>
      <component glyphName="k" x="0" y="0" flags="0x1004"/>
    </TTGlyph>
    <TTGlyph name="kgreenlandic" xMin="197" yMin="0" xMax="1146" yMax="1140">
      <contour>
        <pt x="197" y="1140" on="1"/>
        <pt x="364" y="1140" on="1"/>
        <pt x="364" y="640" on="1"/>
        <pt x="361" y="541" on="1"/>
        <pt x="915" y="1139" on="1"/>
        <pt x="1107" y="1139" on="1"/>
        <pt x="657" y="667" on="1"/>
        <pt x="1146" y="0" on="1"/>
        <pt x="955" y="0" on="1"/>
        <pt x="549" y="554" on="1"/>
        <pt x="361" y="358" on="1"/>
        <pt x="366" y="200" on="1"/>
        <pt x="366" y="0" on="1"/>
        <pt x="199" y="0" on="1"/>
      </contour>
    </TTGlyph>
    <TTGlyph name="l" xMin="214" yMin="0" xMax="381" yMax="1664">
      <contour>
        <pt x="214" y="1664" on="1"/>
        <pt x="381" y="1664" on="1"/>
        <pt x="381" y="0" on="1"/>
        <pt x="214" y="0" on="1"/>
      </contour>
    </TTGlyph>
    <TTGlyph name="lacute" xMin="214" yMin="0" xMax="673" yMax="1975">
      <contour>
        <pt x="214" y="1533" on="1"/>
        <pt x="381" y="1533" on="1"/>
        <pt x="381" y="0" on="1"/>
        <pt x="214" y="0" on="1"/>
      </contour>
      <contour>
        <pt x="215" y="1660" on="1"/>
        <pt x="257" y="1694" on="0"/>
        <pt x="351" y="1779" on="0"/>
        <pt x="390" y="1814" on="1"/>
        <pt x="529" y="1939" on="0"/>
        <pt x="562" y="1975" on="1"/>
        <pt x="673" y="1873" on="1"/>
        <pt x="547" y="1747" on="0"/>
        <pt x="384" y="1644" on="1"/>
        <pt x="333" y="1612" on="0"/>
        <pt x="287" y="1589" on="1"/>
      </contour>
    </TTGlyph>
    <TTGlyph name="lcaron" xMin="214" yMin="0" xMax="769" yMax="1685">
      <component glyphName="l" x="0" y="0" flags="0x1004"/>
      <component glyphName="caronvertical" x="504" y="0" flags="0x1004"/>
    </TTGlyph>
    <TTGlyph name="lcommaaccent" xMin="184" yMin="-560" xMax="399" yMax="1664">
      <component glyphName="commaaccent" x="127" y="0" flags="0x1004"/>
      <component glyphName="l" x="0" y="0" flags="0x1004"/>
    </TTGlyph>
    <TTGlyph name="ldot" xMin="214" yMin="0" xMax="912" yMax="1664">
      <component glyphName="l" x="0" y="0" flags="0x1004"/>
      <component glyphName="period" x="495" y="748" flags="0x1004"/>
    </TTGlyph>
    <TTGlyph name="less" xMin="171" yMin="254" xMax="1133" yMax="1293">
      <contour>
        <pt x="171" y="834" on="1"/>
        <pt x="1133" y="1293" on="1"/>
        <pt x="1133" y="1137" on="1"/>
        <pt x="344" y="773" on="1"/>
        <pt x="1133" y="413" on="1"/>
        <pt x="1133" y="254" on="1"/>
        <pt x="171" y="712" on="1"/>
      </contour>
    </TTGlyph>
    <TTGlyph name="lessequal" xMin="173" yMin="0" xMax="1138" yMax="1282">
      <contour>
        <pt x="173" y="834" on="1"/>
        <pt x="1138" y="1282" on="1"/>
        <pt x="1138" y="1128" on="1"/>
        <pt x="340" y="773" on="1"/>
        <pt x="1138" y="418" on="1"/>
        <pt x="1138" y="263" on="1"/>
        <pt x="173" y="711" on="1"/>
      </contour>
      <contour>
        <pt x="173" y="124" on="1"/>
        <pt x="1138" y="124" on="1"/>
        <pt x="1138" y="0" on="1"/>
        <pt x="173" y="0" on="1"/>
      </contour>
    </TTGlyph>
    <TTGlyph name="logicalnot" xMin="235" yMin="323" xMax="1225" yMax="852">
      <contour>
        <pt x="235" y="852" on="1"/>
        <pt x="1225" y="852" on="1"/>
        <pt x="1225" y="323" on="1"/>
        <pt x="1073" y="323" on="1"/>
        <pt x="1073" y="726" on="1"/>
        <pt x="235" y="726" on="1"/>
      </contour>
    </TTGlyph>
    <TTGlyph name="lozenge" xMin="84" yMin="0" xMax="1159" yMax="1516">
      <contour>
        <pt x="84" y="762" on="1"/>
        <pt x="84" y="775" on="1"/>
        <pt x="620" y="1516" on="1"/>
        <pt x="624" y="1516" on="1"/>
        <pt x="1159" y="775" on="1"/>
        <pt x="1159" y="762" on="1"/>
        <pt x="624" y="0" on="1"/>
        <pt x="619" y="0" on="1"/>
      </contour>
      <contour>
        <pt x="623" y="224" on="1"/>
        <pt x="993" y="768" on="1"/>
        <pt x="993" y="772" on="1"/>
        <pt x="623" y="1296" on="1"/>
        <pt x="620" y="1296" on="1"/>
        <pt x="249" y="772" on="1"/>
        <pt x="249" y="765" on="1"/>
        <pt x="620" y="224" on="1"/>
      </contour>
    </TTGlyph>
    <TTGlyph name="lslash" xMin="44" yMin="0" xMax="602" yMax="1664">
      <contour>
        <pt x="214" y="761" on="1"/>
        <pt x="44" y="696" on="1"/>
        <pt x="44" y="811" on="1"/>
        <pt x="214" y="879" on="1"/>
        <pt x="214" y="1664" on="1"/>
        <pt x="381" y="1664" on="1"/>
        <pt x="381" y="945" on="1"/>
        <pt x="602" y="1034" on="1"/>
        <pt x="602" y="911" on="1"/>
        <pt x="381" y="826" on="1"/>
        <pt x="381" y="0" on="1"/>
        <pt x="214" y="0" on="1"/>
      </contour>
    </TTGlyph>
    <TTGlyph name="m" xMin="193" yMin="0" xMax="1792" yMax="1157">
      <contour>
        <pt x="1073" y="894" on="1"/>
        <pt x="1086" y="822" on="0"/>
        <pt x="1086" y="708" on="1"/>
        <pt x="1086" y="0" on="1"/>
        <pt x="919" y="0" on="1"/>
        <pt x="919" y="697" on="1"/>
        <pt x="919" y="879" on="0"/>
        <pt x="833" y="1016" on="0"/>
        <pt x="583" y="1016" on="0"/>
        <pt x="436" y="930" on="1"/>
        <pt x="394" y="906" on="0"/>
        <pt x="360" y="878" on="1"/>
        <pt x="360" y="0" on="1"/>
        <pt x="193" y="0" on="1"/>
        <pt x="193" y="1139" on="1"/>
        <pt x="342" y="1139" on="1"/>
        <pt x="343" y="993" on="1"/>
        <pt x="465" y="1092" on="0"/>
        <pt x="642" y="1140" on="1"/>
        <pt x="707" y="1157" on="0"/>
        <pt x="764" y="1157" on="1"/>
        <pt x="877" y="1157" on="0"/>
        <pt x="1008" y="1089" on="0"/>
        <pt x="1044" y="1004" on="1"/>
        <pt x="1168" y="1101" on="0"/>
        <pt x="1337" y="1142" on="1"/>
        <pt x="1401" y="1157" on="0"/>
        <pt x="1476" y="1157" on="1"/>
        <pt x="1641" y="1157" on="0"/>
        <pt x="1792" y="956" on="0"/>
        <pt x="1792" y="703" on="1"/>
        <pt x="1792" y="0" on="1"/>
        <pt x="1626" y="0" on="1"/>
        <pt x="1626" y="695" on="1"/>
        <pt x="1626" y="870" on="0"/>
        <pt x="1538" y="1017" on="0"/>
        <pt x="1252" y="1017" on="0"/>
      </contour>
    </TTGlyph>
    <TTGlyph name="macron" xMin="50" yMin="1452" xMax="593" yMax="1576">
      <contour>
        <pt x="50" y="1576" on="1"/>
        <pt x="593" y="1576" on="1"/>
        <pt x="593" y="1452" on="1"/>
        <pt x="50" y="1452" on="1"/>
      </contour>
    </TTGlyph>
    <TTGlyph name="macron.cap" xMin="50" yMin="1743" xMax="593" yMax="1867">
      <contour>
        <pt x="50" y="1867" on="1"/>
        <pt x="593" y="1867" on="1"/>
        <pt x="593" y="1743" on="1"/>
        <pt x="50" y="1743" on="1"/>
      </contour>
    </TTGlyph>
    <TTGlyph name="minus" xMin="247" yMin="705" xMax="1103" yMax="840">
      <contour>
        <pt x="247" y="840" on="1"/>
        <pt x="1103" y="840" on="1"/>
        <pt x="1103" y="705" on="1"/>
        <pt x="247" y="705" on="1"/>
      </contour>
    </TTGlyph>
    <TTGlyph name="minute" xMin="197" yMin="1190" xMax="478" yMax="1790">
      <contour>
        <pt x="303" y="1790" on="1"/>
        <pt x="478" y="1790" on="1"/>
        <pt x="321" y="1190" on="1"/>
        <pt x="197" y="1190" on="1"/>
      </contour>
    </TTGlyph>
    <TTGlyph name="mu" xMin="216" yMin="-371" xMax="1254" yMax="1140">
      <contour>
        <pt x="955" y="138" on="1"/>
        <pt x="809" y="-16" on="0"/>
        <pt x="429" y="-16" on="0"/>
        <pt x="348" y="113" on="1"/>
        <pt x="372" y="-371" on="1"/>
        <pt x="216" y="-371" on="1"/>
        <pt x="216" y="1140" on="1"/>
        <pt x="382" y="1140" on="1"/>
        <pt x="382" y="384" on="1"/>
        <pt x="382" y="117" on="0"/>
        <pt x="645" y="115" on="1"/>
        <pt x="779" y="115" on="0"/>
        <pt x="933" y="235" on="1"/>
        <pt x="933" y="1140" on="1"/>
        <pt x="1099" y="1140" on="1"/>
        <pt x="1099" y="228" on="1"/>
        <pt x="1099" y="140" on="0"/>
        <pt x="1122" y="126" on="1"/>
        <pt x="1130" y="121" on="0"/>
        <pt x="1140" y="121" on="1"/>
        <pt x="1180" y="121" on="0"/>
        <pt x="1230" y="163" on="1"/>
        <pt x="1254" y="87" on="1"/>
        <pt x="1239" y="59" on="0"/>
        <pt x="1124" y="-13" on="0"/>
        <pt x="1063" y="-13" on="1"/>
        <pt x="955" y="-13" on="0"/>
        <pt x="955" y="120" on="1"/>
        <pt x="955" y="129" on="0"/>
      </contour>
    </TTGlyph>
    <TTGlyph name="multiply" xMin="250" yMin="326" xMax="1121" yMax="1224">
      <contour>
        <pt x="250" y="424" on="1"/>
        <pt x="598" y="771" on="1"/>
        <pt x="250" y="1127" on="1"/>
        <pt x="349" y="1224" on="1"/>
        <pt x="686" y="862" on="1"/>
        <pt x="1022" y="1224" on="1"/>
        <pt x="1121" y="1127" on="1"/>
        <pt x="773" y="774" on="1"/>
        <pt x="1121" y="424" on="1"/>
        <pt x="1022" y="326" on="1"/>
        <pt x="686" y="680" on="1"/>
        <pt x="349" y="326" on="1"/>
      </contour>
    </TTGlyph>
    <TTGlyph name="n" xMin="193" yMin="0" xMax="1103" yMax="1157">
      <contour>
        <pt x="193" y="1139" on="1"/>
        <pt x="342" y="1139" on="1"/>
        <pt x="343" y="993" on="1"/>
        <pt x="471" y="1091" on="0"/>
        <pt x="638" y="1138" on="1"/>
        <pt x="704" y="1157" on="0"/>
        <pt x="781" y="1157" on="1"/>
        <pt x="951" y="1157" on="0"/>
        <pt x="1103" y="955" on="0"/>
        <pt x="1103" y="705" on="1"/>
        <pt x="1103" y="0" on="1"/>
        <pt x="936" y="0" on="1"/>
        <pt x="936" y="706" on="1"/>
        <pt x="936" y="883" on="0"/>
        <pt x="838" y="1018" on="0"/>
        <pt x="580" y="1018" on="0"/>
        <pt x="433" y="929" on="1"/>
        <pt x="392" y="904" on="0"/>
        <pt x="360" y="878" on="1"/>
        <pt x="360" y="0" on="1"/>
        <pt x="193" y="0" on="1"/>
      </contour>
    </TTGlyph>
    <TTGlyph name="nacute" xMin="193" yMin="0" xMax="1103" yMax="1781">
      <component glyphName="acute" x="526" y="0" flags="0x1004"/>
      <component glyphName="n" x="0" y="0" flags="0x1004"/>
    </TTGlyph>
    <TTGlyph name="napostrophe" xMin="193" yMin="-560" xMax="1103" yMax="1157">
      <component glyphName="commaaccent" x="493" y="0" flags="0x1004"/>
      <component glyphName="n" x="0" y="0" flags="0x1004"/>
    </TTGlyph>
    <TTGlyph name="ncaron" xMin="193" yMin="0" xMax="1103" yMax="1712">
      <component glyphName="caron" x="280" y="21" flags="0x1004"/>
      <component glyphName="n" x="0" y="0" flags="0x1004"/>
    </TTGlyph>
    <TTGlyph name="ncommaaccent" xMin="193" yMin="-560" xMax="1103" yMax="1157">
      <component glyphName="commaaccent" x="493" y="0" flags="0x1004"/>
      <component glyphName="n" x="0" y="0" flags="0x1004"/>
    </TTGlyph>
    <TTGlyph name="nine" xMin="180" yMin="-373" xMax="1211" yMax="1264">
      <contour>
        <pt x="875" y="344" on="1"/>
        <pt x="796" y="254" on="0"/>
        <pt x="570" y="254" on="1"/>
        <pt x="493" y="254" on="0"/>
        <pt x="339" y="333" on="0"/>
        <pt x="286" y="398" on="1"/>
        <pt x="180" y="531" on="0"/>
        <pt x="180" y="722" on="1"/>
        <pt x="180" y="960" on="0"/>
        <pt x="463" y="1264" on="0"/>
        <pt x="946" y="1264" on="0"/>
        <pt x="1211" y="928" on="0"/>
        <pt x="1211" y="678" on="1"/>
        <pt x="1211" y="281" on="0"/>
        <pt x="934" y="-28" on="1"/>
        <pt x="769" y="-211" on="0"/>
        <pt x="564" y="-306" on="1"/>
        <pt x="464" y="-353" on="0"/>
        <pt x="368" y="-373" on="1"/>
        <pt x="311" y="-270" on="1"/>
        <pt x="627" y="-192" on="0"/>
        <pt x="1033" y="348" on="0"/>
        <pt x="1033" y="627" on="1"/>
        <pt x="1033" y="986" on="0"/>
        <pt x="849" y="1102" on="1"/>
        <pt x="782" y="1145" on="0"/>
        <pt x="692" y="1145" on="1"/>
        <pt x="530" y="1145" on="0"/>
        <pt x="348" y="916" on="0"/>
        <pt x="348" y="777" on="1"/>
        <pt x="348" y="590" on="0"/>
        <pt x="510" y="384" on="0"/>
        <pt x="743" y="384" on="0"/>
        <pt x="835" y="439" on="1"/>
      </contour>
    </TTGlyph>
    <TTGlyph name="notequal" xMin="241" yMin="203" xMax="1156" yMax="1319">
      <contour>
        <pt x="510" y="428" on="1"/>
        <pt x="241" y="428" on="1"/>
        <pt x="241" y="555" on="1"/>
        <pt x="557" y="555" on="1"/>
        <pt x="713" y="986" on="1"/>
        <pt x="241" y="986" on="1"/>
        <pt x="241" y="1114" on="1"/>
        <pt x="762" y="1114" on="1"/>
        <pt x="839" y="1319" on="1"/>
        <pt x="972" y="1319" on="1"/>
        <pt x="894" y="1114" on="1"/>
        <pt x="1156" y="1114" on="1"/>
        <pt x="1156" y="986" on="1"/>
        <pt x="845" y="986" on="1"/>
        <pt x="689" y="555" on="1"/>
        <pt x="1156" y="555" on="1"/>
        <pt x="1156" y="428" on="1"/>
        <pt x="641" y="428" on="1"/>
        <pt x="557" y="203" on="1"/>
        <pt x="426" y="203" on="1"/>
      </contour>
    </TTGlyph>
    <TTGlyph name="ntilde" xMin="193" yMin="0" xMax="1107" yMax="1638">
      <component glyphName="n" x="0" y="0" flags="0x1204"/>
      <component glyphName="tilde" x="237" y="0" flags="0x1004"/>
    </TTGlyph>
    <TTGlyph name="numbersign" xMin="203" yMin="0" xMax="1369" yMax="1369">
      <contour>
        <pt x="415" y="358" on="1"/>
        <pt x="203" y="358" on="1"/>
        <pt x="203" y="477" on="1"/>
        <pt x="426" y="477" on="1"/>
        <pt x="466" y="914" on="1"/>
        <pt x="239" y="914" on="1"/>
        <pt x="239" y="1031" on="1"/>
        <pt x="477" y="1031" on="1"/>
        <pt x="508" y="1369" on="1"/>
        <pt x="653" y="1369" on="1"/>
        <pt x="621" y="1031" on="1"/>
        <pt x="995" y="1031" on="1"/>
        <pt x="1025" y="1369" on="1"/>
        <pt x="1170" y="1369" on="1"/>
        <pt x="1139" y="1031" on="1"/>
        <pt x="1369" y="1031" on="1"/>
        <pt x="1369" y="914" on="1"/>
        <pt x="1128" y="914" on="1"/>
        <pt x="1088" y="477" on="1"/>
        <pt x="1322" y="477" on="1"/>
        <pt x="1323" y="358" on="1"/>
        <pt x="1077" y="358" on="1"/>
        <pt x="1044" y="0" on="1"/>
        <pt x="904" y="0" on="1"/>
        <pt x="935" y="358" on="1"/>
        <pt x="559" y="358" on="1"/>
        <pt x="526" y="0" on="1"/>
        <pt x="383" y="0" on="1"/>
      </contour>
      <contour>
        <pt x="946" y="477" on="1"/>
        <pt x="984" y="914" on="1"/>
        <pt x="610" y="914" on="1"/>
        <pt x="570" y="477" on="1"/>
      </contour>
    </TTGlyph>
    <TTGlyph name="o" xMin="105" yMin="-16" xMax="1118" yMax="1156">
      <contour>
        <pt x="216" y="166" on="1"/>
        <pt x="105" y="323" on="0"/>
        <pt x="105" y="592" on="1"/>
        <pt x="105" y="721" on="0"/>
        <pt x="188" y="938" on="0"/>
        <pt x="258" y="1010" on="1"/>
        <pt x="398" y="1156" on="0"/>
        <pt x="876" y="1156" on="0"/>
        <pt x="1006" y="976" on="1"/>
        <pt x="1118" y="820" on="0"/>
        <pt x="1118" y="292" on="0"/>
        <pt x="829" y="-16" on="0"/>
        <pt x="347" y="-16" on="0"/>
      </contour>
      <contour>
        <pt x="949" y="561" on="1"/>
        <pt x="949" y="888" on="0"/>
        <pt x="767" y="997" on="1"/>
        <pt x="703" y="1035" on="0"/>
        <pt x="620" y="1035" on="1"/>
        <pt x="457" y="1035" on="0"/>
        <pt x="275" y="802" on="0"/>
        <pt x="275" y="378" on="0"/>
        <pt x="443" y="103" on="0"/>
        <pt x="769" y="103" on="0"/>
        <pt x="949" y="347" on="0"/>
      </contour>
    </TTGlyph>
    <TTGlyph name="oacute" xMin="105" yMin="-16" xMax="1118" yMax="1781">
      <component glyphName="acute" x="449" y="0" flags="0x1004"/>
      <component glyphName="o" x="0" y="0" flags="0x1004"/>
    </TTGlyph>
    <TTGlyph name="obreve" xMin="105" yMin="-16" xMax="1118" yMax="1694">
      <component glyphName="o" x="0" y="0" flags="0x1204"/>
      <component glyphName="breve" x="233" y="0" flags="0x1004"/>
    </TTGlyph>
    <TTGlyph name="ocircumflex" xMin="105" yMin="-16" xMax="1118" yMax="1692">
      <component glyphName="circumflex" x="202" y="0" flags="0x1004"/>
      <component glyphName="o" x="0" y="0" flags="0x1004"/>
    </TTGlyph>
    <TTGlyph name="odieresis" xMin="105" yMin="-16" xMax="1118" yMax="1633">
      <component glyphName="dieresis" x="230" y="0" flags="0x1004"/>
      <component glyphName="o" x="0" y="0" flags="0x1004"/>
    </TTGlyph>
    <TTGlyph name="oe" xMin="105" yMin="-16" xMax="1874" yMax="1156">
      <contour>
        <pt x="1451" y="-16" on="1"/>
        <pt x="1156" y="-16" on="0"/>
        <pt x="1030" y="215" on="1"/>
        <pt x="962" y="102" on="0"/>
        <pt x="741" y="-16" on="0"/>
        <pt x="466" y="-16" on="0"/>
        <pt x="371" y="34" on="1"/>
        <pt x="187" y="130" on="0"/>
        <pt x="130" y="360" on="1"/>
        <pt x="105" y="462" on="0"/>
        <pt x="105" y="574" on="1"/>
        <pt x="105" y="851" on="0"/>
        <pt x="399" y="1156" on="0"/>
        <pt x="626" y="1156" on="1"/>
        <pt x="912" y="1156" on="0"/>
        <pt x="1041" y="920" on="1"/>
        <pt x="1177" y="1156" on="0"/>
        <pt x="1471" y="1156" on="1"/>
        <pt x="1650" y="1156" on="0"/>
        <pt x="1870" y="921" on="0"/>
        <pt x="1874" y="728" on="1"/>
        <pt x="1874" y="600" on="0"/>
        <pt x="1866" y="553" on="1"/>
        <pt x="1118" y="553" on="1"/>
        <pt x="1118" y="543" on="0"/>
        <pt x="1118" y="533" on="1"/>
        <pt x="1118" y="311" on="0"/>
        <pt x="1230" y="202" on="1"/>
        <pt x="1324" y="111" on="0"/>
        <pt x="1492" y="111" on="1"/>
        <pt x="1618" y="111" on="0"/>
        <pt x="1745" y="158" on="1"/>
        <pt x="1782" y="171" on="0"/>
        <pt x="1805" y="186" on="1"/>
        <pt x="1838" y="89" on="1"/>
        <pt x="1746" y="16" on="0"/>
        <pt x="1560" y="-8" on="1"/>
        <pt x="1504" y="-16" on="0"/>
      </contour>
      <contour>
        <pt x="1717" y="665" on="1"/>
        <pt x="1718" y="685" on="0"/>
        <pt x="1718" y="723" on="1"/>
        <pt x="1718" y="846" on="0"/>
        <pt x="1667" y="930" on="1"/>
        <pt x="1601" y="1037" on="0"/>
        <pt x="1454" y="1037" on="1"/>
        <pt x="1248" y="1037" on="0"/>
        <pt x="1165" y="834" on="1"/>
        <pt x="1136" y="764" on="0"/>
        <pt x="1125" y="665" on="1"/>
      </contour>
      <contour>
        <pt x="955" y="561" on="1"/>
        <pt x="955" y="888" on="0"/>
        <pt x="770" y="997" on="1"/>
        <pt x="705" y="1035" on="0"/>
        <pt x="623" y="1035" on="1"/>
        <pt x="460" y="1035" on="0"/>
        <pt x="275" y="801" on="0"/>
        <pt x="275" y="378" on="0"/>
        <pt x="443" y="103" on="0"/>
        <pt x="771" y="103" on="0"/>
        <pt x="955" y="347" on="0"/>
      </contour>
    </TTGlyph>
    <TTGlyph name="ogonek" xMin="3" yMin="-511" xMax="564" yMax="7">
      <contour>
        <pt x="564" y="-438" on="1"/>
        <pt x="454" y="-511" on="0"/>
        <pt x="295" y="-511" on="1"/>
        <pt x="134" y="-511" on="0"/>
        <pt x="3" y="-264" on="0"/>
        <pt x="141" y="-124" on="1"/>
        <pt x="221" y="-43" on="0"/>
        <pt x="330" y="1" on="1"/>
        <pt x="404" y="7" on="1"/>
        <pt x="477" y="4" on="1"/>
        <pt x="390" y="-29" on="0"/>
        <pt x="324" y="-88" on="1"/>
        <pt x="200" y="-199" on="0"/>
        <pt x="200" y="-279" on="1"/>
        <pt x="200" y="-401" on="0"/>
        <pt x="351" y="-401" on="1"/>
        <pt x="434" y="-401" on="0"/>
        <pt x="549" y="-347" on="1"/>
      </contour>
    </TTGlyph>
    <TTGlyph name="ograve" xMin="105" yMin="-16" xMax="1118" yMax="1781">
      <component glyphName="o" x="0" y="0" flags="0x1204"/>
      <component glyphName="grave" x="219" y="0" flags="0x1004"/>
    </TTGlyph>
    <TTGlyph name="ohungarumlaut" xMin="105" yMin="-16" xMax="1154" yMax="1817">
      <component glyphName="hungarumlaut" x="224" y="21" flags="0x1004"/>
      <component glyphName="o" x="0" y="0" flags="0x1004"/>
    </TTGlyph>
    <TTGlyph name="omacron" xMin="105" yMin="-16" xMax="1118" yMax="1576">
      <component glyphName="macron" x="300" y="0" flags="0x1004"/>
      <component glyphName="o" x="0" y="0" flags="0x1004"/>
    </TTGlyph>
    <TTGlyph name="one" xMin="127" yMin="0" xMax="583" yMax="1278">
      <contour>
        <pt x="409" y="1067" on="1"/>
        <pt x="253" y="1003" on="0"/>
        <pt x="147" y="977" on="1"/>
        <pt x="127" y="1078" on="1"/>
        <pt x="273" y="1122" on="0"/>
        <pt x="442" y="1232" on="1"/>
        <pt x="485" y="1260" on="0"/>
        <pt x="505" y="1278" on="1"/>
        <pt x="583" y="1256" on="1"/>
        <pt x="583" y="0" on="1"/>
        <pt x="409" y="0" on="1"/>
      </contour>
    </TTGlyph>
    <TTGlyph name="onehalf" xMin="216" yMin="-2" xMax="2276" yMax="1688">
      <component glyphName="twosuperior" x="1271" y="-681" flags="0x1004"/>
      <component glyphName="onesuperior" x="8" y="0" flags="0x1004"/>
      <component glyphName="fraction" x="604" y="0" flags="0x1004"/>
    </TTGlyph>
    <TTGlyph name="onequarter" xMin="216" yMin="-55" xMax="2263" yMax="1688">
      <component glyphName="foursuperior" x="1221" y="-647" flags="0x1004"/>
      <component glyphName="fraction" x="603" y="0" flags="0x1004"/>
      <component glyphName="onesuperior" x="8" y="0" flags="0x1004"/>
    </TTGlyph>
    <TTGlyph name="onesuperior" xMin="208" yMin="662" xMax="640" yMax="1688">
      <contour>
        <pt x="479" y="1487" on="1"/>
        <pt x="450" y="1479" on="0"/>
        <pt x="292" y="1413" on="0"/>
        <pt x="240" y="1402" on="1"/>
        <pt x="208" y="1494" on="1"/>
        <pt x="329" y="1529" on="0"/>
        <pt x="500" y="1646" on="1"/>
        <pt x="540" y="1673" on="0"/>
        <pt x="558" y="1688" on="1"/>
        <pt x="640" y="1667" on="1"/>
        <pt x="640" y="662" on="1"/>
        <pt x="479" y="662" on="1"/>
      </contour>
    </TTGlyph>
    <TTGlyph name="ordfeminine" xMin="139" yMin="678" xMax="868" yMax="1597">
      <contour>
        <pt x="432" y="678" on="1"/>
        <pt x="307" y="678" on="0"/>
        <pt x="139" y="806" on="0"/>
        <pt x="139" y="924" on="1"/>
        <pt x="139" y="1098" on="0"/>
        <pt x="318" y="1165" on="1"/>
        <pt x="469" y="1222" on="0"/>
        <pt x="717" y="1222" on="1"/>
        <pt x="717" y="1301" on="1"/>
        <pt x="717" y="1405" on="0"/>
        <pt x="619" y="1479" on="0"/>
        <pt x="390" y="1479" on="0"/>
        <pt x="255" y="1420" on="1"/>
        <pt x="222" y="1405" on="0"/>
        <pt x="206" y="1393" on="1"/>
        <pt x="163" y="1486" on="1"/>
        <pt x="198" y="1518" on="0"/>
        <pt x="430" y="1597" on="0"/>
        <pt x="520" y="1597" on="1"/>
        <pt x="698" y="1597" on="0"/>
        <pt x="868" y="1464" on="0"/>
        <pt x="868" y="1304" on="1"/>
        <pt x="868" y="685" on="1"/>
        <pt x="814" y="685" on="1"/>
        <pt x="762" y="685" on="0"/>
        <pt x="726" y="701" on="0"/>
        <pt x="726" y="741" on="1"/>
        <pt x="726" y="772" on="1"/>
        <pt x="610" y="678" on="0"/>
      </contour>
      <contour>
        <pt x="672" y="837" on="1"/>
        <pt x="700" y="849" on="0"/>
        <pt x="717" y="860" on="1"/>
        <pt x="717" y="1128" on="1"/>
        <pt x="481" y="1128" on="0"/>
        <pt x="343" y="1063" on="0"/>
        <pt x="287" y="995" on="0"/>
        <pt x="287" y="866" on="0"/>
        <pt x="385" y="790" on="0"/>
        <pt x="562" y="790" on="0"/>
      </contour>
    </TTGlyph>
    <TTGlyph name="ordmasculine" xMin="114" yMin="675" xMax="919" yMax="1597">
      <contour>
        <pt x="502" y="675" on="1"/>
        <pt x="417" y="675" on="0"/>
        <pt x="342" y="708" on="1"/>
        <pt x="194" y="775" on="0"/>
        <pt x="140" y="953" on="1"/>
        <pt x="114" y="1037" on="0"/>
        <pt x="114" y="1140" on="1"/>
        <pt x="114" y="1371" on="0"/>
        <pt x="253" y="1494" on="1"/>
        <pt x="368" y="1597" on="0"/>
        <pt x="718" y="1597" on="0"/>
        <pt x="919" y="1347" on="0"/>
        <pt x="919" y="906" on="0"/>
        <pt x="788" y="780" on="1"/>
        <pt x="679" y="675" on="0"/>
      </contour>
      <contour>
        <pt x="415" y="813" on="1"/>
        <pt x="459" y="789" on="0"/>
        <pt x="516" y="789" on="1"/>
        <pt x="630" y="789" on="0"/>
        <pt x="759" y="955" on="0"/>
        <pt x="761" y="1129" on="1"/>
        <pt x="761" y="1385" on="0"/>
        <pt x="626" y="1460" on="1"/>
        <pt x="537" y="1510" on="0"/>
        <pt x="428" y="1466" on="1"/>
        <pt x="383" y="1447" on="0"/>
        <pt x="348" y="1407" on="1"/>
        <pt x="273" y="1319" on="0"/>
        <pt x="273" y="1148" on="1"/>
        <pt x="273" y="891" on="0"/>
      </contour>
    </TTGlyph>
    <TTGlyph name="oslash" xMin="103" yMin="-195" xMax="1122" yMax="1336">
      <contour>
        <pt x="378" y="30" on="1"/>
        <pt x="166" y="130" on="0"/>
        <pt x="117" y="413" on="1"/>
        <pt x="103" y="494" on="0"/>
        <pt x="103" y="539" on="1"/>
        <pt x="103" y="722" on="0"/>
        <pt x="186" y="938" on="0"/>
        <pt x="256" y="1010" on="1"/>
        <pt x="398" y="1156" on="0"/>
        <pt x="624" y="1156" on="1"/>
        <pt x="691" y="1156" on="0"/>
        <pt x="752" y="1142" on="1"/>
        <pt x="817" y="1336" on="1"/>
        <pt x="913" y="1308" on="1"/>
        <pt x="846" y="1110" on="1"/>
        <pt x="1057" y="1009" on="0"/>
        <pt x="1108" y="732" on="1"/>
        <pt x="1122" y="651" on="0"/>
        <pt x="1122" y="605" on="1"/>
        <pt x="1122" y="423" on="0"/>
        <pt x="1040" y="206" on="0"/>
        <pt x="971" y="133" on="1"/>
        <pt x="830" y="-16" on="0"/>
        <pt x="603" y="-16" on="1"/>
        <pt x="535" y="-16" on="0"/>
        <pt x="473" y="-2" on="1"/>
        <pt x="408" y="-195" on="1"/>
        <pt x="312" y="-168" on="1"/>
      </contour>
      <contour>
        <pt x="711" y="1021" on="1"/>
        <pt x="671" y="1035" on="0"/>
        <pt x="604" y="1035" on="1"/>
        <pt x="457" y="1035" on="0"/>
        <pt x="273" y="802" on="0"/>
        <pt x="273" y="589" on="1"/>
        <pt x="273" y="286" on="0"/>
        <pt x="424" y="166" on="1"/>
      </contour>
      <contour>
        <pt x="513" y="117" on="1"/>
        <pt x="557" y="103" on="0"/>
        <pt x="691" y="103" on="0"/>
        <pt x="817" y="165" on="0"/>
        <pt x="861" y="224" on="1"/>
        <pt x="952" y="346" on="0"/>
        <pt x="952" y="771" on="0"/>
        <pt x="868" y="902" on="1"/>
        <pt x="840" y="945" on="0"/>
        <pt x="801" y="975" on="1"/>
      </contour>
    </TTGlyph>
    <TTGlyph name="otilde" xMin="105" yMin="-16" xMax="1118" yMax="1638">
      <component glyphName="o" x="0" y="0" flags="0x1204"/>
      <component glyphName="tilde" x="160" y="0" flags="0x1004"/>
    </TTGlyph>
    <TTGlyph name="p" xMin="187" yMin="-506" xMax="1144" yMax="1156">
      <contour>
        <pt x="575" y="-16" on="1"/>
        <pt x="449" y="-16" on="0"/>
        <pt x="350" y="22" on="1"/>
        <pt x="353" y="-139" on="1"/>
        <pt x="353" y="-506" on="1"/>
        <pt x="187" y="-506" on="1"/>
        <pt x="187" y="1140" on="1"/>
        <pt x="337" y="1140" on="1"/>
        <pt x="338" y="1007" on="1"/>
        <pt x="487" y="1156" on="0"/>
        <pt x="885" y="1156" on="0"/>
        <pt x="1144" y="879" on="0"/>
        <pt x="1144" y="333" on="0"/>
        <pt x="830" y="-16" on="0"/>
      </contour>
      <contour>
        <pt x="974" y="809" on="0"/>
        <pt x="803" y="1025" on="0"/>
        <pt x="488" y="1025" on="0"/>
        <pt x="353" y="909" on="1"/>
        <pt x="353" y="163" on="1"/>
        <pt x="420" y="106" on="0"/>
        <pt x="756" y="106" on="0"/>
        <pt x="974" y="364" on="0"/>
      </contour>
    </TTGlyph>
    <TTGlyph name="paragraph" xMin="91" yMin="0" xMax="1094" yMax="1711">
      <contour>
        <pt x="954" y="1579" on="1"/>
        <pt x="702" y="1586" on="1"/>
        <pt x="672" y="1586" on="1"/>
        <pt x="672" y="0" on="1"/>
        <pt x="532" y="0" on="1"/>
        <pt x="532" y="832" on="1"/>
        <pt x="309" y="832" on="0"/>
        <pt x="91" y="1045" on="0"/>
        <pt x="91" y="1478" on="0"/>
        <pt x="377" y="1711" on="0"/>
        <pt x="649" y="1711" on="1"/>
        <pt x="1094" y="1689" on="1"/>
        <pt x="1094" y="0" on="1"/>
        <pt x="954" y="0" on="1"/>
      </contour>
    </TTGlyph>
    <TTGlyph name="parenleft" xMin="142" yMin="-327" xMax="713" yMax="1732">
      <contour>
        <pt x="598" y="-327" on="1"/>
        <pt x="467" y="-244" on="0"/>
        <pt x="221" y="153" on="0"/>
        <pt x="170" y="416" on="1"/>
        <pt x="142" y="556" on="0"/>
        <pt x="142" y="868" on="0"/>
        <pt x="197" y="1122" on="0"/>
        <pt x="240" y="1230" on="1"/>
        <pt x="318" y="1424" on="0"/>
        <pt x="535" y="1696" on="0"/>
        <pt x="598" y="1732" on="1"/>
        <pt x="713" y="1675" on="1"/>
        <pt x="601" y="1592" on="0"/>
        <pt x="484" y="1394" on="1"/>
        <pt x="305" y="1086" on="0"/>
        <pt x="305" y="688" on="1"/>
        <pt x="305" y="211" on="0"/>
        <pt x="563" y="-120" on="1"/>
        <pt x="635" y="-212" on="0"/>
        <pt x="713" y="-270" on="1"/>
      </contour>
    </TTGlyph>
    <TTGlyph name="parenright" xMin="135" yMin="-305" xMax="706" yMax="1754">
      <component glyphName="parenleft" x="848" y="1427" scale="-0.999938964844" flags="0x1004"/>
    </TTGlyph>
    <TTGlyph name="partialdiff" xMin="162" yMin="-29" xMax="1220" yMax="1684">
      <contour>
        <pt x="781" y="1043" on="1"/>
        <pt x="924" y="1043" on="0"/>
        <pt x="1056" y="994" on="1"/>
        <pt x="1018" y="1392" on="0"/>
        <pt x="757" y="1514" on="1"/>
        <pt x="661" y="1559" on="0"/>
        <pt x="348" y="1559" on="0"/>
        <pt x="241" y="1486" on="1"/>
        <pt x="185" y="1582" on="1"/>
        <pt x="322" y="1684" on="0"/>
        <pt x="555" y="1684" on="1"/>
        <pt x="999" y="1684" on="0"/>
        <pt x="1153" y="1256" on="1"/>
        <pt x="1220" y="1070" on="0"/>
        <pt x="1220" y="824" on="1"/>
        <pt x="1220" y="155" on="0"/>
        <pt x="856" y="6" on="1"/>
        <pt x="770" y="-29" on="0"/>
        <pt x="663" y="-29" on="1"/>
        <pt x="451" y="-29" on="0"/>
        <pt x="162" y="238" on="0"/>
        <pt x="162" y="727" on="0"/>
        <pt x="498" y="1043" on="0"/>
      </contour>
      <contour>
        <pt x="1063" y="864" on="1"/>
        <pt x="944" y="926" on="0"/>
        <pt x="578" y="926" on="0"/>
        <pt x="324" y="692" on="0"/>
        <pt x="324" y="304" on="0"/>
        <pt x="508" y="94" on="0"/>
        <pt x="831" y="96" on="0"/>
        <pt x="926" y="222" on="1"/>
        <pt x="1063" y="402" on="0"/>
        <pt x="1063" y="816" on="1"/>
      </contour>
    </TTGlyph>
    <TTGlyph name="percent" xMin="85" yMin="0" xMax="1858" yMax="1530">
      <contour>
        <pt x="1225" y="1530" on="1"/>
        <pt x="1370" y="1530" on="1"/>
        <pt x="712" y="0" on="1"/>
        <pt x="567" y="0" on="1"/>
      </contour>
      <contour>
        <pt x="806" y="905" on="0"/>
        <pt x="583" y="686" on="0"/>
        <pt x="272" y="686" on="0"/>
        <pt x="85" y="915" on="0"/>
        <pt x="85" y="1269" on="0"/>
        <pt x="308" y="1492" on="0"/>
        <pt x="634" y="1492" on="0"/>
        <pt x="806" y="1272" on="0"/>
      </contour>
      <contour>
        <pt x="354" y="820" on="1"/>
        <pt x="392" y="798" on="0"/>
        <pt x="440" y="798" on="1"/>
        <pt x="538" y="800" on="0"/>
        <pt x="657" y="954" on="0"/>
        <pt x="657" y="1086" on="1"/>
        <pt x="657" y="1294" on="0"/>
        <pt x="540" y="1360" on="1"/>
        <pt x="504" y="1380" on="0"/>
        <pt x="453" y="1380" on="0"/>
        <pt x="403" y="1379" on="0"/>
        <pt x="323" y="1338" on="0"/>
        <pt x="294" y="1300" on="1"/>
        <pt x="234" y="1221" on="0"/>
        <pt x="234" y="1089" on="1"/>
        <pt x="234" y="890" on="0"/>
      </contour>
      <contour>
        <pt x="1138" y="638" on="0"/>
        <pt x="1361" y="861" on="0"/>
        <pt x="1689" y="861" on="0"/>
        <pt x="1858" y="640" on="0"/>
        <pt x="1858" y="275" on="0"/>
        <pt x="1635" y="56" on="0"/>
        <pt x="1324" y="56" on="0"/>
        <pt x="1138" y="284" on="0"/>
      </contour>
      <contour>
        <pt x="1287" y="333" on="0"/>
        <pt x="1398" y="168" on="0"/>
        <pt x="1493" y="168" on="1"/>
        <pt x="1590" y="168" on="0"/>
        <pt x="1709" y="321" on="0"/>
        <pt x="1709" y="456" on="1"/>
        <pt x="1709" y="664" on="0"/>
        <pt x="1593" y="730" on="1"/>
        <pt x="1557" y="750" on="0"/>
        <pt x="1506" y="750" on="0"/>
        <pt x="1455" y="749" on="0"/>
        <pt x="1375" y="708" on="0"/>
        <pt x="1346" y="670" on="1"/>
        <pt x="1287" y="592" on="0"/>
      </contour>
    </TTGlyph>
</ttFont>
